<?xml version="1.0" encoding="UTF-8"?>
<svg width="694px" height="611px" viewBox="0 0 694 611" version="1.1" xmlns="http://www.w3.org/2000/svg" xmlns:xlink="http://www.w3.org/1999/xlink">
    <!-- Generator: Sketch 57.1 (83088) - https://sketch.com -->
    <title>5 SCENE</title>
    <desc>Created with Sketch.</desc>
    <g id="Page-2" stroke="none" stroke-width="1" fill="none" fill-rule="evenodd">
        <g id="Landing-Page-" transform="translate(-672.000000, -176.000000)">
            <g id="5-SCENE" transform="translate(675.000000, 179.000000)">
                <g id="LAPTOP" transform="translate(239.000000, 24.000000)">
                    <g id="Group">
                        <path d="M160.981771,93.7388601 L31.1217302,93.7388601 L31.1217302,10.2369603 C31.1217302,4.58307427 35.2430484,0 40.3272915,0 L151.77621,0 C156.860453,0 160.981771,4.58307427 160.981771,10.2369603 L160.981771,93.7388601 L160.981771,93.7388601 Z" id="Path" stroke="#66B0F0" stroke-width="6" fill="#FFFFFF" fill-rule="nonzero"></path>
                        <path d="M151.179197,88.2991364 L41.4635427,88.2991364 C38.5747683,88.2991364 36.2252317,85.6863558 36.2252317,82.4739206 L36.2252317,10.9008636 C36.2252317,7.68842832 38.5747683,5.07564767 41.4635427,5.07564767 L151.179197,5.07564767 C154.067971,5.07564767 156.417508,7.68842832 156.417508,10.9008636 L156.417508,82.4953368 C156.417508,85.707772 154.067971,88.2991364 151.179197,88.2991364 Z" id="Path" fill="#66B0F0" fill-rule="nonzero"></path>
                        <path d="M183.745314,113.334715 C188.714006,116.932642 187.558496,123.978584 181.684655,123.978584 L4.77610711,123.978584 C-0.173326468,123.978584 -1.86807415,116.54715 2.98506694,113.141969 L183.745314,113.334715 Z" id="Path" stroke="#66B0F0" stroke-width="6" fill="#66B0F0" fill-rule="nonzero"></path>
                        <path d="M181.684655,119.074266 L4.77610711,119.074266 C1.6177137,119.074266 0.365911432,114.940933 2.98506694,113.141969 L31.1602472,93.7388601 L160.61586,93.7388601 L183.726056,113.334715 C186.037075,115.283592 184.68898,119.074266 181.684655,119.074266 Z" id="Path" stroke="#66B0F0" stroke-width="6" fill="#FFFFFF" fill-rule="nonzero"></path>
                        <g transform="translate(22.532441, 93.588946)" id="Path" stroke="#66B0F0" stroke-width="6">
                            <path d="M138.738208,19.6386874 L2.6576725,19.6386874 C0.231101957,19.6386874 -0.731822863,16.4476684 1.27106076,15.0770294 L20.8376931,0.149913644 L122.522554,0.149913644 L140.298146,15.226943 C142.089186,16.7260794 141.049228,19.6386874 138.738208,19.6386874 Z" fill="#FFFFFF" fill-rule="nonzero"></path>
                            <g transform="translate(77.419156, 0.000000)">
                                <path d="M36.3022657,0.149913644 L54.0971164,19.6386874"></path>
                                <path d="M26.8656025,0.149913644 L42.5420185,19.6386874"></path>
                                <path d="M18.0452111,0.149913644 L31.6417096,19.6386874"></path>
                                <path d="M8.18486097,0.149913644 L19.6821833,19.6386874"></path>
                                <path d="M0,0.149913644 L5.60422245,19.6386874"></path>
                            </g>
                            <g transform="translate(11.169928, 0.000000)">
                                <path d="M17.9296601,0.149913644 L0.134809475,19.6386874"></path>
                                <path d="M27.3663234,0.149913644 L11.6899073,19.6386874"></path>
                                <path d="M36.1867147,0.149913644 L22.5902163,19.6386874"></path>
                                <path d="M46.0470649,0.149913644 L34.5497425,19.6386874"></path>
                                <path d="M54.2319258,0.149913644 L48.6277034,19.6386874"></path>
                            </g>
                            <path d="M70.9483007,19.874266 L70.9483007,0.149913644" fill="#FFFFFF" fill-rule="nonzero"></path>
                            <path d="M11.3047374,7.43143351 L131.131102,7.43143351"></path>
                        </g>
                    </g>
                    <g id="Group" transform="translate(44.101957, 14.563040)">
                        <g id="SHIRT" transform="translate(0.385170, 36.407599)" fill-rule="nonzero">
                            <path d="M97.5635427,37.3284974 L0.134809475,37.3284974 L1.88733265,23.5150259 C2.96580844,15.0127807 8.45447992,8.03108808 15.869001,5.67530225 L39.6147271,0.192746114 L58.0836251,0.192746114 L81.8293512,5.67530225 C89.2631308,8.00967185 94.7518023,15.0127807 95.8110196,23.5150259 L97.5635427,37.3284974 Z" id="Path" fill="#FFCF2D"></path>
                            <g id="Group" transform="translate(31.583934, 1.927461)" fill="#FFFFFF">
                                <path d="M23.8420185,14.0490501 L16.8126674,6.14645941 C16.6585994,5.97512953 16.6585994,5.69671848 16.8126674,5.54680484 C16.9667353,5.37547496 17.2170958,5.37547496 17.3519053,5.54680484 L23.8035015,12.8069085 L33.8179197,0.192746114 C33.9527291,0.0214162349 34.2030896,2.44457232e-14 34.3571576,0.149913644 C34.5112255,0.299827288 34.530484,0.578238342 34.3956746,0.749568221 L23.8420185,14.0490501 Z" id="Path"></path>
                                <path d="M10.784758,14.0490501 L0.231101957,0.749568221 C0.096292482,0.578238342 0.096292482,0.299827288 0.26961895,0.149913644 C0.423686921,-3.46944695e-17 0.674047374,-3.46944695e-17 0.808856849,0.192746114 L10.823275,12.8069085 L17.2748713,5.54680484 C17.4289392,5.37547496 17.6600412,5.37547496 17.8141092,5.54680484 C17.9681771,5.71813472 17.9681771,5.97512953 17.8141092,6.14645941 L10.784758,14.0490501 Z" id="Path"></path>
                                <path d="M17.4289392,19.2103627 C16.5045314,19.2103627 15.7534501,18.3751295 15.7534501,17.3471503 C15.7534501,16.319171 16.5045314,15.4839378 17.4289392,15.4839378 C18.3533471,15.4839378 19.1044284,16.319171 19.1044284,17.3471503 C19.1044284,18.3751295 18.3533471,19.2103627 17.4289392,19.2103627 Z M17.4289392,16.3405872 C16.9282183,16.3405872 16.5237899,16.7903282 16.5237899,17.3471503 C16.5237899,17.9039724 16.9282183,18.3537133 17.4289392,18.3537133 C17.9296601,18.3537133 18.3340886,17.9039724 18.3340886,17.3471503 C18.3340886,16.7903282 17.9296601,16.3405872 17.4289392,16.3405872 Z" id="Shape"></path>
                                <path d="M17.4289392,29.7043178 C16.5045314,29.7043178 15.7534501,28.8690846 15.7534501,27.8411054 C15.7534501,26.8131261 16.5045314,25.9778929 17.4289392,25.9778929 C18.3533471,25.9778929 19.1044284,26.8131261 19.1044284,27.8411054 C19.1044284,28.8690846 18.3533471,29.7043178 17.4289392,29.7043178 Z M17.4289392,26.8345423 C16.9282183,26.8345423 16.5237899,27.2842832 16.5237899,27.8411054 C16.5237899,28.3979275 16.9282183,28.8476684 17.4289392,28.8476684 C17.9296601,28.8476684 18.3340886,28.3979275 18.3340886,27.8411054 C18.3340886,27.2842832 17.9296601,26.8345423 17.4289392,26.8345423 Z" id="Shape"></path>
                            </g>
                        </g>
                        <g id="HAND_1_" transform="translate(0.000000, 35.122625)">
                            <polygon id="Path" stroke="#66B0F0" stroke-width="4" fill="#FFFFFF" fill-rule="nonzero" points="39.884346 38.1637306 8.41596292 38.1637306 0.0192584964 10.4511226 31.4876416 0.428324698"></polygon>
                            <g id="Group" transform="translate(6.547889, 0.000000)">
                                <path d="M3.50504634,14.0490501 L2.90803296,14.0490501 C1.38661174,14.0490501 0.154067971,12.6784111 0.154067971,10.9865285 L0.154067971,1.37063903 C0.154067971,0.685319516 0.654788877,0.128497409 1.27106076,0.128497409 L3.87095778,0.128497409 C4.48722966,0.128497409 4.98795057,0.685319516 4.98795057,1.37063903 L4.98795057,12.3785838 C5.00720906,13.2994819 4.33316169,14.0490501 3.50504634,14.0490501 Z" id="Path" fill="#FFFFFF" fill-rule="nonzero"></path>
                                <path d="M3.50504634,14.0490501 L2.90803296,14.0490501 C1.38661174,14.0490501 0.154067971,12.6784111 0.154067971,10.9865285 L0.154067971,1.37063903 C0.154067971,0.685319516 0.654788877,0.128497409 1.27106076,0.128497409 L3.87095778,0.128497409 C4.48722966,0.128497409 4.98795057,0.685319516 4.98795057,1.37063903 L4.98795057,12.3785838 C5.00720906,13.2994819 4.33316169,14.0490501 3.50504634,14.0490501 Z" id="Path" stroke="#66B0F0" stroke-width="4" stroke-linecap="round"></path>
                                <path d="M16.177137,14.0490501 L16.7741504,14.0490501 C18.2955716,14.0490501 19.5281153,12.6784111 19.5281153,10.9865285 L19.5281153,1.37063903 C19.5281153,0.685319516 19.0273944,0.128497409 18.4111226,0.128497409 L15.791967,0.128497409 C15.1756952,0.128497409 14.6749743,0.685319516 14.6749743,1.37063903 L14.6749743,12.3785838 C14.6749743,13.2994819 15.3490216,14.0490501 16.177137,14.0490501 Z" id="Path" fill="#FFFFFF" fill-rule="nonzero"></path>
                                <path d="M8.33892894,15.1626943 L6.9523172,15.1626943 C5.8738414,15.1626943 5.00720906,14.1989637 5.00720906,12.9996546 L5.00720906,1.39205527 C5.00720906,0.706735751 5.50792997,0.149913644 6.12420185,0.149913644 L8.72409887,0.149913644 C9.34037075,0.149913644 9.84109166,0.706735751 9.84109166,1.39205527 L9.84109166,13.492228 C9.84109166,14.4131261 9.16704428,15.1626943 8.33892894,15.1626943 Z" id="Path" fill="#FFFFFF" fill-rule="nonzero"></path>
                                <path d="M13.19207,15.591019 L12.0365602,15.591019 C10.823275,15.591019 9.84109166,14.498791 9.84109166,13.1495682 L9.84109166,1.37063903 C9.84109166,0.685319516 10.3418126,0.128497409 10.9580844,0.128497409 L13.5579815,0.128497409 C14.1742533,0.128497409 14.6749743,0.685319516 14.6749743,1.37063903 L14.6749743,13.9205527 C14.6749743,14.8414508 14.0009269,15.591019 13.19207,15.591019 Z" id="Path" fill="#FFFFFF" fill-rule="nonzero"></path>
                                <path d="M16.177137,14.0490501 L16.7741504,14.0490501 C18.2955716,14.0490501 19.5281153,12.6784111 19.5281153,10.9865285 L19.5281153,1.37063903 C19.5281153,0.685319516 19.0273944,0.128497409 18.4111226,0.128497409 L15.791967,0.128497409 C15.1756952,0.128497409 14.6749743,0.685319516 14.6749743,1.37063903 L14.6749743,12.3785838 C14.6749743,13.2994819 15.3490216,14.0490501 16.177137,14.0490501 Z" id="Path" stroke="#66B0F0" stroke-width="4" stroke-linecap="round"></path>
                                <path d="M8.33892894,15.1626943 L6.9523172,15.1626943 C5.8738414,15.1626943 5.00720906,14.1989637 5.00720906,12.9996546 L5.00720906,1.39205527 C5.00720906,0.706735751 5.50792997,0.149913644 6.12420185,0.149913644 L8.72409887,0.149913644 C9.34037075,0.149913644 9.84109166,0.706735751 9.84109166,1.39205527 L9.84109166,13.492228 C9.84109166,14.4131261 9.16704428,15.1626943 8.33892894,15.1626943 Z" id="Path" stroke="#66B0F0" stroke-width="4" stroke-linecap="round"></path>
                                <path d="M13.19207,15.591019 L12.0365602,15.591019 C10.823275,15.591019 9.84109166,14.498791 9.84109166,13.1495682 L9.84109166,1.37063903 C9.84109166,0.685319516 10.3418126,0.128497409 10.9580844,0.128497409 L13.5579815,0.128497409 C14.1742533,0.128497409 14.6749743,0.685319516 14.6749743,1.37063903 L14.6749743,13.9205527 C14.6749743,14.8414508 14.0009269,15.591019 13.19207,15.591019 Z" id="Path" stroke="#66B0F0" stroke-width="4" stroke-linecap="round"></path>
                            </g>
                        </g>
                        <g id="HEAD_5_" transform="translate(35.628218, 0.000000)" fill-rule="nonzero">
                            <g id="NECK_2_" transform="translate(4.236869, 23.986183)">
                                <path d="M18.622966,0.0214162349 L18.622966,15.6552677 C18.622966,18.3537133 14.4823893,20.5595855 9.37888774,20.5595855 C4.2753862,20.5595855 0.134809475,18.3537133 0.134809475,15.6552677 L0.134809475,0.0214162349 L18.622966,0.0214162349 Z" id="Path" fill="#FFFFFF"></path>
                                <path d="M18.622966,0.0214162349 C18.622966,11.8217617 11.8247168,15.3340242 5.29608651,14.7129534 C5.27682801,14.7129534 5.25756952,14.7129534 5.23831102,14.7129534 C2.34953656,14.4131261 0.154067971,11.671848 0.154067971,8.45941278 L0.154067971,0.0428324698 L18.622966,0.0428324698 L18.622966,0.0214162349 Z" id="Path" fill="#66B0F0"></path>
                            </g>
                            <path d="M27.1544799,19.9813472 L27.1544799,20.7737478 C27.1544799,22.5298791 25.8834192,23.9433506 24.3042225,23.9433506 L22.8405767,23.9433506 L22.8598352,24.3074266 C22.8598352,29.361658 19.1814624,33.4521589 14.6364573,33.4521589 L12.6143151,33.4521589 C8.06930999,33.4521589 4.39093718,29.361658 4.39093718,24.3074266 L4.41019567,23.9433506 L2.94654995,23.9433506 C1.36735324,23.9433506 0.096292482,22.5298791 0.096292482,20.7737478 L0.096292482,19.9813472 C0.096292482,18.2252159 1.36735324,16.8117444 2.94654995,16.8117444 L4.8146241,16.8117444 L5.02646756,12.9354059 C5.02646756,12.3357513 5.10350154,11.757513 5.25756952,11.2221071 C10.7654995,12.7426598 17.2170958,8.80207254 18.9503605,7.62417962 C20.8762101,8.43799655 22.2435633,10.4939551 22.2435633,12.9139896 L22.4554068,16.7903282 L24.3234809,16.7903282 C25.8834192,16.8117444 27.1544799,18.2252159 27.1544799,19.9813472 Z" id="HEAD_4_" fill="#FFFFFF"></path>
                            <path d="M24.4390319,16.8117444 L22.4361483,16.8117444 L22.2243048,12.9354059 C22.2243048,10.5153713 20.8569516,8.45941278 18.931102,7.64559585 C17.1978373,8.80207254 10.746241,12.7426598 5.23831102,11.2435233 C5.08424305,11.7789292 5.00720906,12.3571675 5.00720906,12.9568221 L4.7953656,16.8331606 L3.54356334,16.8331606 C3.54356334,16.8331606 0.982183316,3.04110535 3.50504634,0.513989637 C5.37312049,-1.3492228 22.4746653,2.71986183 24.3619979,5.61105354 C25.4212152,7.26010363 24.4390319,16.8117444 24.4390319,16.8117444 Z" id="HAIR_2_" fill="#E57281"></path>
                            <g id="FACE" transform="translate(1.733265, 13.920553)" fill="#66B0F0">
                                <path d="M17.8911432,2.05595855 C17.8333677,2.05595855 17.7563337,2.03454231 17.6985582,1.97029361 L17.6985582,1.97029361 C17.6792997,1.94887737 16.4274974,0.813816926 14.4246138,0.813816926 C14.2705458,0.813816926 14.1357364,0.663903282 14.1357364,0.492573402 C14.1357364,0.321243523 14.2705458,0.171329879 14.4246138,0.171329879 C16.6393409,0.171329879 18.0066941,1.4134715 18.0644696,1.47772021 C18.1800206,1.58480138 18.1992791,1.79896373 18.1029866,1.92746114 C18.0644696,2.01312608 17.9681771,2.05595855 17.8911432,2.05595855 Z" id="Path"></path>
                                <path d="M10.5729145,8.69499136 C10.5343975,8.69499136 10.4958805,8.69499136 10.476622,8.67357513 C10.3225541,8.60932642 10.2455201,8.41658031 10.3032956,8.26666667 C10.8425335,6.68186528 10.707724,4.69015544 9.95664264,2.93402418 C9.51369722,1.86321244 8.87816684,1.09222798 8.31967044,0.87806563 C7.08712667,0.406908463 5.353862,1.07081174 5.3346035,1.07081174 C5.18053553,1.13506045 5.02646756,1.04939551 4.96869207,0.87806563 C4.91091658,0.706735751 4.98795057,0.535405872 5.14201854,0.471157168 C5.21905252,0.449740933 7.06786818,-0.256994819 8.49299691,0.278411054 C9.20556128,0.556822107 9.93738414,1.43488774 10.4573635,2.67702936 C11.2662204,4.58307427 11.4010299,6.76753022 10.823275,8.52366149 C10.8040165,8.60932642 10.6884655,8.69499136 10.5729145,8.69499136 Z" id="Path"></path>
                                <path d="M14.3668383,12.1001727 C14.3860968,12.2715026 14.2512873,12.4214162 14.0972194,12.4428325 L14.0779609,12.4428325 C13.9238929,12.4428325 13.8083419,12.3143351 13.7890834,12.1430052 C13.7698249,11.9288428 13.7313079,11.7146805 13.6735324,11.5219344 C12.8454171,11.9716753 12.0943357,12.1215889 11.4780639,12.1215889 C10.2647786,12.1215889 9.53295572,11.5647668 9.49443872,11.5219344 C9.35962925,11.4148532 9.34037075,11.2221071 9.41740474,11.0721934 C9.51369722,10.9222798 9.68702369,10.9008636 9.82183316,10.9865285 C9.86035015,11.0079447 10.476622,11.4791019 11.4780639,11.4791019 C12.0173018,11.4791019 12.6720906,11.3506045 13.423172,10.943696 C13.307621,10.7295337 13.19207,10.6010363 13.19207,10.6010363 C13.0765191,10.4725389 13.0957775,10.2583765 13.2113285,10.1512953 C13.3268795,10.0442142 13.5194645,10.0442142 13.615757,10.1727116 C13.6542739,10.2369603 14.3090628,11.0507772 14.3668383,12.1001727 Z" id="Path"></path>
                                <ellipse id="Oval" transform="translate(15.346775, 4.910986) rotate(-3.566673) translate(-15.346775, -4.910986) " cx="15.346775" cy="4.91098645" rx="1" ry="1.07043916"></ellipse>
                                <ellipse id="Oval" transform="translate(7.489004, 4.910743) rotate(-3.566673) translate(-7.489004, -4.910743) " cx="7.48900419" cy="4.91074269" rx="1" ry="1"></ellipse>
                                <path d="M2.1569516,7.08877375 C2.00288363,7.08877375 1.86807415,6.9388601 1.86807415,6.76753022 C1.86807415,5.82521589 1.17476828,5.07564767 0.346652935,5.07564767 C0.192584964,5.07564767 0.0577754892,4.92573402 0.0577754892,4.75440415 C0.0577754892,4.58307427 0.192584964,4.43316062 0.346652935,4.43316062 C1.50216272,4.43316062 2.44582904,5.48255613 2.44582904,6.76753022 C2.44582904,6.96027634 2.31101957,7.08877375 2.1569516,7.08877375 Z" id="Path"></path>
                                <path d="M21.530999,7.08877375 C21.376931,7.08877375 21.2421215,6.9388601 21.2421215,6.76753022 C21.2421215,5.48255613 22.1857878,4.43316062 23.3412976,4.43316062 C23.4953656,4.43316062 23.6301751,4.58307427 23.6301751,4.75440415 C23.6301751,4.92573402 23.4953656,5.07564767 23.3412976,5.07564767 C22.4939238,5.07564767 21.8198764,5.84663212 21.8198764,6.76753022 C21.8198764,6.96027634 21.7043254,7.08877375 21.530999,7.08877375 Z" id="Path"></path>
                            </g>
                        </g>
                    </g>
                </g>
                <g id="TABLE" transform="translate(0.000000, 119.000000)" stroke="#66B0F0" stroke-width="6">
                    <path d="M687.671285,417 L605.054283,113.06001 C603.414674,107.007823 598.38011,102.865723 592.689703,102.865723 L91.2587055,102.865723 C85.5104294,102.865723 80.4565759,107.09367 78.855546,113.253165 L0.0192895171,417" id="Path"></path>
                    <path d="M228.619357,0.150231601 L447.941167,0.150231601" id="Path"></path>
                </g>
                <g id="BOY" transform="translate(309.000000, 4.000000)">
                    <path d="M0.15453531,159.82619 L52.0397656,159.82619 L52.0397656,209.258958 L0.15453531,209.258958 C0.15453531,209.258958 0.15453531,157.962015 0.15453531,159.82619 Z" id="PAPER_1_" fill="#FFCF2D" fill-rule="nonzero"></path>
                    <g id="BOY_1_" transform="translate(11.976487, 0.000000)">
                        <g id="LEGS_1_" transform="translate(70.313566, 216.201402)">
                            <g id="Group" transform="translate(45.587916, 0.000000)" fill="#49787A" fill-rule="nonzero">
                                <polygon id="Path" points="66.295648 173.303958 42.1688227 106.665072 81.0151363 106.665072"></polygon>
                                <path d="M0.0965845688,17.7203726 L0.0965845688,17.7203726 C5.27351745,6.85673425 15.453531,0.0642818836 26.5221226,0.0642818836 L56.4053882,0.0642818836 L76.7074645,17.7203726 L0.0965845688,17.7203726 Z" id="Path"></path>
                            </g>
                            <g id="Group" transform="translate(0.000000, 16.713290)">
                                <g id="Path">
                                    <path d="M158.9782,79.0238622 L83.7001873,79.0238622 L112.0381,155.326458 C110.067775,151.769527 98.2651403,155.476449 85.7670971,163.983085 C73.4235892,172.382584 65.0786824,182.496267 66.7785708,186.181762 L5.69848956,68.2887877 C-10.1413797,38.5477029 9.17553403,1.00708284 40.314399,1.00708284 L209.009007,1.00708284 L209.376028,2.29272051 C220.386669,40.2190318 194.888343,79.0238622 158.9782,79.0238622 Z" fill="#3FB1B5" fill-rule="nonzero"></path>
                                    <path d="M211.925861,22.8843506 C211.655424,29.8482213 210.264606,36.5763918 207.907943,42.8117345 L119.436478,1.02851014 L207.251168,1.02851014 L209.29876,7.67097144 C210.728212,11.6564482 211.520206,17.2489721 211.925861,22.8843506 Z" fill="#E6E6E6" fill-rule="nonzero"></path>
                                    <path d="M112.057417,155.326458 C114.027742,158.883389 105.412398,168.589953 92.9336721,177.096589 C80.4356289,185.603225 68.8261637,189.867257 66.8558385,186.310326 C64.8855133,182.753395 73.2883708,172.703994 85.786414,164.197358 C98.2651403,155.690722 110.067775,151.769527 112.057417,155.326458 Z" fill="#66B0F0" fill-rule="nonzero"></path>
                                    <g transform="translate(27.816356, 0.000000)" stroke="#FFFFFF" stroke-width="6">
                                        <path d="M56.5212896,164.240213 L1.58398693,56.5037757 C-2.72368484,47.9757124 2.82026941,37.4334835 11.648099,37.4334835 L118.644484,37.4334835 C133.054902,37.4334835 143.814423,22.7129322 140.839618,7.07100719" stroke-linecap="round"></path>
                                        <path d="M38.4020245,186.546026 C36.4316993,182.989095 44.9504583,171.675484 57.9700582,163.254557 C72.5929619,153.80512 82.0582496,150.998145 84.878519,156.012131" stroke-linecap="round"></path>
                                        <path d="M85.3034911,156.483532 L49.4126654,61.5606172" stroke-linecap="round"></path>
                                        <path d="M10.3924996,0.299982123 L97.9560696,0.299982123"></path>
                                    </g>
                                </g>
                                <g transform="translate(75.335964, 154.276521)" fill-rule="nonzero" id="Path">
                                    <path d="M12.4014586,36.9406558 L7.18589192,29.0554114 L0,18.2132003 C2.93617089,15.4705066 6.47116611,12.6206765 10.4311334,9.92083737 C18.3124342,4.56401373 25.9039813,1.00708284 30.9456958,0.0214272945 L34.4420572,7.75668062 L38.8076797,17.3989632 C35.7169735,29.5910937 12.4014586,36.9406558 12.4014586,36.9406558 Z" fill="#E57281"></path>
                                    <path d="M34.4613741,7.75668062 C31.2161326,12.149276 25.1119879,17.6989453 17.5977084,22.8200687 C13.9854456,25.2842075 10.4504503,27.3840824 7.20520883,29.0554114 L0.0193169138,18.2132003 C2.9554878,15.4705066 6.49048302,12.6206765 10.4504503,9.92083737 C18.3317511,4.56401373 25.9232983,1.00708284 30.9650127,0.0214272945 L34.4613741,7.75668062 Z" fill="#49787A"></path>
                                </g>
                                <g transform="translate(74.176949, 171.632629)" id="Path">
                                    <path d="M63.8423999,42.5331796 L10.8367886,84.7663771 C6.33594771,88.2375989 -0.656775068,91.1302836 0.270436793,78.573889 C1.56467001,61.2606351 5.02239758,35.505027 13.5604735,19.5631199 C13.5604735,19.5631199 13.5604735,19.5631199 13.5604735,19.5631199 C13.9274948,19.4559834 36.8759884,12.1064214 39.9666946,0.0214272945 L64.1321537,19.0702921 C71.0862426,25.0699346 70.9317073,36.7692374 63.8423999,42.5331796 Z" stroke="#E88939" stroke-width="6" fill="#FFFFFF" fill-rule="nonzero"></path>
                                    <path d="M11.1072254,25.1556438 C15.3183126,26.0341628 38.962215,16.734717 42.6324286,2.39985699" stroke="#E88939" stroke-width="6" stroke-linecap="round"></path>
                                    <path d="M5.40873585,80.4166364 C5.40873585,80.4166364 40.0053284,27.1055276 64.6150765,30.1053488 C91.4076359,33.3408703 -16.4966443,111.507641 5.40873585,80.4166364 Z" fill="#E88939" fill-rule="nonzero"></path>
                                    <path d="M4.42357325,87.6804892 C1.73852224,87.8733349 -1.10106408,84.4021131 2.82026941,78.8310166 C2.82026941,78.8310166 38.8269966,23.5485967 64.4605412,26.6769817 C68.4205085,27.1483822 69.7533756,30.7267404 68.8261637,33.8122708" stroke="#E88939" stroke-width="6" stroke-linecap="round"></path>
                                </g>
                            </g>
                        </g>
                        <g id="T-SHIRT" transform="translate(136.184242, 77.352533)" stroke="#3FB1B5" stroke-width="6">
                            <path d="M146.248354,182.79625 C134.001431,179.582155 103.519341,171.118374 68.748896,162.20462 C52.406787,158.026297 38.7304121,145.684175 31.6797386,128.799467 L0.0193169138,52.818281 L19.1816954,19.134574 C25.073354,8.76376346 35.1181492,2.16415675 46.148107,1.41420144 L65.0014148,0.128563767 C84.0092579,-1.1570739 99.2696198,11.9992849 105.064694,32.1195145 L143.408768,156.569241 C147.619855,168.225689 146.248354,182.79625 146.248354,182.79625 Z" id="Path" fill="#FFFFFF" fill-rule="nonzero"></path>
                            <path d="M16.6898135,57.0823126 C16.6898135,57.0823126 26.7732425,74.6526941 49.7410529,78.5310344" id="Path"></path>
                            <g id="Group" transform="translate(23.180297, 7.713826)" fill="#FFCF2D" fill-rule="nonzero" stroke-linejoin="round">
                                <path d="M7.10862426,17.3989632 L7.10862426,17.3989632 C6.06551092,16.1561801 4.23040411,16.4990168 3.59294596,18.0203547 L3.59294596,18.0203547 C2.87822015,19.7345383 4.17245337,21.6415675 5.85302487,21.3630126 L5.85302487,21.3630126 C7.57223019,21.0844578 8.286956,18.7917373 7.10862426,17.3989632 Z" id="Path"></path>
                                <path d="M55.2270564,54.0182095 L55.2270564,54.0182095 C54.1839431,52.7754264 52.3488363,53.1182631 51.7113781,54.639601 L51.7113781,54.639601 C50.9966523,56.3537846 52.2908855,58.2608138 53.971457,57.982259 L53.971457,57.982259 C55.6906623,57.7037042 56.4053882,55.4109836 55.2270564,54.0182095 Z" id="Path"></path>
                                <path d="M70.4681014,69.0173157 L70.4681014,69.0173157 C69.424988,67.7745326 67.5898812,68.1173693 66.9524231,69.6387072 L66.9524231,69.6387072 C66.2376973,71.3528908 67.5319305,73.25992 69.212502,72.9813652 L69.212502,72.9813652 C70.9123904,72.7242376 71.6271162,70.4315171 70.4681014,69.0173157 Z" id="Path"></path>
                                <path d="M99.6945919,153.890829 L99.6945919,153.890829 C98.6514785,152.648046 96.8163717,152.990883 96.1789136,154.512221 L96.1789136,154.512221 C95.4641878,156.226404 96.758421,158.133434 98.4389925,157.854879 L98.4389925,157.854879 C100.138881,157.576324 100.853607,155.305031 99.6945919,153.890829 Z" id="Path"></path>
                                <path d="M83.3331659,113.328961 L83.3331659,113.328961 C82.2900526,112.086178 80.4549458,112.429014 79.8174876,113.950352 L79.8174876,113.950352 C79.1027618,115.664536 80.396995,117.571565 82.0775665,117.29301 L82.0775665,117.29301 C83.7967719,117.014455 84.5114977,114.721735 83.3331659,113.328961 Z" id="Path"></path>
                                <path d="M90.1134026,84.1449856 L90.1134026,84.1449856 C88.6066834,84.3592586 87.7760561,86.2234332 88.5294157,87.6804892 L88.5294157,87.6804892 C89.3793599,89.3303909 91.5235374,89.266109 92.2962139,87.5733527 L92.2962139,87.5733527 C93.0882074,85.8591692 91.8132911,83.8878581 90.1134026,84.1449856 Z" id="Path"></path>
                                <path d="M102.456911,127.428121 L102.456911,127.428121 C100.950191,127.642393 100.119564,129.506568 100.872924,130.963624 L100.872924,130.963624 C101.722868,132.613526 103.867045,132.549244 104.639722,130.856488 L104.639722,130.856488 C105.431715,129.142304 104.176116,127.170993 102.456911,127.428121 Z" id="Path"></path>
                                <path d="M51.2670891,80.7380458 L51.2670891,80.7380458 C50.2239758,79.4952627 48.3888689,79.8380994 47.7514108,81.3594373 L47.7514108,81.3594373 C47.036685,83.0736209 48.3309182,84.9806501 50.0114897,84.7020953 L50.0114897,84.7020953 C51.7113781,84.4235404 52.4261039,82.1522472 51.2670891,80.7380458 Z" id="Path"></path>
                                <path d="M40.6234696,105.01517 L40.6234696,105.01517 C39.5803563,103.772387 37.7452495,104.115224 37.1077913,105.636562 L37.1077913,105.636562 C36.3930655,107.350746 37.6872987,109.257775 39.3678702,108.97922 L39.3678702,108.97922 C41.0870755,108.700665 41.8018014,106.407945 40.6234696,105.01517 Z" id="Path"></path>
                                <path d="M21.5769927,96.5299618 L21.5769927,96.5299618 C22.6973737,95.3728879 22.388303,93.337295 21.0168022,92.6301942 L21.0168022,92.6301942 C19.4714491,91.8373843 17.7522437,93.2730131 18.0033636,95.1371877 L18.0033636,95.1371877 C18.2544835,97.0227896 20.3020764,97.8155995 21.5769927,96.5299618 Z" id="Path"></path>
                                <path d="M38.4792922,138.313186 L38.4792922,138.313186 C39.5996732,137.156112 39.2906026,135.120519 37.9191017,134.413419 L37.9191017,134.413419 C36.3737486,133.620609 34.6545433,135.056237 34.9056631,136.920412 L34.9056631,136.920412 C35.156783,138.827441 37.2236928,139.620251 38.4792922,138.313186 Z" id="Path"></path>
                                <path d="M66.9331061,102.465322 L66.9331061,102.465322 C68.0534871,101.308249 67.7444165,99.2726555 66.3729156,98.5655548 L66.3729156,98.5655548 C64.8275625,97.7727449 63.1083572,99.2083737 63.3594771,101.072548 L63.3594771,101.072548 C63.610597,102.95815 65.6775068,103.772387 66.9331061,102.465322 Z" id="Path"></path>
                                <path d="M76.6495138,147.334077 L76.6495138,147.334077 C77.7698948,146.177003 77.4608241,144.14141 76.0893233,143.43431 L76.0893233,143.43431 C74.5439702,142.6415 72.8247648,144.077128 73.0758847,145.941303 L73.0758847,145.941303 C73.3076877,147.848332 75.3745975,148.641142 76.6495138,147.334077 Z" id="Path"></path>
                                <path d="M18.3897019,56.4609211 L18.3897019,56.4609211 C17.3465885,55.218138 15.5114817,55.5609747 14.8740236,57.0823126 L14.8740236,57.0823126 C14.1592978,58.7964962 15.453531,60.7035254 17.1341025,60.4249706 L17.1341025,60.4249706 C18.8533078,60.1464157 19.5680336,57.8536952 18.3897019,56.4609211 Z" id="Path"></path>
                                <path d="M21.8474295,0.878519076 L21.8474295,0.878519076 C20.8043161,-0.364264007 18.9692093,-0.0214272945 18.3317511,1.49991062 L18.3317511,1.49991062 C17.6170253,3.21409418 18.9112586,5.12112339 20.5918301,4.84256856 L20.5918301,4.84256856 C22.3110354,4.56401373 23.0257612,2.27129322 21.8474295,0.878519076 Z" id="Path"></path>
                                <path d="M55.2270564,0.878519076 L55.2270564,0.878519076 C54.1839431,-0.364264007 52.3488363,-0.0214272945 51.7113781,1.49991062 L51.7113781,1.49991062 C50.9966523,3.21409418 52.2908855,5.12112339 53.971457,4.84256856 L53.971457,4.84256856 C55.6906623,4.56401373 56.4053882,2.27129322 55.2270564,0.878519076 Z" id="Path"></path>
                                <path d="M55.2850072,24.8770889 L55.2850072,24.8770889 C53.8748725,25.4984805 53.4692173,27.5126462 54.5316475,28.734002 L54.5316475,28.734002 C55.7099793,30.0839215 57.776889,29.46253 58.1632273,27.6197826 L58.1632273,27.6197826 C58.5495656,25.755608 56.888311,24.1699882 55.2850072,24.8770889 Z" id="Path"></path>
                                <path d="M36.3157979,11.206475 L36.3157979,11.206475 C34.8477124,11.6778755 34.2875219,13.6277593 35.2147338,14.9562516 L35.2147338,14.9562516 C36.277164,16.4347349 38.3827076,16.0276163 38.9235812,14.2491509 L38.9235812,14.2491509 C39.4837717,12.4278308 37.9577355,10.6707927 36.3157979,11.206475 Z" id="Path"></path>
                                <path d="M33.5148454,70.5600809 L33.5148454,70.5600809 C32.0081261,70.7529265 31.1581819,72.5956739 31.8922246,74.0741572 L31.8922246,74.0741572 C32.7228519,75.7240589 34.8670293,75.7026316 35.6590228,74.0313026 L35.6590228,74.0313026 C36.4703332,72.3385463 35.2340507,70.3458079 33.5148454,70.5600809 Z" id="Path"></path>
                                <path d="M16.9602503,115.193135 L16.9602503,115.193135 C15.453531,115.385981 14.6035868,117.228728 15.3376295,118.707212 L15.3376295,118.707212 C16.1682568,120.357113 18.3124342,120.335686 19.1044277,118.664357 L19.1044277,118.664357 C19.9157381,116.971601 18.6794556,114.978862 16.9602503,115.193135 Z" id="Path"></path>
                                <path d="M22.5235214,28.9054203 L22.5235214,28.9054203 C21.055436,29.3768208 20.4952455,31.3267046 21.4224573,32.6551969 L21.4224573,32.6551969 C22.4848876,34.1336802 24.5904312,33.7265616 25.1313048,31.9480961 L25.1313048,31.9480961 C25.6914953,30.1482034 24.184776,28.3911652 22.5235214,28.9054203 Z" id="Path"></path>
                                <path d="M38.517926,40.9047053 L38.517926,40.9047053 C37.0498406,41.3761057 36.4896501,43.3259895 37.4168619,44.6544818 L37.4168619,44.6544818 C38.4792922,46.1329651 40.5848358,45.7258465 41.1257094,43.9473811 L41.1257094,43.9473811 C41.6858999,42.126061 40.1791806,40.3690229 38.517926,40.9047053 Z" id="Path"></path>
                                <path d="M3.88269966,40.3904502 L3.88269966,40.3904502 C4.84854535,39.0833852 4.32698868,37.1120741 2.85890324,36.6192463 L2.85890324,36.6192463 C1.23628248,36.0621367 -0.30907062,37.7334657 0.173852224,39.5333584 L0.173852224,39.5333584 C0.656775068,41.3761057 2.78163558,41.8689335 3.88269966,40.3904502 Z" id="Path"></path>
                                <path d="M77.1131197,40.4547321 L77.1131197,40.4547321 C78.0789654,39.1476671 77.5574087,37.176356 76.0893233,36.6835282 L76.0893233,36.6835282 C74.4667025,36.1264186 72.9213494,37.7977475 73.4042723,39.5976403 L73.4042723,39.5976403 C73.8678782,41.4403876 76.0120556,41.9332154 77.1131197,40.4547321 Z" id="Path"></path>
                                <path d="M58.5302487,127.320984 L58.5302487,127.320984 C59.4960944,126.013919 58.9745377,124.042608 57.5064522,123.54978 L57.5064522,123.54978 C55.8838315,122.992671 54.3384784,124.664 54.8214012,126.463892 L54.8214012,126.463892 C55.2850072,128.285212 57.4291846,128.77804 58.5302487,127.320984 Z" id="Path"></path>
                            </g>
                        </g>
                        <g id="HEAD_2_" transform="translate(145.456361, 0.000000)">
                            <g id="NECK_1_" transform="translate(17.385222, 41.997497)" fill-rule="nonzero">
                                <path d="M39.638307,34.776499 C39.2133349,34.7979263 38.7883628,34.8193536 38.3440738,34.8407809 L19.490766,36.1264186 C14.6808545,36.447828 10.083429,37.8834567 5.91097561,40.2618864 L0.115901483,21.0201759 L25.9426152,0.0214272945 L39.638307,34.776499 Z" id="Path" fill="#E57281"></path>
                                <path d="M5.83370795,39.9619043 L5.83370795,39.9619043 C11.20381,37.2620652 15.4921648,32.4623512 17.926096,26.5055633 L27.314116,3.47122171 L25.9426152,0 L0.115901483,20.9987486 L5.83370795,39.9619043 Z" id="Path" fill="#9A3B82"></path>
                            </g>
                            <g id="HEAD_3_" transform="translate(0.965846, 17.784654)">
                                <path d="M44.0232464,26.1627266 C44.0232464,28.155465 43.2892037,29.9553577 42.110872,31.2624227 C40.9325402,32.5694877 39.3099195,33.3837249 37.5134465,33.3837249 L31.8342739,33.3837249 C29.5935119,43.0474347 20.9202176,49.6684687 11.5901483,47.8471487 L7.32111031,47.0114842 C2.64641718,46.0901105 -0.540873585,41.247542 0.115901483,36.0407094 L5.11898214,8.24950839 C5.98824326,2.31414781 11.4935637,-1.30706497 16.6125458,0.728528014 L24.8995018,4.41402267 C29.3810258,6.12820623 32.3944644,10.7993564 32.3944644,16.0490436 L32.3944644,18.7274554 L37.5134465,18.9417284 C41.1063925,18.9417284 44.0232464,22.1772498 44.0232464,26.1627266 Z" id="Path" fill="#E57281" fill-rule="nonzero"></path>
                                <g id="Group" transform="translate(7.726766, 13.927741)">
                                    <path d="M26.6766579,13.6277593 C26.6766579,10.8636383 28.6856169,8.63519969 31.1774988,8.63519969" id="Path" stroke="#9A3B82" stroke-width="5" stroke-linecap="round"></path>
                                    <path d="M0.173852224,0.171418356 C0.173852224,0.171418356 4.23040411,0.171418356 7.12794117,4.47830456" id="Path" stroke="#9A3B82" stroke-width="5" stroke-linecap="round"></path>
                                    <ellipse id="Oval" fill="#9A3B82" fill-rule="nonzero" transform="translate(1.919553, 7.999499) rotate(-79.700278) translate(-1.919553, -7.999499) " cx="1.91955263" cy="7.99949901" rx="2.2856114" ry="1"></ellipse>
                                </g>
                            </g>
                            <g id="HAIR_1_" fill-rule="nonzero">
                                <path d="M38.4792922,36.7263828 C42.0722381,36.7263828 44.9890921,39.9619043 44.9890921,43.9473811 C44.9890921,43.9688084 44.9890921,44.011663 44.9890921,44.0545175 C47.8866292,39.1048125 54.9952534,26.5055633 54.9952534,22.2415317 C54.9952534,16.5204441 48.5627212,10.7993564 41.8983859,13.4134864 C42.3426749,13.0492224 42.8062809,12.6635311 43.2892037,12.2564125 C45.8583532,10.0279738 47.2105372,8.35664487 47.4230233,7.15671637 C47.5002909,6.72817048 47.4423402,6.34247918 47.249171,6.04249706 C46.4764945,4.82114127 45.6265503,4.28545891 44.7186553,4.45687726 C43.3857883,4.6925775 42.0142874,6.51389754 40.6427865,9.85655548 C40.0246453,11.3778934 39.5417224,12.877804 39.2712857,13.7991777 C38.7304121,10.2208195 36.1226287,-1.62847438 24.9188187,0.192845651 C21.055436,0.814237192 19.2396461,2.59270264 18.7374063,4.54258644 C15.5307987,1.75703815 11.2424438,-0.428545891 7.68813167,1.64990168 C1.5453531,5.22825986 2.29871274,11.0993386 5.85302487,15.2562337 C2.49188187,15.1919518 0.135218396,16.2847438 0.135218396,19.4345561 C0.135218396,22.3272409 2.82026941,23.720015 6.50979993,24.2771247 C10.1993305,24.8342344 14.9319743,24.5342522 19.02716,24.0199972 C21.944014,23.6557332 24.5711143,23.20576 26.2516858,22.8843506 C25.1313048,25.4341986 24.6870158,27.6197826 24.7836003,29.46253 C24.9574526,33.2765884 27.4493344,35.5264543 30.9650127,36.3192642 C31.7183724,36.4906826 32.5296828,36.5978191 33.36031,36.6406736 L38.4792922,36.7263828 Z M44.8345568,5.31396904 C44.8925076,5.29254175 44.9504583,5.29254175 45.027726,5.29254175 C45.5685995,5.29254175 46.0901562,5.72108764 46.6117129,6.53532483 C46.6503467,6.62103401 46.7082974,6.74959778 46.6696636,6.98529802 C46.360593,8.72090887 42.4006257,12.0207122 40.1019129,13.7563231 C41.0098079,10.7993564 42.9221824,5.67823305 44.8345568,5.31396904 Z" id="Shape" fill="#FFCF2D"></path>
                                <path d="M23.064395,11.6564482 C21.731528,11.6564482 20.379344,10.8636383 19.3941814,9.47086418 C18.2931173,7.92809897 17.926096,6.02106976 18.3897019,4.37116808 C18.4476526,4.15689514 18.6408218,4.02833137 18.8339909,4.07118596 C18.9112586,4.07118596 18.9885262,4.09261325 19.046477,4.15689514 C21.9633309,6.47104295 24.3006775,9.7708463 23.9529731,11.0779113 C23.8757054,11.420748 23.6245855,11.6350209 23.296198,11.6564482 C23.2189303,11.6564482 23.1416627,11.6564482 23.064395,11.6564482 Z M19.0078431,5.18540528 C18.8339909,6.42818836 19.1816954,7.79953521 19.9930057,8.93518182 C20.8622669,10.1565376 22.0599155,10.8636383 23.2189303,10.7779291 C23.2575642,10.2208195 21.9633309,7.67097144 19.0078431,5.18540528 Z" id="Shape" fill="#FFFFFF"></path>
                            </g>
                        </g>
                        <g id="HANDS" transform="translate(0.000000, 39.854768)">
                            <g id="LEFT_1_" transform="translate(0.000000, 100.065465)">
                                <path d="M130.389168,60.9392256 L6.76091981,60.9392256 C3.70884744,60.9392256 1.87374063,57.2108764 3.49636139,54.3610462 L19.9543719,25.6913261 C22.0985493,21.9629769 25.7880799,19.713111 29.7673641,19.713111 L113.448234,19.713111 L130.389168,60.9392256 Z" id="Path" fill="#E57281" fill-rule="nonzero"></path>
                                <path d="M32.4910489,19.7345383 L42.3426749,1.73561086 C42.9221824,0.66424613 43.9846126,0 45.1049936,0 L45.1049936,0 C47.6355093,0 49.1808624,3.06410312 47.8673123,5.4639601 L40.0439622,19.7345383 L32.4910489,19.7345383 Z" id="Path" fill="#E88939" fill-rule="nonzero"></path>
                                <path d="M130.389168,60.9392256 L102.592129,60.9392256 C102.534178,60.8749437 102.456911,60.7892346 102.39896,60.7249527 C95.63804,53.0111267 92.7598198,41.3118238 96.5652518,30.0410669 L100.525219,19.713111 L113.448234,19.713111 L130.389168,60.9392256 Z" id="Path" fill="#9A3B82" fill-rule="nonzero"></path>
                                <path d="M24.2234098,41.6975151 L8.73124502,41.6975151 C7.68813167,41.6975151 6.72228599,42.3189067 6.20072931,43.3259895 L4.55879165,46.4972291 C3.45772756,48.6399586 4.84854535,51.3183704 7.08930735,51.3183704 L19.5487167,51.3183704 C21.7122111,51.3183704 23.7211701,50.0755873 24.860868,48.018567 L26.193735,45.5972828 C27.1209469,43.8830992 26.0198828,41.6975151 24.2234098,41.6975151 Z" id="Path" fill="#E57281" fill-rule="nonzero"></path>
                                <path d="M20.2248087,51.3183704 L4.73264387,51.3183704 C3.68953053,51.3183704 2.72368484,51.9397619 2.20212817,52.9468448 L0.560190499,56.1180844 C-0.540873585,58.2608138 0.849944205,60.9392256 3.0907062,60.9392256 L15.5501156,60.9392256 C17.7136099,60.9392256 19.7225689,59.6964426 20.8622669,57.6394223 L22.1951339,55.218138 C23.1416627,53.5039544 22.0212817,51.3183704 20.2248087,51.3183704 Z" id="Path" fill="#E57281" fill-rule="nonzero"></path>
                                <path d="M28.6469831,31.9480961 L13.1548183,31.9480961 C12.1117049,31.9480961 11.1458592,32.5694877 10.6243026,33.5765705 L8.98236489,36.7478101 C7.88130081,38.8905396 9.2721186,41.5689514 11.5128806,41.5689514 L23.97229,41.5689514 C26.1357843,41.5689514 28.1447433,40.3261683 29.2844412,38.269148 L30.6173083,35.8478637 C31.5638371,34.1336802 30.4434561,31.9480961 28.6469831,31.9480961 Z" id="Path" fill="#E57281" fill-rule="nonzero"></path>
                                <path d="M24.2234098,41.6975151 L8.73124502,41.6975151 C7.68813167,41.6975151 6.72228599,42.3189067 6.20072931,43.3259895 L4.55879165,46.4972291 C3.45772756,48.6399586 4.84854535,51.3183704 7.08930735,51.3183704 L19.5487167,51.3183704 C21.7122111,51.3183704 23.7211701,50.0755873 24.860868,48.018567 L26.193735,45.5972828 C27.1209469,43.8830992 26.0198828,41.6975151 24.2234098,41.6975151 Z" id="Path" stroke="#9A3B82" stroke-width="5" stroke-linecap="round"></path>
                                <path d="M20.2248087,51.3183704 L4.73264387,51.3183704 C3.68953053,51.3183704 2.72368484,51.9397619 2.20212817,52.9468448 L0.560190499,56.1180844 C-0.540873585,58.2608138 0.849944205,60.9392256 3.0907062,60.9392256 L15.5501156,60.9392256 C17.7136099,60.9392256 19.7225689,59.6964426 20.8622669,57.6394223 L22.1951339,55.218138 C23.1416627,53.5039544 22.0212817,51.3183704 20.2248087,51.3183704 Z" id="Path" stroke="#9A3B82" stroke-width="5" stroke-linecap="round"></path>
                                <path d="M28.6469831,31.9480961 L13.1548183,31.9480961 C12.1117049,31.9480961 11.1458592,32.5694877 10.6243026,33.5765705 L8.98236489,36.7478101 C7.88130081,38.8905396 9.2721186,41.5689514 11.5128806,41.5689514 L23.97229,41.5689514 C26.1357843,41.5689514 28.1447433,40.3261683 29.2844412,38.269148 L30.6173083,35.8478637 C31.5638371,34.1336802 30.4434561,31.9480961 28.6469831,31.9480961 Z" id="Path" stroke="#9A3B82" stroke-width="5" stroke-linecap="round"></path>
                                <path d="M51.07392,46.2829562 C46.4185437,46.2829562 41.9370198,44.4187816 38.4213415,41.0118417 L32.5489997,35.3121814 L27.1402638,35.3121814 L25.749446,36.9620831 C23.2575642,39.9190497 20.1861749,41.611806 16.5352782,41.611806 L13.9468117,41.611806 C12.5946278,41.611806 11.7640005,39.940477 12.4980432,38.6762666 L19.0078431,27.3626551 L51.0932369,27.3626551 L51.0932369,46.2829562 L51.07392,46.2829562 Z" id="Path" fill="#E57281" fill-rule="nonzero"></path>
                                <path d="M19.0078431,27.3626551 L12.4980432,38.6762666 C11.7640005,39.940477 12.5946278,41.611806 13.9468117,41.611806 L16.5352782,41.611806 C20.1861749,41.611806 23.2575642,39.940477 25.749446,36.9620831 L27.1402638,35.3121814 L32.5489997,35.3121814 L38.4213415,41.0118417 C41.9177028,44.3973543 46.4185437,46.2829562 51.07392,46.2829562" id="Path" stroke="#9A3B82" stroke-width="5" stroke-linecap="round"></path>
                            </g>
                            <g id="RIGHT_1_" transform="translate(101.220628, 0.000000)">
                                <path d="M80.2810935,120.93565 L50.7841663,157.490615 C44.5834369,165.183014 35.7169735,169.575609 26.4062211,169.575609 L26.4062211,169.575609 C8.01651921,169.575609 -4.71332696,149.219679 1.73852224,130.106532 L36.7794038,38.7834031 L24.9381357,31.4338411 C23.2575642,29.976785 22.4462538,27.5983554 22.8132751,25.2842075 L24.8222342,10.2636741 C25.4403754,6.92101613 28.5117647,4.3068862 31.5058863,3.5355036 L45.3754304,0.0642818836 C46.5537621,-0.23570024 47.6355093,0.878519076 47.4423402,2.18558404 L45.4333811,13.7777504 C44.6413877,19.4345561 48.0797983,24.3199793 53.1794636,25.2842075 L53.1794636,25.2842075 C57.3519169,26.0770174 60.2880878,30.7267404 59.9017495,35.3978906 L50.4557787,100.751139 C50.4364618,100.793993 60.1142356,117.52871 80.2810935,120.93565 Z" id="Path" fill="#E57281" fill-rule="nonzero"></path>
                                <path d="M57.6609875,50.9326791 L46.2640084,133.020644" id="Path" stroke="#9A3B82" stroke-width="5" stroke-linecap="round"></path>
                                <path d="M34.036402,11.3564661 L33.8818667,16.6704351 C33.823916,18.8560192 35.0022477,20.7844757 36.7021361,21.3201581 L54.4543799,25.3056348" id="Path" stroke="#9A3B82" stroke-width="5" stroke-linecap="round"></path>
                                <path d="M66.527451,27.0198184 L52.3295194,24.9199435 C47.6548262,23.9985699 44.4675355,19.1560013 45.1243105,13.9491687 L46.9594173,2.31414781 C47.1332696,1.22135579 46.2446915,0.299982123 45.2788458,0.557109658 L30.7911605,4.3068862" id="Path" stroke="#9A3B82" stroke-width="5" stroke-linecap="round"></path>
                                <path d="M58.684784,147.634059 L97.0868085,100.236884" id="Path" stroke="#3FB1B5" stroke-width="6"></path>
                                <path d="M37.185059,38.8048304 L43.9652957,38.8048304" id="Path" stroke="#9A3B82" stroke-width="5" stroke-linecap="round"></path>
                                <path d="M34.0557189,12.7706675 L34.0557189,14.4848511 C34.0557189,16.5204441 35.388586,18.1917731 37.0305237,18.1917731 L39.1553842,18.1917731 C40.082596,18.1917731 40.8166388,17.2703994 40.8166388,16.1133255 L40.9518572,4.92827774 C40.9711741,3.19266688 39.3099195,2.12130216 37.9577355,2.48556617" id="Path" stroke="#9A3B82" stroke-width="5" stroke-linecap="round"></path>
                                <path d="M40.9518572,12.7706675 L40.9518572,14.4848511 C40.9518572,16.5204441 42.2847242,18.1917731 43.9266619,18.1917731 L45.2788458,18.1917731" id="Path" stroke="#9A3B82" stroke-width="5" stroke-linecap="round"></path>
                            </g>
                        </g>
                    </g>
                    <g id="CHAIR_1_" transform="translate(162.648414, 312.409954)" stroke-width="6">
                        <path d="M119.946487,12.2587575 L142.484731,252.721948" id="Path" stroke="#66B0F0"></path>
                        <path d="M22.8586684,12.2587575 L0.320424744,252.721948" id="Path" stroke="#66B0F0"></path>
                        <path d="M8.12212446,170.252622 L134.683031,170.252622" id="Path" stroke="#66B0F0"></path>
                        <path d="M10.183757,13.1268556 L131.754543,13.1268556 C133.372918,13.1268556 134.683031,11.3906593 134.683031,9.2459462 L134.683031,3.98629265 C134.683031,1.84157955 133.372918,0.105383228 131.754543,0.105383228 L10.183757,0.105383228 C8.565382,0.105383228 7.25526894,1.84157955 7.25526894,3.98629265 L7.25526894,9.2459462 C7.25526894,11.3906593 8.565382,13.1268556 10.183757,13.1268556 Z" id="Path" stroke="#FFCF2D" fill="#FFFFFF" fill-rule="nonzero"></path>
                    </g>
                </g>
                <g id="GIRL" transform="translate(86.000000, 0.000000)">
                    <g id="PAPER" transform="translate(116.299565, 170.703810)" stroke="#3FB1B5" stroke-width="5">
                        <polygon id="Path" fill="#FFFFFF" fill-rule="nonzero" points="75.1503836 0.128509769 56.4883604 42.7080799 0.0965943235 42.7080799 22.7576226 0.128509769"></polygon>
                        <path d="M62.7863102,10.5163828 C62.7863102,10.5163828 60.3328144,5.86861278 54.4405607,7.06803729 C50.0358596,7.94618738 44.8197661,11.9728268 41.6128345,9.80957903 C38.405903,7.64633125 35.5660299,4.9476261 31.412474,6.23272379 C27.2589181,7.51782148 24.1872186,9.98092539 24.1872186,9.98092539" id="Path"></path>
                        <path d="M60.8544238,17.1560542 C60.8544238,17.1560542 58.400928,12.5082842 52.5086742,13.7077087 C48.1039731,14.5858588 42.8878796,18.6124982 39.6809481,16.4492504 C36.4740165,14.2860026 33.6341434,11.5872975 29.4805875,12.8723952 C25.3270316,14.1574929 22.2553321,16.6205968 22.2553321,16.6205968" id="Path"></path>
                    </g>
                    <g id="GIRL_1_">
                        <g id="LEGS" transform="translate(68.581970, 315.705666)" fill-rule="nonzero">
                            <g id="LEFT" transform="translate(79.980100, 35.768552)">
                                <path d="M64.099993,10.4521279 C64.099993,16.1708126 49.7847143,20.7971643 31.8568079,20.7971643 C13.9289014,20.7971643 0.0386377294,16.1708126 0.0386377294,10.4521279 C0.0386377294,4.73344316 13.9289014,0.107091474 31.8568079,0.107091474 C49.7847143,0.107091474 64.099993,4.75486145 64.099993,10.4521279 Z" id="Path" fill="#E88939"></path>
                                <g id="Group" transform="translate(10.818564, 0.000000)">
                                    <path d="M45.0322736,3.49118206 L45.0322736,77.3842992 L43.0037928,66.7179884 C40.8207611,55.2377824 31.6829381,47.0345754 21.0962002,47.0345754 C17.9085876,47.0345754 14.7789315,47.7842158 11.9390584,49.1978232 C11.8424641,49.2406598 11.7458697,49.3049147 11.6299565,49.3477513 L4.19219364,19.2764653 L0.0579565941,2.54877708 C5.71838395,1.02807815 13.0402337,0.107091474 21.0382436,0.107091474 C30.5431251,0.107091474 39.1013821,1.41360746 45.0322736,3.49118206 Z" id="Path" fill="#A0505A"></path>
                                    <path d="M45.0322736,3.49118206 L45.0322736,17.4130737 C39.1013821,19.4906483 30.5431251,20.7971643 21.0382436,20.7971643 C14.8755258,20.7971643 9.11850413,20.2402886 4.19219364,19.2978836 L0.0579565941,2.57019538 C5.71838395,1.04949645 13.0402337,0.128509769 21.0382436,0.128509769 C30.5431251,0.107091474 39.1013821,1.41360746 45.0322736,3.49118206 Z" id="Path" fill="#73325A"></path>
                                </g>
                                <g id="Group" transform="translate(6.182037, 46.906066)">
                                    <path d="M48.2392051,28.3149858 C48.7608145,28.4863321 53.6678061,30.007031 58.0145507,30.007031 C60.3714522,30.007031 62.5544839,29.5572469 63.7908912,28.186476 C64.8534288,27.0084698 65.104574,25.2950062 64.5443269,23.1317584 C64.0420365,21.2041119 63.0760932,20.0046874 61.6658161,19.5763215 C59.0770882,18.8052629 55.4837794,20.9470923 52.6439063,23.1960133 C57.0679263,17.2417273 61.4339897,9.68106926 59.8112051,4.73344316 C59.2316391,2.97714298 57.9179563,1.79913677 56.2758528,1.58495382 C54.9042135,1.41360746 53.6291684,1.94906483 53.0302836,2.95572469 C50.2483671,7.64633125 47.968741,26.9013783 47.8721467,27.7152735 L48.2392051,28.3149858 Z M53.8416759,3.55543694 C54.1894155,2.97714298 54.9235323,2.63445026 55.7735624,2.63445026 C55.9087944,2.63445026 56.0440265,2.63445026 56.1792585,2.65586856 C56.7974622,2.74154174 58.2850148,3.12707104 58.9225373,5.09755417 C59.3475523,6.40407015 59.5021032,8.80291917 57.7827243,12.8295586 C56.1599397,16.6420151 53.2234722,21.1184387 49.0505975,26.1945746 C49.6688011,21.3112034 51.6393253,7.26080195 53.8416759,3.55543694 Z M63.1147309,27.4368357 C61.8396859,28.8504431 58.9418562,29.278809 54.7110248,28.6790968 C52.4893554,28.3578223 50.4222368,27.8437833 49.3210616,27.5225089 C50.1517727,26.7086136 51.6972819,25.2307513 53.4939363,23.8599804 C56.9326942,21.2255302 59.675973,20.0903605 61.4339897,20.6258179 C62.4965273,20.9470923 63.2113253,21.868079 63.6363403,23.4316145 C64.099993,25.2307513 63.9261233,26.5372673 63.1147309,27.4368357 Z" id="Shape" fill="#FFCF2D"></path>
                                    <path d="M9.02190981,8.43880816 L4.55925207,13.9861465 C-0.502290482,20.2831252 -1.33300166,29.4501554 2.51145241,36.7323756 L22.1587378,74.0858818 C26.0031919,81.3895203 33.0545775,85.865944 40.6662102,85.865944 L48.7994522,85.865944 C54.6917059,85.865944 59.0770882,79.8688214 57.8599998,73.4861695 L47.6210015,19.833341 C45.4379698,8.35313498 36.3001468,0.149814905 25.7134089,0.149814905 L25.7134089,0.149814905 C19.3575024,0.128509769 13.27206,3.14848934 9.02190981,8.43880816 Z" id="Path" stroke="#3FB1B5" stroke-width="5" fill="#FFFFFF"></path>
                                    <path d="M24.2258563,24.5882025 L49.5915257,79.0763445 C50.7892953,81.5394484 52.2768479,83.1244022 53.9769079,84.1310621 C52.5086742,85.2233951 50.7313387,85.8873622 48.7994522,85.8873622 L40.6662102,85.8873622 C33.0352586,85.8873622 25.983873,81.3895203 22.1587378,74.1073001 L2.51145241,36.7323756 C1.71937896,35.2116767 1.12049415,33.6267229 0.714797994,31.9775142 C-2.06711852,20.5187264 9.69807008,11.5230426 18.5267912,18.2483872 C20.5359532,19.7690861 22.5064774,21.8252424 24.2258563,24.5882025 Z" id="Path" fill="#3FB1B5"></path>
                                    <g transform="translate(0.386377, 23.560124)" fill="#FFFFFF" id="Path">
                                        <path d="M23.8974356,1.15658792 L0.482971617,1.15658792 C0.598884805,0.749640319 0.734116858,0.364111012 0.888667776,0 L23.1439999,0 C23.3758263,0.342692717 23.6076527,0.685385434 23.839479,1.04949645 L23.8974356,1.15658792 Z"></path>
                                        <path d="M27.3361935,8.52448134 L0.367058429,8.52448134 C0.367058429,8.48164475 0.347739564,8.43880816 0.347739564,8.41738987 C0.270464106,8.07469715 0.193188647,7.71058614 0.135232053,7.36789342 L26.8145842,7.36789342 L27.3361935,8.52448134 Z"></path>
                                        <polygon points="30.7749515 15.9137931 3.57398997 15.9137931 2.9557863 14.7357868 30.2340232 14.7357868"></polygon>
                                        <polygon points="34.2137094 23.3031048 7.45708177 23.3031048 6.8388781 22.1250986 33.6727812 22.1250986"></polygon>
                                        <polygon points="37.6524673 30.6709982 11.3401736 30.6709982 10.7219699 29.5144103 37.1115391 29.5144103"></polygon>
                                        <polygon points="41.0912252 38.0603099 15.2232654 38.0603099 14.6050617 36.8823037 40.5309781 36.8823037"></polygon>
                                        <polygon points="44.5299831 45.4496216 19.1063572 45.4496216 18.4881535 44.2716154 43.969736 44.2716154"></polygon>
                                        <path d="M47.9494222,52.817515 L23.1439999,52.817515 C22.8928547,52.4319857 22.6417094,52.0464564 22.409883,51.6609271 L47.408494,51.6609271 L47.9494222,52.817515 Z"></path>
                                        <path d="M53.0302836,60.2068268 L31.4704306,60.2068268 C30.7749515,59.864134 30.0987912,59.4786047 29.4419498,59.0502388 L51.6393253,59.0502388 C52.0836592,59.4786047 52.547312,59.864134 53.0302836,60.2068268 Z"></path>
                                    </g>
                                </g>
                            </g>
                            <g id="RIGHT">
                                <path d="M64.9500231,44.6999813 C64.7761533,50.3544111 50.3063237,54.9379262 32.4943304,54.9379262 C14.6823372,54.9379262 0.212507512,50.3758294 0.0386377294,44.6999813 L0.0386377294,0.171346359 L64.9500231,0.171346359 L64.9500231,44.6999813 Z" id="Path" fill="#E88939"></path>
                                <g id="Group" transform="translate(16.227846, 52.046456)">
                                    <path d="M44.4140699,0.0428365897 L44.3174756,5.33315541 L43.3901701,56.9726642 L43.3901701,55.4733836 C43.3901701,42.2154591 33.6921,31.4634751 21.7337228,31.4634751 L20.42004,31.4634751 C14.3152787,31.4634751 8.8094023,34.0979254 4.73312185,38.3387477 L1.89324874,17.0489627 L0.135232053,3.87671136 C4.88767277,4.75486145 10.3935492,5.24748223 16.2471652,5.24748223 C28.3021368,5.22606394 38.7922803,3.12707104 44.4140699,0.0428365897 Z" id="Path" fill="#A0505A"></path>
                                    <path d="M44.4140699,0.0428365897 L44.3174756,5.33315541 C37.1308579,10.9875852 14.9334824,17.9485311 1.9125676,17.0275444 L0.154550918,3.85529307 C4.90699163,4.71202486 10.4128681,5.22606394 16.2664841,5.22606394 C28.3021368,5.22606394 38.7922803,3.12707104 44.4140699,0.0428365897 Z" id="Path" fill="#73325A"></path>
                                </g>
                                <g id="Group" transform="translate(13.523205, 83.317167)">
                                    <path d="M25.4236259,85.9301988 L29.0169348,85.9301988 C38.4445407,85.9301988 46.0948112,77.4485541 46.0948112,66.9964262 L46.0948112,24.2026732 C46.0948112,10.9447487 36.3967411,0.192764653 24.4383638,0.192764653 L23.124681,0.192764653 C9.21509846,0.192764653 -1.50687145,13.7933819 0.367058429,29.0860444 L4.90699163,66.0968578 C6.31726875,77.4485541 15.0687145,85.9301988 25.4236259,85.9301988 Z" id="Path" stroke="#3FB1B5" stroke-width="5" fill="#FFFFFF"></path>
                                    <path d="M40.7241668,80.7683898 C37.6717861,83.9597157 33.5375491,85.9301988 29.0169348,85.9301988 L25.4236259,85.9301988 C15.0687145,85.9301988 6.31726875,77.4485541 4.9263105,66.0968578 L0.386377294,29.0860444 C0.309101835,28.3792406 0.231826376,27.6724369 0.212507512,26.9870515 C1.37163939,18.7838446 7.76618361,12.5082842 15.4937295,12.5082842 C19.2995458,12.5082842 22.8155792,14.0504014 25.5395391,16.6205968 C28.263499,19.1907922 30.1760666,22.810484 30.7749515,26.9870515 L36.7444806,72.1582353 C37.1888145,75.5209076 38.6184105,78.5194688 40.7241668,80.7683898 Z" id="Path" fill="#3FB1B5"></path>
                                    <g transform="translate(0.193189, 19.919014)" fill="#FFFFFF" id="Path">
                                        <path d="M28.7851084,1.34935257 L1.79665442,1.34935257 C1.98984306,0.942404972 2.22166944,0.556875665 2.45349582,0.192764653 L28.1475859,0.192764653 C28.3794122,0.556875665 28.5919197,0.942404972 28.7851084,1.34935257 Z"></path>
                                        <path d="M30.7942703,8.71724599 L0.135232053,8.71724599 C0.0965943235,8.33171669 0.0579565941,7.94618738 0.0386377294,7.56065807 L30.6397194,7.56065807 L30.7942703,8.71724599 Z"></path>
                                        <polygon points="31.7795324 16.1065577 1.04321869 16.1065577 0.888667776 14.9499698 31.6249815 14.9499698"></polygon>
                                        <polygon points="32.7454757 23.4958694 1.95120533 23.4958694 1.79665442 22.3178632 32.5909247 22.3178632"></polygon>
                                        <polygon points="33.7307378 30.8637628 2.85919197 30.8637628 2.70464106 29.7071749 33.5761868 29.7071749"></polygon>
                                        <polygon points="34.696681 38.2530746 3.74785975 38.2530746 3.6126277 37.0964866 34.5421301 37.0964866"></polygon>
                                        <polygon points="35.6819431 45.6423863 4.65584639 45.6423863 4.52061434 44.4643801 35.5273922 44.4643801"></polygon>
                                        <path d="M36.6672052,53.0102797 L6.568414,53.0102797 C6.39454421,52.6247504 6.2399933,52.2392211 6.10476124,51.8536918 L36.4933354,51.8536918 L36.551292,52.2392211 C36.5899297,52.4962406 36.6285675,52.7532602 36.6672052,53.0102797 Z"></path>
                                        <path d="M40.125282,60.3995914 L11.6685943,60.3995914 C11.282217,60.0354804 10.8958397,59.6285328 10.5481001,59.2430035 L39.2366142,59.2430035 C39.5070783,59.6499511 39.8161801,60.0354804 40.125282,60.3995914 Z"></path>
                                    </g>
                                </g>
                            </g>
                        </g>
                        <g id="CLOTHES" transform="translate(0.000000, 94.026314)">
                            <g id="Group" transform="translate(30.910184, 0.642549)" fill="#FFCF2D" fill-rule="nonzero">
                                <path d="M116.666624,34.29069 L116.666624,70.3590985 C115.256347,66.2682042 104.090043,66.8464981 91.803245,72.0083072 C81.2744638,76.4418942 73.3730481,82.52469 72.2139162,86.744094 L72.2139162,35.9827353 C72.2139162,20.8828375 79.4971282,7.38931171 90.6827509,0.0214182948 C105.210537,2.82721492 116.666624,16.856198 116.666624,34.29069 Z" id="Path"></path>
                                <path d="M71.3638862,1.6492087 C61.4726274,9.27412166 55.1746776,21.9323339 55.1746776,35.9827353 L55.1746776,77.8555017 L0.173869782,77.8555017 L7.76618361,41.6157468 C10.992434,26.1731563 21.0768814,13.8576368 34.2137094,8.61015452 L71.3638862,1.6492087 Z" id="Path"></path>
                            </g>
                            <g id="Group">
                                <path d="M213.512093,181.520049 L213.512093,265.586856 C213.512093,259.868171 198.346784,255.241819 180.418877,255.241819 C162.490971,255.241819 147.963185,259.868171 147.963185,265.586856 L147.963185,225.299043 C147.963185,223.414233 146.572226,221.872116 144.872166,221.872116 L46.2686809,221.872116 C16.6142236,221.872116 -5.31268779,191.265373 1.39095826,159.245022 L25.1917996,45.5567131 C28.978297,27.4154174 42.2310382,13.6006172 58.7873053,10.4735462 L65.1238929,9.27412166 C51.9870649,14.5216039 41.9026175,26.8371234 38.6763671,42.279714 L31.0840533,78.5194688 L86.0848611,78.5194688 L86.0848611,36.6252842 C86.0848611,22.5748827 92.4021298,9.89525221 102.27407,2.29175755 L102.27407,2.29175755 L110.967559,0.66396714 C112.764213,0.321274422 114.52223,0.171346359 116.280247,0.171346359 C116.512073,0.171346359 116.72458,0.171346359 116.956407,0.171346359 C117.168914,0.171346359 117.381422,0.192764653 117.574611,0.192764653 C117.613248,0.192764653 117.651886,0.192764653 117.690524,0.192764653 C117.845075,0.192764653 118.018944,0.214182948 118.173495,0.214182948 C118.192814,0.214182948 118.231452,0.214182948 118.250771,0.214182948 C118.347365,0.214182948 118.443959,0.235601243 118.521235,0.235601243 C118.695105,0.257019538 118.849656,0.257019538 119.023525,0.278437833 C119.216714,0.299856128 119.429222,0.321274422 119.62241,0.342692717 C119.815599,0.364111012 119.989469,0.385529307 120.182657,0.406947602 C120.221295,0.406947602 120.259933,0.428365897 120.317889,0.428365897 C120.511078,0.449784191 120.723585,0.492620781 120.916774,0.514039076 C120.936093,0.514039076 120.955412,0.514039076 120.955412,0.514039076 C121.167919,0.556875665 121.380427,0.57829396 121.592934,0.62113055 C110.407312,7.98902397 103.1241,21.4825497 103.1241,36.5824476 L103.1241,139.497354 L175.647118,139.497354 C196.550129,139.540191 213.512093,158.324035 213.512093,181.520049 Z" id="Path" fill="#E88939" fill-rule="nonzero"></path>
                                <path d="M103.529796,1.34935257 C93.6385372,8.97426553 86.0655422,22.5748827 86.0655422,36.6252842 L86.0655422,78.4980505 L31.0647344,78.4980505 L38.6570482,42.2582957 C41.8832987,26.8157051 51.117716,14.2645844 64.2738628,9.01710212" id="Path" stroke="#FFFFFF" stroke-width="6" stroke-linecap="round"></path>
                                <path d="M147.963185,212.383811 C147.963185,200.453821 151.769001,188.90936 158.704473,179.806585" id="Path" stroke="#FFFFFF" stroke-width="6" stroke-linecap="round"></path>
                                <path d="M67.6160264,208.121571 C67.5194321,208.121571 67.4228378,208.100153 67.3455623,208.035898 L64.7954722,206.49378 C64.5056892,206.322434 64.4090949,205.936905 64.5636458,205.61563 C64.7181967,205.294356 65.0659363,205.187264 65.3557193,205.358611 L67.9058094,206.900728 C68.1955924,207.072074 68.2921867,207.457604 68.1376358,207.778878 C68.0217226,207.993061 67.8285339,208.121571 67.6160264,208.121571 Z M70.1661166,207.393349 C69.953609,207.393349 69.7604204,207.264839 69.6638261,207.050656 C69.5092752,206.729382 69.6058695,206.343852 69.8956525,206.172506 L72.4457426,204.630389 C72.7355256,204.459042 73.0832651,204.587552 73.237816,204.887408 C73.392367,205.208683 73.2957726,205.594212 73.0059897,205.765558 L70.4558995,207.307676 C70.3593052,207.350512 70.2627109,207.393349 70.1661166,207.393349 Z M62.5158461,205.058755 C62.4192518,205.058755 62.3226575,205.037336 62.245382,204.973081 L59.6952919,203.430964 C59.4055089,203.259618 59.3089146,202.874089 59.4634655,202.552814 C59.6180164,202.23154 59.965756,202.124448 60.255539,202.295795 L62.8056291,203.837912 C63.0954121,204.009258 63.1920064,204.394788 63.0374555,204.716062 C62.9215423,204.930245 62.7283537,205.058755 62.5158461,205.058755 Z M75.246978,204.309114 C75.0344705,204.309114 74.8412818,204.180605 74.7446875,203.966422 C74.5901366,203.645147 74.6867309,203.259618 74.9765139,203.088272 L77.526604,201.546154 C77.9709379,201.289135 78.3766341,200.989279 78.7823302,200.668004 C79.0334755,200.453821 79.4005339,200.518076 79.5937225,200.796514 C79.7869112,201.074952 79.7289546,201.481899 79.4778093,201.696082 C79.0334755,202.060193 78.5698227,202.381468 78.0868511,202.681324 L75.5367609,204.223441 C75.4401666,204.287696 75.3435723,204.309114 75.246978,204.309114 Z M57.4736225,201.888847 C57.3577093,201.888847 57.2417961,201.84601 57.1258829,201.760337 C56.3144906,201.09637 55.5610549,200.325311 54.9235323,199.447161 C54.7110248,199.168724 54.7496625,198.761776 55.0008078,198.547593 C55.251953,198.311992 55.6190114,198.354828 55.8122001,198.633266 C56.391766,199.425743 57.0679263,200.111129 57.8020432,200.710841 C58.0531884,200.925024 58.111145,201.331971 57.9372752,201.610409 C57.8406809,201.803174 57.6668111,201.888847 57.4736225,201.888847 Z M81.2165072,199.639926 C81.0812751,199.639926 80.9653619,199.597089 80.8494487,199.489998 C80.5983035,199.275815 80.5596658,198.868867 80.7721733,198.59043 C81.3517392,197.797953 81.8347108,196.941221 82.2210881,195.998816 C82.3563202,195.677542 82.7040597,195.527613 82.9938427,195.677542 C83.2836257,195.82747 83.4188577,196.212999 83.2836257,196.534273 C82.8586107,197.562351 82.3176825,198.526175 81.6801599,199.382907 C81.5449279,199.554253 81.3903769,199.639926 81.2165072,199.639926 Z M53.8416759,196.984058 C53.6291684,196.984058 53.4166609,196.855548 53.3200665,196.619946 C52.8950515,195.591868 52.5859497,194.520954 52.392761,193.407202 C52.3348044,193.06451 52.547312,192.721817 52.8564138,192.657562 C53.1655156,192.593307 53.4746175,192.828908 53.5325741,193.171601 C53.7064438,194.178261 53.9769079,195.142084 54.3632852,196.063071 C54.4985173,196.384345 54.3632852,196.769875 54.0735023,196.919803 C53.9962268,196.962639 53.9189514,196.984058 53.8416759,196.984058 Z M83.6120464,193.856986 C83.5734087,193.856986 83.5347709,193.856986 83.5154521,193.856986 C83.2063502,193.792732 82.9938427,193.450039 83.0517993,193.107346 C83.1677125,192.400542 83.2256691,191.693739 83.2256691,190.986935 L83.2256691,190.023112 C83.2256691,189.659001 83.4768143,189.380563 83.805235,189.380563 C84.1336557,189.380563 84.384801,189.659001 84.384801,190.023112 L84.384801,190.986935 C84.384801,191.779412 84.3268444,192.571889 84.1916123,193.342947 C84.1336557,193.642804 83.8825105,193.856986 83.6120464,193.856986 Z M52.7791383,190.729915 C52.4507176,190.729915 52.1995724,190.451478 52.1995724,190.087367 L52.1995724,186.874622 C52.1995724,186.510511 52.4507176,186.232074 52.7791383,186.232074 C53.107559,186.232074 53.3587043,186.510511 53.3587043,186.874622 L53.3587043,190.087367 C53.3587043,190.430059 53.0882402,190.729915 52.7791383,190.729915 Z M83.7859162,187.452916 C83.4574955,187.452916 83.2063502,187.174478 83.2063502,186.810367 L83.2063502,183.597623 C83.2063502,183.233512 83.4574955,182.955074 83.7859162,182.955074 C84.1143369,182.955074 84.3654821,183.233512 84.3654821,183.597623 L84.3654821,186.810367 C84.3654821,187.174478 84.1143369,187.452916 83.7859162,187.452916 Z M52.7791383,184.304427 C52.4507176,184.304427 52.1995724,184.025989 52.1995724,183.661878 L52.1995724,180.449134 C52.1995724,180.085023 52.4507176,179.806585 52.7791383,179.806585 C53.107559,179.806585 53.3587043,180.085023 53.3587043,180.449134 L53.3587043,183.661878 C53.3587043,184.004571 53.0882402,184.304427 52.7791383,184.304427 Z M83.7859162,181.027428 C83.4574955,181.027428 83.2063502,180.74899 83.2063502,180.384879 L83.2063502,177.172135 C83.2063502,176.808024 83.4574955,176.529586 83.7859162,176.529586 C84.1143369,176.529586 84.3654821,176.808024 84.3654821,177.172135 L84.3654821,180.384879 C84.3654821,180.74899 84.1143369,181.027428 83.7859162,181.027428 Z M52.7791383,177.878939 C52.4507176,177.878939 52.1995724,177.600501 52.1995724,177.23639 L52.1995724,174.023645 C52.1995724,173.659534 52.4507176,173.381097 52.7791383,173.381097 C53.107559,173.381097 53.3587043,173.659534 53.3587043,174.023645 L53.3587043,177.23639 C53.3587043,177.579082 53.0882402,177.878939 52.7791383,177.878939 Z M83.7859162,174.601939 C83.4574955,174.601939 83.2063502,174.323502 83.2063502,173.959391 L83.2063502,170.746646 C83.2063502,170.382535 83.4574955,170.104098 83.7859162,170.104098 C84.1143369,170.104098 84.3654821,170.382535 84.3654821,170.746646 L84.3654821,173.959391 C84.3654821,174.323502 84.1143369,174.601939 83.7859162,174.601939 Z M52.7791383,171.45345 C52.4507176,171.45345 52.1995724,171.175012 52.1995724,170.810901 L52.1995724,168.047941 L53.7644004,168.047941 C54.0928211,168.047941 54.3439664,168.326379 54.3439664,168.69049 C54.3439664,169.054601 54.0928211,169.333039 53.7644004,169.333039 L53.3587043,169.333039 L53.3587043,170.810901 C53.3587043,171.153594 53.0882402,171.45345 52.7791383,171.45345 Z M82.7426975,169.333039 L79.8448678,169.333039 C79.5164471,169.333039 79.2653018,169.054601 79.2653018,168.69049 C79.2653018,168.326379 79.5164471,168.047941 79.8448678,168.047941 L82.7426975,168.047941 C83.0711182,168.047941 83.3222634,168.326379 83.3222634,168.69049 C83.3222634,169.054601 83.0711182,169.333039 82.7426975,169.333039 Z M76.9470381,169.333039 L74.0492084,169.333039 C73.7207877,169.333039 73.4696424,169.054601 73.4696424,168.69049 C73.4696424,168.326379 73.7207877,168.047941 74.0492084,168.047941 L76.9470381,168.047941 C77.2754588,168.047941 77.526604,168.326379 77.526604,168.69049 C77.526604,169.054601 77.2754588,169.333039 76.9470381,169.333039 Z M71.1513787,169.333039 L68.253549,169.333039 C67.9251283,169.333039 67.673983,169.054601 67.673983,168.69049 C67.673983,168.326379 67.9251283,168.047941 68.253549,168.047941 L71.1513787,168.047941 C71.4797994,168.047941 71.7309446,168.326379 71.7309446,168.69049 C71.7309446,169.054601 71.4797994,169.333039 71.1513787,169.333039 Z M65.3557193,169.333039 L62.4578895,169.333039 C62.1294688,169.333039 61.8783236,169.054601 61.8783236,168.69049 C61.8783236,168.326379 62.1294688,168.047941 62.4578895,168.047941 L65.3557193,168.047941 C65.68414,168.047941 65.9352852,168.326379 65.9352852,168.69049 C65.9352852,169.054601 65.68414,169.333039 65.3557193,169.333039 Z M59.5600598,169.333039 L56.6622301,169.333039 C56.3338094,169.333039 56.0826642,169.054601 56.0826642,168.69049 C56.0826642,168.326379 56.3338094,168.047941 56.6622301,168.047941 L59.5600598,168.047941 C59.8884805,168.047941 60.1396258,168.326379 60.1396258,168.69049 C60.1396258,169.054601 59.8884805,169.333039 59.5600598,169.333039 Z" id="Shape" fill="#FFFFFF" fill-rule="nonzero"></path>
                                <path d="M12.9436393,204.566134 C12.7311318,204.566134 12.5379432,204.437624 12.4413489,204.223441 C12.2867979,203.902167 12.3833923,203.516637 12.6731752,203.345291 L15.0300767,201.910265 C15.0880333,201.867429 15.1459899,201.84601 15.2039465,201.803174 C15.4744106,201.631827 15.841469,201.738919 15.99602,202.038775 C16.1505709,202.338631 16.0539766,202.745579 15.7835125,202.916925 C15.7255559,202.959762 15.6675993,203.002598 15.5903238,203.024017 L13.2334223,204.459042 C13.136828,204.544716 13.0402337,204.566134 12.9436393,204.566134 Z M17.8313121,201.139207 C17.6767612,201.139207 17.5222103,201.074952 17.4062971,200.925024 C17.1937896,200.668004 17.2131084,200.261057 17.4449348,200.025455 C18.1210951,199.34007 18.7199799,198.547593 19.2415892,197.71228 C19.415459,197.412423 19.7825174,197.348169 20.0529815,197.540933 C20.3234457,197.733698 20.3814022,198.140645 20.2075325,198.440502 C19.6472854,199.361488 18.9711251,200.21822 18.2370083,200.989279 C18.1017762,201.09637 17.9665442,201.139207 17.8313121,201.139207 Z M21.0575625,195.870306 C20.9802871,195.870306 20.9223305,195.848888 20.845055,195.82747 C20.555272,195.69896 20.4007211,195.334849 20.5166343,194.992156 C20.845055,194.028333 21.0768814,193.043091 21.2121134,192.036431 C21.2507512,191.693739 21.5405341,191.436719 21.8689548,191.479556 C22.1780567,191.522392 22.409883,191.843667 22.3712453,192.207778 C22.2360133,193.321529 21.984868,194.413862 21.6178096,195.463359 C21.5018964,195.720378 21.2893889,195.870306 21.0575625,195.870306 Z M21.8882737,189.573327 C21.559853,189.573327 21.3087078,189.29489 21.3087078,188.930779 L21.3087078,185.718034 C21.3087078,185.353923 21.559853,185.075486 21.8882737,185.075486 C22.2166944,185.075486 22.4678396,185.353923 22.4678396,185.718034 L22.4678396,188.930779 C22.4678396,189.273471 22.2166944,189.573327 21.8882737,189.573327 Z M21.8882737,183.147839 C21.559853,183.147839 21.3087078,182.869401 21.3087078,182.50529 L21.3087078,179.292546 C21.3087078,178.928435 21.559853,178.649997 21.8882737,178.649997 C22.2166944,178.649997 22.4678396,178.928435 22.4678396,179.292546 L22.4678396,182.50529 C22.4678396,182.847983 22.2166944,183.147839 21.8882737,183.147839 Z M21.8882737,176.722351 C21.559853,176.722351 21.3087078,176.443913 21.3087078,176.079802 L21.3087078,172.867058 C21.3087078,172.502947 21.559853,172.224509 21.8882737,172.224509 C22.2166944,172.224509 22.4678396,172.502947 22.4678396,172.867058 L22.4678396,176.079802 C22.4678396,176.422494 22.2166944,176.722351 21.8882737,176.722351 Z M21.8882737,170.296862 C21.559853,170.296862 21.3087078,170.018424 21.3087078,169.654313 L21.3087078,169.333039 L19.8597929,169.333039 C19.5313722,169.333039 19.280227,169.054601 19.280227,168.69049 C19.280227,168.326379 19.5313722,168.047941 19.8597929,168.047941 L22.4678396,168.047941 L22.4678396,169.654313 C22.4678396,169.997006 22.2166944,170.296862 21.8882737,170.296862 Z M16.9619632,169.333039 L14.0641335,169.333039 C13.7357128,169.333039 13.4845676,169.054601 13.4845676,168.69049 C13.4845676,168.326379 13.7357128,168.047941 14.0641335,168.047941 L16.9619632,168.047941 C17.2903839,168.047941 17.5415291,168.326379 17.5415291,168.69049 C17.5415291,169.054601 17.271065,169.333039 16.9619632,169.333039 Z M11.1663038,169.333039 L8.26847409,169.333039 C7.94005339,169.333039 7.68890815,169.054601 7.68890815,168.69049 C7.68890815,168.326379 7.94005339,168.047941 8.26847409,168.047941 L11.1663038,168.047941 C11.4947245,168.047941 11.7458697,168.326379 11.7458697,168.69049 C11.7458697,169.054601 11.4754056,169.333039 11.1663038,169.333039 Z M5.37064438,169.333039 L2.47281468,169.333039 C2.14439398,169.333039 1.89324874,169.054601 1.89324874,168.69049 C1.89324874,168.326379 2.14439398,168.047941 2.47281468,168.047941 L5.37064438,168.047941 C5.69906508,168.047941 5.95021032,168.326379 5.95021032,168.69049 C5.95021032,169.054601 5.67974622,169.333039 5.37064438,169.333039 Z" id="Shape" fill="#FFFFFF" fill-rule="nonzero"></path>
                            </g>
                        </g>
                        <g id="HAND" transform="translate(102.969549, 162.136492)" fill-rule="nonzero">
                            <path d="M44.6072586,2.8914698 C46.0175357,6.98236411 37.0922202,14.2431661 24.8247411,19.4049751 C12.557262,24.5667842 1.56482804,25.3592611 0.154550918,21.2469485 C-1.2557262,17.1346359 7.45708177,9.72390585 19.7438797,4.5620968 C32.0306777,-0.599712255 43.1969815,-1.22084281 44.6072586,2.8914698 Z" id="Path" fill="#E88939"></path>
                            <path d="M51.4654555,135.770571 L51.4654555,138.04091 C50.827933,137.869564 50.1517727,137.783891 49.4756125,137.783891 L46.9834789,137.783891 C43.2935758,137.783891 40.1446008,135.170859 38.9468312,131.529749 L46.0175357,130.480252 C48.8960465,130.051886 51.4654555,132.536408 51.4654555,135.770571 Z" id="Path" fill="#73325A"></path>
                            <path d="M57.9952318,147.229359 L57.9952318,164.663851 C57.9952318,168.733327 55.0201266,172.031744 51.3495424,172.031744 L43.9504172,172.031744 C42.115125,172.031744 40.4537027,171.217849 39.2559331,169.868496 C38.0581634,168.540562 37.3047277,166.698589 37.3047277,164.663851 L42.115125,164.663851 C43.6992719,164.663851 44.974317,163.250243 44.974317,161.493943 L44.974317,156.931846 C44.974317,155.175546 43.6992719,153.761939 42.115125,153.761939 L17.5222103,153.761939 C7.92073452,153.761939 0.135232053,145.130366 0.135232053,134.485473 L0.135232053,19.2978836 C1.29436393,15.0784796 9.19577959,8.97426553 19.7245609,4.5620968 C26.9111785,1.54211723 33.7307378,0.0856731793 38.4252219,0.214182948 L38.4252219,128.338423 C38.4252219,133.564487 42.2503571,137.805309 46.9641601,137.805309 L49.4562936,137.805309 C54.1700966,137.783891 57.9952318,142.003295 57.9952318,147.229359 Z" id="Path" fill="#A0505A"></path>
                            <path d="M38.4252219,0.192764653 L38.4252219,11.844317 C34.9285074,14.457349 30.1953855,17.1346359 24.8054223,19.3835568 C12.5186243,24.5453659 1.54550918,25.3378428 0.135232053,21.2255302 L0.135232053,19.2764653 C1.29436393,15.0570613 9.19577959,8.95284724 19.7245609,4.5406785 C26.9304974,1.52069893 33.7307378,0.0642548845 38.4252219,0.192764653 Z" id="Path" fill="#73325A"></path>
                        </g>
                        <g id="HEAD_1_" transform="translate(57.956594, 0.000000)">
                            <g id="NECK" transform="translate(6.568414, 75.392398)" fill-rule="nonzero">
                                <polygon id="Path" fill="#A0505A" points="44.7424906 0.171346359 37.4785975 20.925674 0.0386377294 28.3578223 9.81398326 0.171346359"></polygon>
                                <polygon id="Path" fill="#73325A" points="44.7424906 0.171346359 40.8207611 11.3945328 3.68990316 17.8200213 9.81398326 0.171346359"></polygon>
                            </g>
                            <g id="HAIR" fill="#FFFFFF" fill-rule="nonzero" stroke="#FFCF2D" stroke-linecap="round" stroke-width="6">
                                <path d="M73.2571349,33.3268667 C73.2571349,36.1326634 68.8717526,39.2383161 63.8102101,41.8513481 C56.9133754,45.4282033 48.7801333,48.1483268 48.7801333,48.1483268 L43.2935758,59.6071145 C50.7506575,63.9978649 53.6678061,71.8797974 54.826938,77.3842992 C55.5610549,80.8968996 55.5610549,83.40284 55.5610549,83.40284 L2.97510516,83.40284 C2.97510516,83.40284 -10.8378831,33.7980692 22.4485208,21.9323339 C42.8106042,14.671532 73.2571349,26.6657771 73.2571349,33.3268667 Z" id="Path"></path>
                                <ellipse id="Oval" cx="17.5801669" cy="14.5001856" rx="13.0788714" ry="14.5001856"></ellipse>
                            </g>
                            <g id="HEAD" transform="translate(36.705843, 42.408224)">
                                <path d="M18.1017762,34.9760754 C17.0199198,29.7714298 14.3152787,22.3606998 7.65027042,17.8842762 L5.93089146,17.8842762 C4.34674456,17.8842762 2.8978297,17.1774724 1.85461101,16.0208845 C0.811392317,14.8642966 0.173869782,13.2579245 0.173869782,11.5016243 C0.173869782,7.96760567 2.74327879,5.11897246 5.93089146,5.11897246 L13.2141034,5.29031882 C13.2141034,5.29031882 13.2141034,5.29031882 13.2141034,5.29031882 L13.4072921,5.29031882 C13.5425241,5.24748223 13.6777562,5.18322735 13.8323071,5.14039076 C15.8028313,4.66918827 22.0428246,2.99856128 27.2202804,0.128509769 L27.8191652,4.09089431 L29.7510516,16.7919431 C31.0647344,25.5091891 25.6747712,33.5410497 18.1017762,34.9760754 Z" id="Path" fill="#A0505A" fill-rule="nonzero"></path>
                                <path d="M27.7998463,4.06947602 C21.4632587,6.91810923 13.1947846,5.26890053 13.1947846,5.26890053 C13.1947846,5.26890053 20.9802871,3.55543694 27.2009615,0.107091474 L27.7998463,4.06947602 Z" id="Path" fill="#73325A" fill-rule="nonzero"></path>
                                <path d="M10.4128681,12.7224671 C10.4128681,10.2807815 8.63553252,8.31029839 6.43318194,8.31029839" id="Path" stroke="#73325A" stroke-width="5" stroke-linecap="round"></path>
                            </g>
                        </g>
                    </g>
                    <g id="CHAIR" transform="translate(5.795659, 315.705666)" stroke-width="6">
                        <path d="M119.880825,13.8806396 L142.415919,291.427002" id="Path" stroke="#66B0F0"></path>
                        <path d="M22.806575,13.8806396 L0.271481218,291.427002" id="Path" stroke="#66B0F0"></path>
                        <path d="M8.07209059,196.02044 L134.615309,196.02044" id="Path" stroke="#66B0F0"></path>
                        <path d="M3.20906851,13.8806396 L139.478331,13.8806396 C141.101735,13.8806396 142.415919,12.0303305 142.415919,9.74465455 L142.415919,4.13930645 C142.415919,1.85363052 141.101735,0.00332143892 139.478331,0.00332143892 L3.20906851,0.00332143892 C1.585665,0.00332143892 0.271481218,1.85363052 0.271481218,4.13930645 L0.271481218,9.74465455 C0.29080745,12.0303305 1.60499124,13.8806396 3.20906851,13.8806396 Z" id="Path" stroke="#FFCF2D" fill="#FFFFFF" fill-rule="nonzero"></path>
                    </g>
                </g>
            </g>
        </g>
    </g>
</svg>