<?xml version="1.0" encoding="UTF-8"?>
<svg width="66px" height="83px" viewBox="0 0 66 83" version="1.1" xmlns="http://www.w3.org/2000/svg" xmlns:xlink="http://www.w3.org/1999/xlink">
    <!-- Generator: Sketch 57.1 (83088) - https://sketch.com -->
    <title>English Icon</title>
    <desc>Created with Sketch.</desc>
    <g id="Page-2" stroke="none" stroke-width="1" fill="none" fill-rule="evenodd">
        <g id="Tutor-Sign-up-Page-" transform="translate(-977.000000, -51.000000)">
            <g id="subject" transform="translate(760.000000, 51.000000)">
                <g id="Name-Textbox">
                    <g id="English-Icon" transform="translate(217.000000, 0.000000)">
                        <g id="list-app" transform="translate(9.000000, 0.000000)">
                            <rect id="Rectangle" fill-opacity="0.236205201" fill="#FCEBC2" fill-rule="nonzero" x="0" y="0" width="51" height="78"></rect>
                            <rect id="Rectangle" fill="#F2F2F2" fill-rule="nonzero" x="6" y="6" width="36" height="4"></rect>
                            <rect id="Rectangle" fill="#F2F2F2" fill-rule="nonzero" x="13" y="50" width="42" height="1"></rect>
                            <rect id="Rectangle" fill="#F2F2F2" fill-rule="nonzero" x="13" y="60" width="42" height="1"></rect>
                            <rect id="Rectangle" fill="#F2F2F2" fill-rule="nonzero" x="13" y="19" width="42" height="1"></rect>
                            <path d="M14,20.5 L44,20.5" id="Path" stroke="#000000"></path>
                            <rect id="Rectangle" fill="#F2F2F2" fill-rule="nonzero" x="13" y="28" width="42" height="1"></rect>
                            <path d="M14,31.5 L44,31.5" id="Path" stroke="#000000"></path>
                            <rect id="Rectangle" fill="#F2F2F2" fill-rule="nonzero" x="13" y="39" width="42" height="1"></rect>
                            <path d="M14,42.5 L44,42.5" id="Path" stroke="#000000"></path>
                            <polygon id="Path" fill="#FFFFFF" fill-rule="nonzero" points="44.9937173 71.4555904 43.4565445 71.4555904 43.4565445 73 42.5371728 73 42.5371728 71.4555904 41 71.4555904 41 70.5339603 42.5371728 70.5339603 42.5371728 69 43.4628272 69 43.4628272 70.5339603 45 70.5339603"></polygon>
                        </g>
                        <g id="pen-tool" transform="translate(0.000000, 49.000000)">
                            <path d="M12,26.9921346 C9.78035036,27.1075706 7.69494154,25.9446312 6.65806199,24.0131744 C5.62118244,22.0817175 5.82208119,19.7342685 7.17267986,18" id="Path" fill="#E2E2E2" fill-rule="nonzero"></path>
                            <polygon id="Rectangle" fill="#F8B28C" fill-rule="nonzero" transform="translate(11.815176, 20.921485) rotate(62.260000) translate(-11.815176, -20.921485) " points="-1.06438374 18.8900254 24.6899187 18.9207386 24.6947352 22.9529437 -1.05956726 22.9222306"></polygon>
                            <path d="M15.8686606,25.0130741 C19.4889467,23.1317466 24.3263979,23.9104928 25.4421326,26 L47,3 L15.603381,7.51055984 C16.7113134,9.60777741 14.6202861,13.9872611 11,15.8685887" id="Path" fill="#FADB93" fill-rule="nonzero" opacity="0.57"></path>
                            <polygon id="Rectangle" stroke="#000000" stroke-width="0.41" transform="translate(7.981029, 18.581676) rotate(62.260000) translate(-7.981029, -18.581676) " points="-4.89852997 16.5502173 20.8557725 16.5809304 20.8605889 20.6131355 -4.89371349 20.5824224"></polygon>
                            <path d="M9,23.9924249 C6.77818893,24.1056835 4.69200996,22.9413117 3.65608697,21.0097939 C2.62016398,19.0782761 2.82357082,16.7321478 4.17712975,15" id="Path" stroke="#000000" stroke-width="0.41" stroke-linecap="round"></path>
                            <path d="M11.8686606,22.0130741 C15.4889467,20.1317466 20.3263979,20.9104928 21.4421326,23 L43,0 L11.5955787,4.51055984 C12.7113134,6.60006705 10.6202861,10.9872611 7,12.8685887" id="Path" stroke="#000000" stroke-width="0.41" stroke-linecap="round" stroke-linejoin="round"></path>
                            <path d="M43,0 L22,11" id="Path" stroke="#000000" stroke-width="0.41" stroke-linecap="round" stroke-linejoin="round"></path>
                            <circle id="Oval" stroke="#000000" stroke-width="0.41" stroke-linecap="round" stroke-linejoin="round" cx="17" cy="14" r="1"></circle>
                            <path d="M11.8686606,22.0130741 C15.4889467,20.1317466 20.3263979,20.9104928 21.4421326,23 L43,0 L11.5955787,4.51055984 C12.7113134,6.60006705 10.6202861,10.9872611 7,12.8685887" id="Path" stroke="#000000" stroke-width="0.41" stroke-linecap="round" stroke-linejoin="round"></path>
                        </g>
                        <text id="Learn" fill="#6E6D7A" font-family="SFProRounded-Thin, SF Pro Rounded" font-size="11" font-weight="300" line-spacing="24">
                            <tspan x="42" y="26">Learn</tspan>
                        </text>
                    </g>
                </g>
            </g>
        </g>
    </g>
</svg>