<?xml version="1.0" encoding="UTF-8"?>
<svg width="544px" height="673px" viewBox="0 0 544 673" version="1.1" xmlns="http://www.w3.org/2000/svg" xmlns:xlink="http://www.w3.org/1999/xlink">
    <!-- Generator: Sketch 57.1 (83088) - https://sketch.com -->
    <title>Student Studying Scene</title>
    <desc>Created with Sketch.</desc>
    <g id="Page-2" stroke="none" stroke-width="1" fill="none" fill-rule="evenodd">
        <g id="Student-Sign-up-Page-" transform="translate(-34.000000, -224.000000)">
            <g id="Student-Studying-Scene" transform="translate(37.000000, 224.000000)">
                <g id="10-SCENE" transform="translate(130.000000, 0.000000)">
                    <g id="LEGS" transform="translate(49.000000, 224.000000)">
                        <g id="LEFT_LEG">
                            <path d="M89.8740259,197.110221 L85.6372866,208.688688 L66.0580358,262.085264 C58.7126831,267.284272 49.4369816,270.624698 39.0331544,270.624698 C37.8047507,270.624698 36.3256523,270.323306 35.0721792,270.247958 C24.1920321,269.494479 13.7631354,264.722442 6.54312992,258.644375 L12.3843149,194.246999 L12.8104957,189.575426 C44.37295,201.832025 81.1749222,199.772515 89.8740259,197.110221 Z" id="Path" fill="#A0505A" fill-rule="nonzero"></path>
                            <path d="M89.8740259,197.110221 L81.5760336,219.714604 C56.2558757,223.155493 19.15307,202.409693 12.4093843,194.246999 L12.8355652,189.575426 C44.37295,201.832025 81.1749222,199.772515 89.8740259,197.110221 Z" id="Path" fill="#73325A" fill-rule="nonzero"></path>
                            <g id="Group" transform="translate(2.506946, 250.908653)">
                                <path d="M63.9522009,11.1012637 L57.9605992,73.9665648 C56.8826122,90.5431124 44.1974638,103.226683 29.1557858,103.226683 C28.4789103,103.226683 27.8020348,103.201567 27.1000898,103.151335 C11.1559112,101.945768 -0.852361752,86.9012951 0.275764096,69.5712681 L3.91083628,14.0147175 L4.28687823,8.06222998 C7.49576953,11.0761477 11.2311196,13.6630938 15.367581,15.6723723 C20.5569599,18.1839704 26.3480059,19.8165092 32.5401634,20.2937128 C33.7936365,20.3941768 35.0220402,20.4444087 36.2504439,20.4444087 C39.8103077,20.4444087 43.2949631,20.042553 46.6041323,19.2890736 C46.7044101,19.2639576 46.8297575,19.2388416 46.9300353,19.2137257 C53.1221927,17.7569987 58.7878914,15.0695887 63.5009506,11.4277715 C63.6764368,11.3273075 63.8268536,11.2268436 63.9522009,11.1012637 Z" id="Path" stroke="#FFCF2D" stroke-width="5" fill="#FFFFFF" fill-rule="nonzero"></path>
                                <path d="M58.2112938,14.9188929 L53.9745545,65.2262033 C53.0720538,79.2409208 42.3423235,89.9654448 29.6070362,89.9654448 C29.0304385,89.9654448 28.4538409,89.9403288 27.8772432,89.8900969 C14.4149414,88.8603416 4.2367393,76.1516551 5.1893789,61.4839221 L8.52361752,11.4277715" id="Path" stroke="#FFCF2D" stroke-width="5"></path>
                                <path d="M46.8798964,18.6611741 C43.5707272,19.3393056 39.8353772,19.4648855 36.2755134,19.4648855 C35.0471097,19.4648855 33.818706,19.4146535 32.5652328,19.3393056 C26.3730754,18.9123339 20.5569599,17.405375 15.3926505,15.0947047 L13.7380659,6.95712681 C12.6851484,3.49112139 15.3174421,2.77555756e-17 18.9525143,0.125579906 L43.019199,0.828827381 C46.0776736,0.904175325 48.4091336,3.56646934 48.1333695,6.60550307 L46.8798964,18.6611741 Z" id="Path" fill="#FFCF2D" fill-rule="nonzero"></path>
                                <path d="M46.6292017,18.4100143 L43.5957967,56.6114217 C43.069338,64.0206362 36.0498882,69.4959201 29.4315499,68.290353 L28.9050912,68.240121 C19.478973,66.5071183 12.2589676,56.6616537 13.4873713,46.1129416 L15.3926505,15.0695887 C20.5820294,17.380259 26.3730754,18.8872179 32.5652328,19.3141896 C33.818706,19.4146535 35.0471097,19.4397695 36.2755134,19.4397695 C39.8353772,19.4648855 43.3200326,19.0881457 46.6292017,18.4100143 Z" id="Path" fill="#FFCF2D" fill-rule="nonzero"></path>
                                <path d="M42.9439906,59.8011513 L15.4929283,53.522156 C12.7102179,52.8942565 12.9107736,48.8505835 15.7686924,48.4989598 L42.0164205,45.4096941 C45.1501034,45.0329544 45.5762843,40.6376577 42.5679487,39.6832504 L17.423277,31.6963683 C13.5876491,30.4656853 13.8884827,24.9401694 17.8494579,24.136458 L46.6542712,19.1383777 C46.6542712,19.1383777 25.1446717,21.0220763 15.4177199,15.6472563" id="Path" stroke="#FFFFFF" stroke-width="5" stroke-linecap="round" stroke-linejoin="round"></path>
                            </g>
                            <path d="M141.667537,55.8328263 L89.8740259,197.110221 C81.1749222,199.772515 40.1362108,203.288752 0.0752083899,184.67781 L31.5875238,38.6283792 C34.520651,16.5263157 53.3227484,-1.71115133e-05 75.6095013,-1.71115133e-05 L98.7736854,-1.71115133e-05 C127.879332,-0.0251159812 149.138237,27.6024634 141.667537,55.8328263 Z" id="Path" fill="#36A598" fill-rule="nonzero"></path>
                            <path d="M95.8906971,182.040632 C87.1915934,184.702926 42.6431571,187.968004 2.58215472,169.357062" id="Path" stroke="#FFFFFF" stroke-width="6" stroke-linecap="round"></path>
                        </g>
                        <g id="RIGHT_LEG" transform="translate(31.587524, 2.260438)">
                            <path d="M127.352874,197.637656 L122.138425,206.905454 L88.7709696,265.400574 C75.9103349,270.499118 60.7433096,272.382817 47.1556605,269.519595 L45.450937,269.042391 C38.7323208,267.635896 31.8632879,263.868499 26.999812,259.649014 L51.3422608,194.473043 C51.3422608,194.473043 51.3673303,194.473043 51.3923998,194.473043 C59.79067,197.260917 88.6706917,205.097103 127.352874,197.637656 Z" id="Path" fill="#A0505A" fill-rule="nonzero"></path>
                            <path d="M127.352874,197.637656 L116.347379,217.05231 C73.9799862,223.833625 49.9634404,198.290672 49.9634404,198.290672 L51.3673303,194.498159 C59.79067,197.260917 88.6706917,205.097103 127.352874,197.637656 Z" id="Path" fill="#73325A" fill-rule="nonzero"></path>
                            <path d="M198.750705,75.9758433 L140.965592,194.92513 C92.0550693,207.181729 59.7154616,197.260917 51.3673303,194.498159 L111.834876,32.4749638 C115.971337,22.6546151 122.84037,14.5421531 131.338918,8.89105736 C139.837466,3.23996158 149.965529,0.0502319625 160.594982,0.0502319625 C200.85654,0.0502319625 218.204609,40.6376577 198.750705,75.9758433 Z" id="Path" fill="#36A598" fill-rule="nonzero"></path>
                            <path d="M147.458583,182.11598 C98.5480603,194.372579 65.2056741,184.451766 56.8575428,181.689008" id="Path" stroke="#FFFFFF" stroke-width="6" stroke-linecap="round"></path>
                            <path d="M111.834876,32.4749638 L22.9636284,272.483281" id="Path" stroke="#FFFFFF" stroke-width="6"></path>
                            <g id="Group" transform="translate(0.000000, 249.652854)">
                                <path d="M88.2695803,15.9235321 L86.3141622,21.0723083 L64.1527566,79.1655729 C57.8101824,99.082546 36.9523889,110.912173 18.6266112,106.366181 L17.6238327,106.039673 C4.76319803,102.849943 -3.40944701,87.3282668 1.62951511,73.614941 L26.9496731,11.6286993 L27.4761318,10.3477843 C30.6599536,13.2110061 34.3702342,15.5719084 38.5066956,17.2797951 C40.7128084,18.1839704 43.0442685,18.9123339 45.4760064,19.4397695 L47.1807299,19.9169731 C54.3756659,21.423932 61.796227,21.7002078 69.1165103,20.8462644 C75.6847097,20.042553 82.1526312,18.3848983 88.2695803,15.9235321 Z" id="Path" stroke="#FFCF2D" stroke-width="5" fill="#FFFFFF" fill-rule="nonzero"></path>
                                <path d="M81.0997138,18.6109421 L61.6708797,70.0484717 C56.3561535,86.7254832 38.8827376,96.6462958 23.540226,92.8286667 L22.7129338,92.5523909 C11.9330645,89.8649809 5.08910105,76.8800186 9.30077089,65.3768992 L30.7602315,13.1858902" id="Path" stroke="#FFCF2D" stroke-width="5" stroke-linecap="round"></path>
                                <path d="M73.6540832,13.0603102 L69.0914409,20.7960325 C61.796227,21.6499758 54.3756659,21.3737 47.1556605,19.8667412 L45.450937,19.3895375 C43.019199,18.8872179 40.6877389,18.1588544 38.4816262,17.2295631 L40.2866275,4.67157251 C40.7128084,1.65765476 43.6208661,-0.376739719 46.6041323,0.251159812 L70.1694278,5.19900812 C73.7292916,5.92737157 75.5092235,9.94592857 73.6540832,13.0603102 Z" id="Path" fill="#FFCF2D" fill-rule="nonzero"></path>
                                <path d="M69.0914409,20.7960325 L68.9660936,20.9969603 L57.1834458,52.191009 C53.949485,62.3127495 43.3701715,68.315469 34.0443312,66.0047987 L33.5429419,65.8289868 C26.999812,64.1964481 22.8382811,56.31003 25.4204358,49.3529031 L38.4314872,17.7067668 L38.5066956,17.2295631 C40.7128084,18.1337385 43.0442685,18.8621019 45.4760064,19.3895375 L47.1807299,19.8667412 C54.3756659,21.398816 61.796227,21.6499758 69.0914409,20.7960325 Z" id="Path" fill="#FFCF2D" fill-rule="nonzero"></path>
                                <path d="M24.6683519,54.903535 L51.7433723,57.8421048 C55.0776109,58.1937285 56.4815008,53.6728519 53.5233042,52.0905451 L32.4398855,40.8134695 C29.5568972,39.2813947 30.7602315,34.9112139 34.0192617,35.0619098 L60.6430317,36.2674769 C64.227965,36.4432888 65.5315771,31.6210204 62.3728247,29.9382496 L38.4816262,17.1793312 C38.4816262,17.1793312 50.7907327,22.9811228 69.0162325,20.7206845" id="Path" stroke="#FFFFFF" stroke-width="5" stroke-linecap="round" stroke-linejoin="round"></path>
                            </g>
                        </g>
                    </g>
                    <g id="TABLE" transform="translate(0.000000, 188.000000)">
                        <polyline id="Path" stroke="#66B0F0" stroke-width="6" points="23.9896907 372.654338 23.9896907 72.6543382 315.989691 72.6543382 315.989691 372.654338"></polyline>
                        <path d="M326.329897,83.4634579 L13.6450663,83.4634579 C6.58468336,83.4634579 0.851251841,77.7203293 0.851251841,70.6480051 L0.851251841,21.8188727 C0.851251841,14.7465484 6.58468336,9.00341989 13.6450663,9.00341989 L326.329897,9.00341989 C333.39028,9.00341989 339.123711,14.7465484 339.123711,21.8188727 L339.123711,70.6480051 C339.123711,77.7203293 333.39028,83.4634579 326.329897,83.4634579 Z" id="Path" stroke="#66B0F0" stroke-width="6" fill="#FFFFFF" fill-rule="nonzero"></path>
                        <path d="M327.081001,74.6857505 L12.8939617,74.6857505 C5.83357879,74.6857505 0.100147275,68.9426219 0.100147275,61.8702977 L0.100147275,13.0411653 C0.100147275,5.96884104 5.83357879,0.225712476 12.8939617,0.225712476 L327.081001,0.225712476 C334.141384,0.225712476 339.874816,5.96884104 339.874816,13.0411653 L339.874816,61.8702977 C339.874816,68.9426219 334.141384,74.6857505 327.081001,74.6857505 Z" id="Path" fill="#66B0F0" fill-rule="nonzero"></path>
                    </g>
                    <g id="BACKPACK" transform="translate(256.000000, 396.000000)">
                        <path d="M69.4431373,61.9898667 L69.4431373,23.7381333 C69.4431373,10.7034667 79.924183,0.125333333 92.8392157,0.125333333 L92.8392157,0.125333333 C105.754248,0.125333333 116.235294,10.7034667 116.235294,23.7381333 L116.235294,61.9898667" id="Path" stroke="#FFCF2D" stroke-width="6"></path>
                        <path d="M46.3202614,187.7744 L133.471895,187.7744 C143.630065,187.7744 151.875817,179.452267 151.875817,169.2 L151.875817,46.6741333 C151.875817,36.4218667 143.630065,28.0997333 133.471895,28.0997333 L46.3202614,28.0997333 C36.1620915,28.0997333 27.9163399,36.4218667 27.9163399,46.6741333 L27.9163399,169.2 C27.9163399,179.477333 36.1620915,187.7744 46.3202614,187.7744 Z" id="Path" fill="#3FB1B5" fill-rule="nonzero"></path>
                        <path d="M151.85098,56.5504 C151.85098,44.8192 142.413072,35.2938667 130.789542,35.2938667 L62.8862745,35.2938667 C51.2627451,35.2938667 41.8248366,44.8192 41.8248366,56.5504 L41.8248366,141.2256" id="Path" stroke="#FFFFFF" stroke-width="6"></path>
                        <path d="M133.745098,187.7744 L74.3111111,187.7744 C64.3019608,187.7744 56.2052288,179.602667 56.2052288,169.5008 L56.2052288,60.3856 C56.2052288,50.2837333 64.3019608,42.112 74.3111111,42.112 L133.745098,42.112 C143.754248,42.112 151.85098,50.2837333 151.85098,60.3856 L151.85098,169.5008 C151.85098,179.602667 143.754248,187.7744 133.745098,187.7744 Z" id="Path" stroke="#FFCF2D" stroke-width="6" fill="#FFFFFF" fill-rule="nonzero"></path>
                        <path d="M82.5320261,70.5877333 L82.5320261,32.336 C82.5320261,19.3013333 93.0130719,8.7232 105.928105,8.7232 L105.928105,8.7232 C118.843137,8.7232 129.324183,19.3013333 129.324183,32.336 L129.324183,70.5877333" id="Path" stroke="#FFCF2D" stroke-width="6"></path>
                        <path d="M133.546405,173.4112 L75.0810458,173.4112 C70.3372549,173.4112 66.4875817,169.525867 66.4875817,164.738133 L66.4875817,119.6432 C66.4875817,114.855467 70.3372549,110.970133 75.0810458,110.970133 L133.546405,110.970133 C138.290196,110.970133 142.139989,114.855467 142.139989,119.6432 L142.139989,164.738133 C142.164706,169.525867 138.315033,173.4112 133.546405,173.4112 Z" id="Path" fill="#FFCF2D" fill-rule="nonzero"></path>
                        <path d="M45.5503268,141.2256 L38.1986928,141.2256" id="Path" stroke="#FFCF2D" stroke-width="6"></path>
                        <path d="M29.0588235,62.792 C29.0588235,99.3392 -10.530719,153.5584 3.10457516,170.9296 C16.1189542,187.498667 29.0588235,170.904533 29.0588235,170.904533 L29.0588235,62.792 Z" id="Path" stroke="#3FB1B5" stroke-width="6" fill="#FFFFFF" fill-rule="nonzero"></path>
                        <path d="M71.1568627,127.714667 L136.849673,127.714667" id="Path" stroke="#FFFFFF" stroke-width="5" stroke-linecap="round"></path>
                        <rect id="Rectangle" stroke="#FFCF2D" stroke-width="6" x="77.8130719" y="69.8357333" width="9.4379085" height="4.56213333"></rect>
                        <rect id="Rectangle" stroke="#FFCF2D" stroke-width="6" x="124.431373" y="69.8357333" width="9.4379085" height="4.56213333"></rect>
                        <g id="Group" transform="translate(71.032680, 127.589333)" stroke="#FFFFFF" stroke-linecap="round" stroke-width="5">
                            <path d="M0.124183007,3.18346667 L0.124183007,0.125333333" id="Path"></path>
                            <path d="M6.08496732,3.18346667 L6.08496732,0.125333333" id="Path"></path>
                            <path d="M12.0705882,3.18346667 L12.0705882,0.125333333" id="Path"></path>
                            <path d="M18.0313725,3.18346667 L18.0313725,0.125333333" id="Path"></path>
                            <path d="M24.0169935,3.18346667 L24.0169935,0.125333333" id="Path"></path>
                            <path d="M29.9777778,3.18346667 L29.9777778,0.125333333" id="Path"></path>
                            <path d="M36.2366013,3.18346667 L36.2366013,0.125333333" id="Path"></path>
                            <path d="M42.2222222,3.18346667 L42.2222222,0.125333333" id="Path"></path>
                            <path d="M47.9098039,3.18346667 L47.9098039,0.125333333" id="Path"></path>
                            <path d="M53.8705882,3.18346667 L53.8705882,0.125333333" id="Path"></path>
                            <path d="M59.8562092,3.18346667 L59.8562092,0.125333333" id="Path"></path>
                            <path d="M65.8169935,3.18346667 L65.8169935,0.125333333" id="Path"></path>
                        </g>
                        <path d="M78.0862745,141.2256 L78.0862745,141.2256 C76.4718954,141.2256 75.254902,139.7968 75.4535948,138.192533 L76.7699346,127.6896 L79.4026144,127.6896 L80.7189542,138.192533 C80.9424837,139.7968 79.7006536,141.2256 78.0862745,141.2256 Z" id="Path" stroke="#3FB1B5" stroke-width="6" fill="#FFFFFF" fill-rule="nonzero"></path>
                    </g>
                    <g id="CHARACTER" transform="translate(22.000000, 0.000000)">
                        <g id="TEST" transform="translate(100.593798, 187.197102)" fill-rule="nonzero">
                            <rect id="Rectangle" fill="#FFFFFF" x="0.0998449612" y="0.199676909" width="111.70155" height="59.0794055"></rect>
                            <g id="Group" transform="translate(79.127132, 15.974153)" stroke="#FE5244" stroke-width="5">
                                <g transform="translate(0.000000, 25.957998)" id="Oval">
                                    <ellipse fill="#FE5244" cx="19.5945736" cy="2.42108253" rx="2.32139535" ry="2.32124407"></ellipse>
                                    <ellipse fill="#FFFFFF" cx="11.007907" cy="2.42108253" rx="2.32139535" ry="2.32124407"></ellipse>
                                    <ellipse fill="#FFFFFF" cx="2.44620155" cy="2.42108253" rx="2.32139535" ry="2.32124407"></ellipse>
                                </g>
                                <g transform="translate(0.000000, 17.222133)" id="Oval">
                                    <ellipse fill="#FE5244" cx="19.5945736" cy="2.49596137" rx="2.32139535" ry="2.32124407"></ellipse>
                                    <ellipse fill="#FFFFFF" cx="11.007907" cy="2.49596137" rx="2.32139535" ry="2.32124407"></ellipse>
                                    <ellipse fill="#FFFFFF" cx="2.44620155" cy="2.49596137" rx="2.32139535" ry="2.32124407"></ellipse>
                                </g>
                                <g id="Oval">
                                    <ellipse fill="#FFFFFF" cx="19.5945736" cy="2.44604214" rx="2.32139535" ry="2.32124407"></ellipse>
                                    <ellipse fill="#FE5244" cx="11.007907" cy="2.44604214" rx="2.32139535" ry="2.32124407"></ellipse>
                                    <ellipse fill="#FFFFFF" cx="2.44620155" cy="2.44604214" rx="2.32139535" ry="2.32124407"></ellipse>
                                </g>
                                <g transform="translate(0.000000, 8.735865)" id="Oval">
                                    <ellipse fill="#FFFFFF" cx="19.5945736" cy="2.34620368" rx="2.32139535" ry="2.32124407"></ellipse>
                                    <ellipse fill="#FFFFFF" cx="11.007907" cy="2.34620368" rx="2.32139535" ry="2.32124407"></ellipse>
                                    <ellipse fill="#FE5244" cx="2.44620155" cy="2.34620368" rx="2.32139535" ry="2.32124407"></ellipse>
                                </g>
                            </g>
                            <g id="Group" transform="translate(11.482171, 7.238288)" stroke="#FE5244" stroke-width="5">
                                <g transform="translate(8.486822, 17.471730)" id="Oval">
                                    <ellipse fill="#FE5244" cx="11.1077519" cy="2.34620368" rx="2.32139535" ry="2.32124407"></ellipse>
                                    <ellipse fill="#FFFFFF" cx="2.52108527" cy="2.34620368" rx="2.32139535" ry="2.32124407"></ellipse>
                                </g>
                                <ellipse id="Oval" fill="#FFFFFF" cx="2.44620155" cy="2.54588059" rx="2.32139535" ry="2.32124407"></ellipse>
                                <g transform="translate(0.000000, 8.735865)" id="Oval">
                                    <ellipse fill="#FFFFFF" cx="19.5945736" cy="2.44604214" rx="2.32139535" ry="2.32124407"></ellipse>
                                    <ellipse fill="#FFFFFF" cx="11.007907" cy="2.44604214" rx="2.32139535" ry="2.32124407"></ellipse>
                                    <ellipse fill="#FE5244" cx="2.44620155" cy="2.44604214" rx="2.32139535" ry="2.32124407"></ellipse>
                                </g>
                            </g>
                            <g id="Group" transform="translate(43.931783, 15.974153)" stroke="#FE5244" stroke-width="5">
                                <g transform="translate(0.000000, 17.222133)" id="Oval">
                                    <ellipse fill="#FFFFFF" cx="19.5945736" cy="2.49596137" rx="2.32139535" ry="2.32124407"></ellipse>
                                    <ellipse fill="#FFFFFF" cx="11.007907" cy="2.49596137" rx="2.32139535" ry="2.32124407"></ellipse>
                                    <ellipse fill="#FE5244" cx="2.44620155" cy="2.49596137" rx="2.32139535" ry="2.32124407"></ellipse>
                                </g>
                                <g id="Oval">
                                    <ellipse fill="#FE5244" cx="19.5945736" cy="2.44604214" rx="2.32139535" ry="2.32124407"></ellipse>
                                    <ellipse fill="#FFFFFF" cx="11.007907" cy="2.44604214" rx="2.32139535" ry="2.32124407"></ellipse>
                                    <ellipse fill="#FFFFFF" cx="2.44620155" cy="2.44604214" rx="2.32139535" ry="2.32124407"></ellipse>
                                </g>
                                <g transform="translate(0.000000, 8.735865)" id="Oval">
                                    <ellipse fill="#FFFFFF" cx="19.5945736" cy="2.34620368" rx="2.32139535" ry="2.32124407"></ellipse>
                                    <ellipse fill="#FE5244" cx="11.007907" cy="2.34620368" rx="2.32139535" ry="2.32124407"></ellipse>
                                    <ellipse fill="#FFFFFF" cx="2.44620155" cy="2.34620368" rx="2.32139535" ry="2.32124407"></ellipse>
                                </g>
                            </g>
                        </g>
                        <g id="BLOUSE" transform="translate(0.000000, 50.168823)">
                            <path d="M287.678295,150.656228 L172.482171,150.656228 L172.582016,137.227956 L103.189767,137.227956 L82.996124,78.0736715 L61.3796899,117.884255 L122.409922,169.950009 L93.2302326,209.486037 L21.1421705,163.285793 C8.08744186,154.774564 0.224651163,140.273029 0.224651163,124.69823 L0.224651163,124.69823 C0.224651163,116.91083 2.19658915,109.223269 5.99069767,102.409295 L39.6384496,41.5577567 C53.7665116,16.024072 80.6248062,0.199676909 109.779535,0.199676909 L217.836744,0.199676909 C235.808837,0.199676909 252.657674,8.93554169 263.016589,23.6117945 L315.410233,96.5437856 C331.709922,119.132236 315.535039,150.656228 287.678295,150.656228 Z" id="Path" stroke="#36A598" stroke-width="6" fill="#FFFFFF" fill-rule="nonzero"></path>
                            <path d="M116.893488,195.858088 C108.356744,207.339511 97.848062,213.928849 93.38,210.60922 C88.911938,207.289591 92.2068217,195.308977 100.718605,183.827555 C109.255349,172.346132 118.765581,166.255987 123.233643,169.575615 C127.701705,172.895244 125.405271,184.401626 116.893488,195.858088 Z" id="Path" fill="#FE5244" fill-rule="nonzero"></path>
                            <polygon id="Path" stroke="#36A598" stroke-width="6" points="119.090078 0.299515364 153.661395 48.197014 185.56186 0.299515364"></polygon>
                            <ellipse id="Oval" stroke="#36A598" stroke-width="6" cx="154.035814" cy="62.0246399" rx="3.61937984" ry="3.61914398"></ellipse>
                            <ellipse id="Oval" stroke="#36A598" stroke-width="6" cx="154.035814" cy="84.9874845" rx="3.61937984" ry="3.61914398"></ellipse>
                            <polyline id="Path" stroke="#36A598" stroke-width="6" points="226.348527 75.0285987 242.847907 100.612203 173.455659 100.612203 173.455659 151.529815"></polyline>
                            <path d="M242.847907,100.612203 L261.044651,100.612203" id="Path" stroke="#36A598" stroke-width="6"></path>
                            <ellipse id="Oval" fill="#FE5244" fill-rule="nonzero" cx="173.455659" cy="125.646695" rx="10.0843411" ry="25.8831194"></ellipse>
                            <path d="M183.440155,100.687082 C189.006512,100.687082 193.524496,111.868988 193.524496,125.646695 C193.524496,139.424402 189.006512,150.606309 183.440155,150.606309" id="Path" stroke="#36A598" stroke-width="6"></path>
                            <path d="M85.6170543,204.643872 C81.1489922,201.324244 84.443876,189.343629 92.9556589,177.862207 C101.492403,166.380785 110.503411,160.290639 114.971473,163.610268" id="Path" stroke="#36A598" stroke-width="6"></path>
                        </g>
                        <g id="HAIR" transform="translate(56.162791, 0.000000)" fill-rule="nonzero">
                            <path d="M63.1768992,29.7768191 C63.3516279,5.16664003 79.7012403,-1.57245566 106.559535,0.574071114 C135.514574,2.89531518 123.657984,42.7308586 139.733023,44.0537181 C146.472558,44.6028296 154.16062,36.9651878 164.394729,30.6753652 C172.831628,24.9845733 182.990853,21.6649447 193.948837,21.6649447 C223.17845,21.6649447 246.891628,45.3765776 246.891628,74.6042852 C246.891628,88.057517 240.626357,101.061476 232.364186,110.396371 C232.364186,110.396371 201.137674,66.54233 189.031473,62.4239938 C165.21845,54.3370789 157.655194,75.2532352 141.130853,78.497985 C138.959225,78.9222984 136.637829,79.0470965 134.091783,78.7475811 C110.578295,76.0519428 115.071318,37.2896628 115.071318,37.2896628 C108.980775,34.7937014 107.657829,28.4789192 107.433178,24.6600983 C107.557984,22.8130869 107.483101,21.5900658 107.483101,21.5900658 C107.483101,21.5900658 107.333333,22.8380465 107.433178,24.6600983 C106.933953,31.848467 102.540775,49.0456408 78.0537984,42.8806163 L78.0537984,51.2420868 C78.0537984,101.885143 78.8775194,111.719231 68.6184496,124.448634 C67.095814,126.345564 56.9116279,141.645808 75.1582946,149.90744 C98.6717829,160.540235 82.0725581,188.519962 82.0725581,188.519962 L32.3248062,188.519962 C32.3248062,188.519962 2.79565891,183.278443 0.224651163,156.471818 C-3.44465116,118.158811 44.6057364,107.90041 50.8710078,106.727308 C38.6899225,104.855337 26.7834109,92.8497628 26.7834109,78.2983081 C26.7834109,65.3941878 36.6930233,54.4868366 46.8772093,50.8926523 C46.9021705,50.8926523 46.9021705,50.8926523 46.9271318,50.8676926 C47.2266667,50.7678542 47.5262016,50.6680157 47.8257364,50.5681773 C55.7883721,47.8226198 61.6542636,41.7823933 62.9522481,34.4692265 L63.1768992,29.7768191 Z" id="Path" fill="#FFCF2D"></path>
                            <path d="M107.557984,30.0513748 C107.533023,30.0513748 107.533023,30.0513748 107.557984,30.0513748 C107.208527,30.0513748 106.933953,29.7518595 106.933953,29.4273845 L107.133643,16.6730219 C107.133643,16.3235873 107.408217,16.0490316 107.757674,16.0490316 C107.757674,16.0490316 107.757674,16.0490316 107.757674,16.0490316 C108.107132,16.0490316 108.381705,16.3485469 108.381705,16.6730219 L108.182016,29.4273845 C108.157054,29.7768191 107.882481,30.0513748 107.557984,30.0513748 Z" id="Path" fill="#A0505A"></path>
                            <path d="M79.152093,44.57787 C79.0522481,44.57787 78.9524031,44.5529104 78.8525581,44.5029912 C72.811938,41.3331202 71.5389147,38.0883704 71.464031,37.9635724 C71.3392248,37.6390974 71.5139535,37.2896628 71.8384496,37.1648647 C72.1629457,37.0400667 72.5124031,37.214784 72.6372093,37.5142993 C72.6621705,37.5642186 73.8852713,40.4844934 79.4266667,43.4047682 C79.7262016,43.5545258 79.8510078,43.9538797 79.7012403,44.253395 C79.6013953,44.4530719 79.3767442,44.57787 79.152093,44.57787 Z" id="Path" fill="#A0505A"></path>
                            <ellipse id="Oval" fill="#FFCF2D" cx="162.996899" cy="15.4000816" rx="7.48837209" ry="7.4878841"></ellipse>
                            <ellipse id="Oval" fill="#FFCF2D" cx="74.8587597" cy="135.281106" rx="6.01565891" ry="6.01526689"></ellipse>
                        </g>
                        <g id="ARMS" transform="translate(94.353488, 136.778683)">
                            <g id="Group" transform="translate(0.000000, 82.865917)">
                                <path d="M74.5592248,6.16502457 L74.5342636,10.7076743 C74.5342636,11.1070281 74.4344186,11.5063819 74.2846512,11.8558165 L63.3516279,36.2163994 C61.7291473,39.7357049 58.2096124,41.9820702 54.3406202,41.9820702 L30.951938,41.9820702 C25.1110078,41.9820702 19.4448062,40.0102607 14.851938,36.4160763 L14.0282171,35.7671264 L0.0998449612,24.809856 L0.0998449612,24.809856 C1.64744186,21.4652677 3.76914729,17.896043 6.39007752,14.3767375 C11.3823256,7.63764178 17.0984496,2.59579982 21.8410853,0.224636523 L55.4139535,0.224636523 C58.0848062,6.18998419 49.3982946,10.98223 49.3982946,10.98223 L64.5747287,10.98223 L70.0662016,5.01688235 C71.4889922,3.4693863 74.06,4.14329587 74.5592248,6.16502457 Z" id="Path" fill="#A0505A" fill-rule="nonzero"></path>
                                <path d="M65.9226357,28.8033942 C64.300155,32.3226997 60.7806202,34.5690649 56.9116279,34.5690649 L37.2172093,34.5690649" id="Path" stroke="#73325A" stroke-width="5" stroke-linecap="round"></path>
                                <path d="M69.3672868,21.0908735 C67.7448062,24.6101791 64.2252713,26.8565443 60.3562791,26.8565443 L40.6618605,26.8565443" id="Path" stroke="#73325A" stroke-width="5" stroke-linecap="round"></path>
                                <path d="M73.0865116,12.5047664 C71.464031,16.024072 67.9444961,18.2704372 64.0755039,18.2704372 L44.3810853,18.2704372" id="Path" stroke="#73325A" stroke-width="5" stroke-linecap="round"></path>
                                <path d="M22.2903876,25.8831194 C20.0688372,29.5022633 16.7989147,33.271165 14.0282171,35.7671264 L14.0032558,35.7421668 L0.0748837209,24.7848964 L0.0748837209,24.7848964 C1.62248062,21.4403081 3.74418605,17.8710834 6.36511628,14.3517779 C11.3573643,7.61268217 17.0734884,2.57084021 21.816124,0.199676909 L29.0299225,0.199676909 C29.6789147,5.86550921 28.7303876,15.4000816 22.2903876,25.8831194 Z" id="Path" fill="#73325A" fill-rule="nonzero"></path>
                            </g>
                            <g id="Group" transform="translate(26.958140, 0.000000)">
                                <path d="M19.2700775,31.7486286 C19.2700775,31.7486286 31.4012403,-0.623990342 36.0939535,0.0249596137 C40.7617054,0.648949955 25.6351938,29.3525057 25.6351938,29.3525057 L19.2700775,31.7486286 Z" id="Path" fill="#FE5244" fill-rule="nonzero"></path>
                                <g transform="translate(0.000000, 27.455575)" id="Path">
                                    <path d="M62.2283721,11.5812607 C62.2283721,25.4338463 57.9849612,36.7155917 52.6682171,37.4144609 C52.4934884,37.4394205 52.3187597,37.4394205 52.144031,37.4394205 L2.72077519,37.4394205 C1.22310078,37.4394205 0.0249612403,36.241359 0.0249612403,34.7437822 L0.0249612403,18.9693064 C0.0249612403,14.5015355 2.77069767,10.5079974 6.93922481,8.93554169 L27.632093,1.098223 C29.504186,0.399353819 31.5010853,0.0249596137 33.4979845,0.0249596137 L61.1550388,0.0249596137 C61.8289922,3.51930553 62.2283721,7.43796487 62.2283721,11.5812607 Z" fill="#A0505A" fill-rule="nonzero"></path>
                                    <path d="M21.7412403,12.4298876 L6.11550388,18.345316 C2.9703876,19.5433775 0.898604651,22.5634907 0.898604651,25.908079" stroke="#73325A" stroke-width="5" stroke-linecap="round"></path>
                                    <path d="M21.7412403,21.8646216 L6.11550388,27.78005 C2.9703876,28.9781115 0.898604651,31.9982247 0.898604651,35.3428129" stroke="#73325A" stroke-width="5" stroke-linecap="round"></path>
                                    <path d="M20.8925581,30.6753652 L5.26682171,36.5907936" stroke="#73325A" stroke-width="5" stroke-linecap="round"></path>
                                    <path d="M62.2283721,11.5812607 C62.2283721,25.4338463 57.9849612,36.7155917 52.6682171,37.4144609 C52.4934884,37.4394205 52.3187597,37.4394205 52.144031,37.4394205 C46.5776744,37.4394205 42.0596899,25.8581598 42.0596899,11.5563011 C42.0596899,7.73748023 42.6337984,3.39450746 43.2328682,0 L61.0302326,0 C61.6542636,3.41946707 62.2283721,7.76243985 62.2283721,11.5812607 Z" fill="#73325A" fill-rule="nonzero"></path>
                                </g>
                            </g>
                        </g>
                        <g id="HEAD" transform="translate(134.041860, 24.460421)">
                            <path d="M45.3545736,18.3952353 C45.3545736,19.8428929 44.8553488,21.2156716 44.0316279,22.288935 C43.1829457,23.387158 42.0097674,24.1858656 40.5869767,24.5602598 L37.1423256,25.4588059 L37.1423256,29.3025864 C37.1423256,38.5875627 29.6289922,46.1004064 20.3434109,46.1004064 L17.0235659,46.1004064 C7.76294574,46.1004064 0.274573643,38.6125223 0.224651163,29.3774653 L0.224651163,18.3952353 C24.7116279,24.5852195 29.1048062,7.36308603 29.604031,0.174717296 C29.8037209,3.81882089 31.0268217,9.70928971 36.4184496,12.4298876 L37.3669767,12.1802915 C41.4106977,11.1819069 45.3545736,14.2269798 45.3545736,18.3952353 Z" id="HEAD_1_" fill="#A0505A" fill-rule="nonzero"></path>
                            <g id="FACE" transform="translate(4.742636, 16.223749)">
                                <path d="M19.7942636,5.26647848 C19.7942636,5.26647848 24.8863566,4.76728621 27.8317829,7.28820719" id="Path" stroke="#73325A" stroke-width="5" stroke-linecap="round"></path>
                                <path d="M0.0249612403,6.68917646 C0.0249612403,6.68917646 3.76914729,4.66744775 7.96263566,6.51445917 C10.4587597,7.61268217 12.1062016,13.503151 12.156124,21.2905505" id="Path" stroke="#73325A" stroke-width="5" stroke-linecap="round"></path>
                                <ellipse id="Oval" fill="#73325A" fill-rule="nonzero" cx="4.81751938" cy="12.4298876" rx="1" ry="1.87197102"></ellipse>
                                <ellipse id="Oval" fill="#73325A" fill-rule="nonzero" cx="22.9393798" cy="12.4298876" rx="1" ry="1.87197102"></ellipse>
                                <path d="M33.3482171,4.59256891 C33.3482171,2.42108253 34.8708527,0.549111501 36.9925581,0.0998384546" id="Path" stroke="#73325A" stroke-width="5" stroke-linecap="round"></path>
                            </g>
                        </g>
                    </g>
                </g>
                <g id="PLANT" transform="translate(0.000000, 422.000000)">
                    <g id="Group">
                        <path d="M226.268882,137.565387 C229.251711,144.557275 228.374408,158.940587 213.36,158.740818 C194.736118,158.491108 195.212368,108.499112 195.212368,108.499112 C195.212368,108.499112 214.237303,109.373098 226.268882,137.565387 Z" id="Path" fill="#3FB1B5" fill-rule="nonzero"></path>
                        <path d="M52.8136184,120.660002 C48.1513816,130.498587 54.4178289,138.414402 59.6816447,135.69256 C68.8807895,130.923094 72.8411842,118.66232 72.8411842,118.66232 C72.8411842,118.66232 56.9996053,111.870201 52.8136184,120.660002 Z" id="Path" fill="#3FB1B5" fill-rule="nonzero"></path>
                        <path d="M226.018224,137.565387 C216.042039,117.663479 204.7875,108.19946 186.765197,108.19946 C156.410526,108.19946 136.934408,140.561911 133.224671,182.413352 C132.773487,177.219378 127.384342,171.90055 126.983289,166.506808 C121.569079,94.8399604 160.997566,66.5727444 190.575197,66.5727444 C214.78875,66.5477868 220.829605,101.207572 226.018224,137.565387 Z" id="Path" stroke="#3FB1B5" stroke-width="6" fill="#FFFFFF" fill-rule="nonzero"></path>
                        <path d="M127.008355,183.412193 C121.594145,111.745346 162.852434,83.4781431 190.098947,83.4781431 C205.213618,83.4781431 214.688487,92.3678287 221.982632,112.594361" id="Path" stroke="#3FB1B5" stroke-width="6"></path>
                        <path d="M13.4352632,36.3328442 C5.33901316,44.3235728 -9.29940789,77.0855602 8.82315789,83.5780272 C26.9457237,90.0954653 48.1764474,25.944897 48.1764474,25.944897 C48.1764474,25.944897 32.8111184,17.1800665 13.4352632,36.3328442 Z" id="Path" stroke="#FFCF2D" stroke-width="6" fill="#FFCF2D" fill-rule="nonzero"></path>
                        <g transform="translate(76.701316, 167.805301)" fill-rule="nonzero" id="Path">
                            <path d="M86.1511184,17.3798348 L79.6841447,52.3143015 C76.4255921,69.8439624 61.0853289,82.5791861 43.1883553,82.5791861 C25.2913816,82.5791861 9.95111842,69.8439624 6.69256579,52.3143015 L0.225592105,17.3798348 C0.225592105,15.6318629 0.626644737,13.9588041 1.32848684,12.4605425 C6.51710526,17.6545161 23.3863816,21.4501122 43.3638158,21.4501122 C63.0655263,21.4501122 79.7092105,17.7544002 85.1735526,12.7102527 C85.8001974,14.1336013 86.1511184,15.731747 86.1511184,17.3798348 Z" fill="#D0F0E4"></path>
                            <path d="M81.915,9.08945381 C81.915,14.0337171 64.6446711,18.0290815 43.33875,18.0290815 C22.0328289,18.0290815 4.7625,14.0337171 4.7625,9.08945381 C4.7625,8.68991738 4.86276316,8.31535198 5.08835526,7.94078657 C7.54480263,3.54588583 23.7373026,0.174797189 43.33875,0.174797189 C63.5417763,0.174797189 80.1102632,3.77062507 81.7646053,8.340323 C81.8648684,8.59003327 81.915,8.83974354 81.915,9.08945381 Z" fill="#66B0F0"></path>
                        </g>
                        <path d="M133.876382,124.780222 C133.876382,145.456232 131.018882,164.983575 125.930526,182.163642 L111.292105,182.163642 C111.241974,95.3393809 79.4585526,24.995998 40.2807237,24.995998 C30.1040132,24.995998 20.4286184,29.7404931 11.6806579,38.2805843 C37.4482895,8.24043889 48.1513816,-2.27373675e-13 62.865,-2.27373675e-13 C98.0072368,-2.27373675e-13 133.876382,55.8601873 133.876382,124.780222 Z" id="Path" stroke="#FFCF2D" stroke-width="6" fill="#FFFFFF" fill-rule="nonzero"></path>
                        <path d="M28.0736842,19.9768216 C36.4456579,13.908862 41.8348026,11.087136 51.435,11.087136 C90.6378947,11.087136 130.317039,76.2615163 119.864605,182.138671" id="Path" stroke="#FFCF2D" stroke-width="6"></path>
                        <path d="M119.964868,182.138671 C119.964868,182.138671 122.120526,100.608268 77.5284868,100.333361 C65.7225,100.258673 54.6684868,118.91203 54.6684868,118.91203 C54.6684868,118.91203 106.880526,105.327792 109.462303,182.138671 L119.964868,182.138671 Z" id="Path" stroke="#3FB1B5" stroke-width="6" fill="#FFFFFF" fill-rule="nonzero"></path>
                        <path d="M114.500526,182.388381 C115.127171,159.415036 109.311908,103.979356 64.2436184,106.950908" id="Path" stroke="#3FB1B5" stroke-width="6"></path>
                        <ellipse id="Oval" stroke="#FFCF2D" stroke-width="6" fill="#FFFFFF" fill-rule="nonzero" cx="54.4679605" cy="37.4565404" rx="4.13585526" ry="4.12021945"></ellipse>
                        <ellipse id="Oval" stroke="#FFCF2D" stroke-width="6" fill="#FFFFFF" fill-rule="nonzero" cx="151.948816" cy="153.397019" rx="6.04085526" ry="6.0180175"></ellipse>
                    </g>
                </g>
            </g>
        </g>
    </g>
</svg>