<?xml version="1.0" encoding="UTF-8"?>
<svg width="494px" height="682px" viewBox="0 0 494 682" version="1.1" xmlns="http://www.w3.org/2000/svg" xmlns:xlink="http://www.w3.org/1999/xlink">
    <!-- Generator: Sketch 57.1 (83088) - https://sketch.com -->
    <title>TUTOR SIGN UP SCENE </title>
    <desc>Created with Sketch.</desc>
    <g id="Page-2" stroke="none" stroke-width="1" fill="none" fill-rule="evenodd">
        <g id="Tutor-Sign-up-Page-" transform="translate(-55.000000, -190.000000)">
            <g id="TUTOR-SIGN-UP-SCENE-" transform="translate(-0.867694, 126.059907)">
                <g id="9-SCENE" transform="translate(105.000000, 103.000000) rotate(-42.000000) translate(-105.000000, -103.000000) translate(18.000000, 44.000000)" fill-rule="nonzero">
                    <g id="TRIANGLE" transform="translate(0.189901, 0.001984)">
                        <g id="Group" transform="translate(18.104651, 22.335244)">
                            <path d="M0.948126856,87.1929508 C0.656395516,87.1929508 0.364664176,86.976993 0.267420395,86.6530564 C0.14586567,86.2211408 0.34035323,85.7622306 0.705017406,85.627257 L2.99024624,84.7364311 C3.37922136,84.6014575 3.79250743,84.8174153 3.91406215,85.2223361 C4.03561688,85.6542517 3.84112932,86.1131619 3.47646514,86.2481355 L1.19123631,87.1389614 C1.09399253,87.1659561 1.02105969,87.1929508 0.948126856,87.1929508 Z M6.68550988,84.9793836 C6.39377854,84.9793836 6.1020472,84.7634259 6.00480342,84.4394892 C5.8832487,84.0075737 6.07773626,83.5486634 6.44240043,83.4136898 L8.72762927,82.522864 C9.11660439,82.3878904 9.52989045,82.6038481 9.65144518,83.008769 C9.7729999,83.4406845 9.57851234,83.8995948 9.21384817,84.0345684 L6.92861934,84.9253942 C6.8556865,84.9523889 6.75844272,84.9793836 6.68550988,84.9793836 Z M12.4228929,82.7388217 C12.1311616,82.7388217 11.8394302,82.522864 11.7421865,82.1989273 C11.6206317,81.7670118 11.8151193,81.3081015 12.1797835,81.1731279 L14.4650123,80.2823021 C14.8539874,80.1473285 15.2672735,80.3632862 15.3888282,80.7682071 C15.5103829,81.2001226 15.3158954,81.6590329 14.9512312,81.7940065 L12.6660024,82.6848323 C12.5930695,82.7388217 12.4958257,82.7388217 12.4228929,82.7388217 Z M18.1602759,80.5252546 C17.8685446,80.5252546 17.5768133,80.3092968 17.4795695,79.9853601 C17.3580148,79.5534446 17.5525023,79.0945343 17.9171665,78.9595607 L20.2023953,78.0687349 C20.5913704,77.9337613 21.0046565,78.1497191 21.1262112,78.5546399 C21.247766,78.9865554 21.0532784,79.4454657 20.6886142,79.5804393 L18.4033854,80.4712651 C18.3304526,80.5252546 18.2575197,80.5252546 18.1602759,80.5252546 Z M23.897659,78.3116874 C23.6059276,78.3116874 23.3141963,78.0957296 23.2169525,77.771793 C23.0953978,77.3398774 23.2898853,76.8809671 23.6545495,76.7459935 L25.9397784,75.8551677 C26.3287535,75.7201941 26.7420395,75.9361519 26.8635943,76.3410727 C26.985149,76.7729883 26.7906614,77.2318985 26.4259973,77.3668721 L24.1407684,78.257698 C24.0678356,78.3116874 23.9949027,78.3116874 23.897659,78.3116874 Z M29.6593529,76.0981202 C29.3676216,76.0981202 29.0758903,75.8821624 28.9786465,75.5582258 C28.8570918,75.1263102 29.0515793,74.6674 29.4162435,74.5324264 L31.7014723,73.6416006 C32.0904474,73.5066269 32.5037335,73.7225847 32.6252882,74.1275055 C32.746843,74.5594211 32.5523554,75.0183314 32.1876912,75.153305 L29.9024624,76.0441308 C29.8052186,76.0981202 29.7322858,76.0981202 29.6593529,76.0981202 Z M35.396736,73.884553 C35.1050046,73.884553 34.8132733,73.6685953 34.7160295,73.3446586 C34.5944748,72.9127431 34.7889623,72.4538328 35.1536265,72.3188592 L37.4388554,71.4280334 C37.8278305,71.2930598 38.2411165,71.5090175 38.3626713,71.9139384 C38.484226,72.3458539 38.2897384,72.8047642 37.9250743,72.9397378 L35.6398454,73.8305636 C35.5426016,73.8575583 35.4696688,73.884553 35.396736,73.884553 Z M41.134119,71.6709859 C40.8423877,71.6709859 40.5506563,71.4550281 40.4534125,71.1310914 C40.3318578,70.6991759 40.5263454,70.2402656 40.8910095,70.105292 L43.1762384,69.2144662 C43.5652135,69.0794926 43.9784996,69.2954504 44.1000543,69.7003712 C44.221609,70.1322867 44.0271215,70.591197 43.6624573,70.7261706 L41.3772285,71.6169964 C41.2799847,71.6439912 41.2070518,71.6709859 41.134119,71.6709859 Z M46.871502,69.4574187 C46.5797707,69.4574187 46.2880393,69.2414609 46.1907956,68.9175243 C46.0692408,68.4856087 46.2637284,68.0266985 46.6283926,67.8917249 L48.9136214,67.000899 C49.3025965,66.8659254 49.7158826,67.0818832 49.8374373,67.486804 C49.958992,67.9187196 49.7645045,68.3776298 49.3998403,68.5126034 L47.1146115,69.4034293 C47.0416786,69.430424 46.9444349,69.4574187 46.871502,69.4574187 Z M52.6088851,67.2438515 C52.3171537,67.2438515 52.0254224,67.0278938 51.9281786,66.7039571 C51.8066239,66.2720416 52.0011114,65.8131313 52.3657756,65.6781577 L54.6510044,64.7873319 C55.0399796,64.6523583 55.4532656,64.868316 55.5748204,65.2732369 C55.6963751,65.7051524 55.5018875,66.1640627 55.1372233,66.2990363 L52.8519945,67.1898621 C52.7790617,67.2168568 52.6818179,67.2438515 52.6088851,67.2438515 Z M58.3462681,65.0302844 C58.0545367,65.0302844 57.7628054,64.8143266 57.6655616,64.4903899 C57.5440069,64.0584744 57.7384945,63.5995641 58.1031586,63.4645905 L60.3883875,62.5737647 C60.7773626,62.4387911 61.1906487,62.6547489 61.3122034,63.0596697 C61.4337581,63.4915852 61.2392705,63.9504955 60.8746064,64.0854691 L58.5893775,64.9762949 C58.5164447,65.0032896 58.4192009,65.0302844 58.3462681,65.0302844 Z M64.0836511,62.7897225 C63.7919198,62.7897225 63.5001884,62.5737647 63.4029447,62.249828 C63.2813899,61.8179125 63.4758775,61.3590022 63.8405417,61.2240286 L66.1257705,60.3332028 C66.5147456,60.1982292 66.9280317,60.414187 67.0495864,60.8191078 C67.1711411,61.2510233 66.9766536,61.7099336 66.6119894,61.8449072 L64.3267606,62.735733 C64.2538277,62.7897225 64.1808949,62.7897225 64.0836511,62.7897225 Z M69.8210341,60.5761553 C69.5293028,60.5761553 69.2375715,60.3601975 69.1403277,60.0362609 C69.018773,59.6043453 69.2132605,59.1454351 69.5779247,59.0104614 L71.8631535,58.1196356 C72.2521286,57.984662 72.6654147,58.2006198 72.7869694,58.6055406 C72.9085242,59.0374562 72.7140366,59.4963664 72.3493724,59.63134 L70.0641436,60.5221659 C69.9912108,60.5761553 69.9182779,60.5761553 69.8210341,60.5761553 Z M75.5827281,58.3625881 C75.2909968,58.3625881 74.9992654,58.1466304 74.9020217,57.8226937 C74.7804669,57.3907781 74.9749545,56.9318679 75.3396187,56.7968943 L77.6248475,55.9060685 C78.0138226,55.7710948 78.4271087,55.9870526 78.5486634,56.3919734 C78.6702181,56.823889 78.4757306,57.2827993 78.1110664,57.4177729 L75.8258376,58.3085987 C75.7285938,58.3625881 75.6556609,58.3625881 75.5827281,58.3625881 Z M81.3201111,56.149021 C81.0283798,56.149021 80.7366485,55.9330632 80.6394047,55.6091265 C80.51785,55.177211 80.7123375,54.7183007 81.0770017,54.5833271 L83.3622305,53.6925013 C83.7512056,53.5575277 84.1644917,53.7734854 84.2860464,54.1784063 C84.4076012,54.6103218 84.2131136,55.0692321 83.8484494,55.2042057 L81.5632206,56.0950315 C81.4659768,56.149021 81.393044,56.149021 81.3201111,56.149021 Z M87.0574942,53.9354538 C86.7657628,53.9354538 86.4740315,53.719496 86.3767877,53.3955593 C86.255233,52.9636438 86.4497205,52.5047335 86.8143847,52.3697599 L89.0996136,51.4789341 C89.4885887,51.3439605 89.9018747,51.5599183 90.0234295,51.9648391 C90.1449842,52.3967546 89.9504966,52.8556649 89.5858325,52.9906385 L87.3006036,53.8814643 C87.2033598,53.9354538 87.130427,53.9354538 87.0574942,53.9354538 Z M92.7948772,51.7218866 C92.5031459,51.7218866 92.2114145,51.5059288 92.1141707,51.1819922 C91.992616,50.7500766 92.1871036,50.2911664 92.5517677,50.1561928 L94.8369966,49.2653669 C95.2259717,49.1303933 95.6392578,49.3463511 95.7608125,49.7512719 C95.8823672,50.1831875 95.6878797,50.6420977 95.3232155,50.7770714 L93.0379867,51.6678972 C92.9650538,51.6948919 92.86781,51.7218866 92.7948772,51.7218866 Z M98.5322602,49.5083194 C98.2405289,49.5083194 97.9487975,49.2923617 97.8515538,48.968425 C97.729999,48.5365095 97.9244866,48.0775992 98.2891508,47.9426256 L100.57438,47.0517998 C100.963355,46.9168262 101.376641,47.1327839 101.498196,47.5377048 C101.61975,47.9696203 101.425263,48.4285306 101.060599,48.5635042 L98.7753697,49.45433 C98.7024368,49.4813247 98.6051931,49.5083194 98.5322602,49.5083194 Z" id="Shape" fill="#FFCF2D"></path>
                            <path d="M26.8149724,87.1929508 C26.4016863,87.1929508 26.085644,86.8420194 26.085644,86.3831092 C26.085644,79.0675396 24.0435246,73.7495794 19.9835968,70.6181917 C16.9447287,68.269651 13.8572387,68.0536932 13.8329277,68.0536932 C13.4196417,68.0266985 13.1279103,67.6487724 13.1522213,67.1898621 C13.1765322,66.7309518 13.5168854,66.4070152 13.9058606,66.4340099 C14.0517262,66.4340099 17.3823257,66.6499677 20.7615471,69.2414609 C26.3773754,73.5606164 27.5443007,80.9571701 27.5443007,86.3831092 C27.5443007,86.8150247 27.2282584,87.1929508 26.8149724,87.1929508 Z" id="Path" fill="#E88939"></path>
                            <path d="M142.972668,87.1929508 L0.948126856,87.1929508 C0.680706461,87.1929508 0.413286066,87.0309825 0.29173134,86.7340405 C0.170176615,86.4640933 0.19448756,86.1401567 0.364664176,85.8972042 L58.0788477,0.458910267 C58.2004024,0.269947216 58.39489,0.16196833 58.5893775,0.134973608 C58.7838651,0.107978886 59.0026636,0.188963051 59.1485293,0.350931381 L143.483198,85.7892253 C143.701996,86.0051831 143.774929,86.3561144 143.677685,86.6800511 C143.55613,86.976993 143.28871,87.1929508 142.972668,87.1929508 Z M2.40678356,85.5732675 L141.100725,85.5732675 L58.7595542,2.13258301 L2.40678356,85.5732675 Z" id="Shape" fill="#E88939"></path>
                        </g>
                        <g id="Group" transform="translate(0.000000, 101.206574)" fill="#36A598">
                            <path d="M6.41349694,14.3162007 C2.93951943,14.3162007 0.121467745,11.1102561 0.121467745,7.15810035 C0.121467745,3.20594456 2.93951943,0 6.41349694,0 C9.88747445,0 12.7055261,3.20594456 12.7055261,7.15810035 C12.7055261,11.1102561 9.88747445,14.3162007 6.41349694,14.3162007 Z M6.41349694,1.63060973 C3.74120655,1.63060973 1.57908069,4.09034306 1.57908069,7.13046289 C1.57908069,10.1705827 3.74120655,12.6303161 6.41349694,12.6303161 C9.08578733,12.6303161 11.2479132,10.1705827 11.2479132,7.13046289 C11.2479132,4.09034306 9.08578733,1.63060973 6.41349694,1.63060973 Z" id="Shape"></path>
                            <rect id="Rectangle" x="11.2479132" y="7.15810035" width="1.45761294" height="6.32897675"></rect>
                        </g>
                        <g id="Group" transform="translate(74.430233, 0.000000)" fill="#36A598">
                            <path d="M6.73187029,17.5651368 C3.16647232,17.5651368 0.274261382,14.477931 0.274261382,10.6721513 C0.274261382,6.86637168 3.16647232,3.77916581 6.73187029,3.77916581 C10.2972683,3.77916581 13.1894792,6.86637168 13.1894792,10.6721513 C13.1894792,14.4513171 10.2972683,17.5651368 6.73187029,17.5651368 Z M6.73187029,5.34938258 C3.98925647,5.34938258 1.77023256,7.71801467 1.77023256,10.6455375 C1.77023256,13.5730603 3.98925647,15.9683062 6.73187029,15.9683062 C9.47448411,15.9683062 11.693508,13.5996741 11.693508,10.6721513 C11.693508,7.74462852 9.47448411,5.34938258 6.73187029,5.34938258 Z" id="Shape"></path>
                            <rect id="Rectangle" x="0.224395676" y="0" width="1.49597118" height="16.7401077"></rect>
                        </g>
                        <path d="M173,115.166101 C169.667999,115.166101 166.965116,112.04003 166.965116,108.186338 C166.965116,104.332646 169.667999,101.206574 173,101.206574 L173,102.823508 C170.436922,102.823508 168.363159,105.221959 168.363159,108.186338 C168.363159,111.150716 170.436922,113.549168 173,113.549168 L173,115.166101 Z" id="Path" fill="#36A598"></path>
                    </g>
                </g>
                <g id="9-SCENE" transform="translate(104.867694, 183.940093)">
                    <g id="COMPUTER" transform="translate(22.931381, 0.602694)">
                        <g id="COMPUTER_1_" transform="translate(60.426401, 0.000000)">
                            <path d="M235.872341,227.649459 L15.1526992,227.649459 C6.85145195,227.649459 0.14030277,219.364474 0.14030277,209.116495 L0.14030277,18.5329638 C0.14030277,8.28498539 6.85145195,0 15.1526992,0 L235.872341,0 C244.173588,0 250.884798,8.28498539 250.884798,18.5329638 L250.884798,209.087628 C250.908121,219.335606 244.173588,227.649459 235.872341,227.649459 Z" id="Path" stroke="#3FB1B5" stroke-width="6" fill="#FFFFFF" fill-rule="nonzero" stroke-linecap="round"></path>
                            <path d="M236.012644,209.924786 L17.4209273,209.924786 C14.1705798,209.924786 11.5515948,206.662754 11.5515948,202.679033 L11.5515948,20.3516192 C11.5515948,16.3390304 14.1939636,13.1058654 17.4209273,13.1058654 L236.012644,13.1058654 C239.262991,13.1058654 241.88213,16.367898 241.88213,20.3516192 L241.88213,202.650165 C241.90536,206.662754 239.262991,209.924786 236.012644,209.924786 Z" id="Path" stroke="#66B0F0" stroke-width="6" fill="#66B0F0" fill-rule="nonzero" stroke-linejoin="round"></path>
                            <g id="Group" transform="translate(19.642388, 20.784632)" stroke="#FFFFFF" stroke-linecap="round" stroke-width="6">
                                <path d="M5.61211082,9.35308455 L2.15130915,9.35308455 C1.02888698,9.35308455 0.0935351803,8.2272503 0.0935351803,6.8127406 L0.0935351803,2.54034395 C0.0935351803,1.1547018 1.00550319,1.13686838e-13 2.15130915,1.13686838e-13 L5.61211082,1.13686838e-13 C6.73453298,1.13686838e-13 7.66988478,1.12583425 7.66988478,2.54034395 L7.66988478,6.8127406 C7.64650099,8.2272503 6.73453298,9.35308455 5.61211082,9.35308455 Z" id="Path"></path>
                                <path d="M21.3494049,9.35308455 L17.8886032,9.35308455 C16.7661811,9.35308455 15.8308293,8.2272503 15.8308293,6.8127406 L15.8308293,2.54034395 C15.8308293,1.1547018 16.7427973,1.13686838e-13 17.8886032,1.13686838e-13 L21.3494049,1.13686838e-13 C22.4718271,1.13686838e-13 23.4071789,1.12583425 23.4071789,2.54034395 L23.4071789,6.8127406 C23.4071789,8.2272503 22.4718271,9.35308455 21.3494049,9.35308455 Z" id="Path"></path>
                                <path d="M37.086699,9.35308455 L33.6258973,9.35308455 C32.5034751,9.35308455 31.5681233,8.2272503 31.5681233,6.8127406 L31.5681233,2.54034395 C31.5681233,1.1547018 32.4800913,1.13686838e-13 33.6258973,1.13686838e-13 L37.086699,1.13686838e-13 C38.2091211,1.13686838e-13 39.1444729,1.12583425 39.1444729,2.54034395 L39.1444729,6.8127406 C39.1444729,8.2272503 38.2325049,9.35308455 37.086699,9.35308455 Z" id="Path"></path>
                            </g>
                            <g id="Group" transform="translate(86.286204, 227.476254)" fill-rule="nonzero">
                                <polygon id="Path" stroke="#3FB1B5" stroke-width="6" fill="#FFFFFF" stroke-linecap="round" points="85.8185279 65.1540488 0.14030277 65.1540488 16.9532514 0.173205269 68.9821954 0.173205269"></polygon>
                                <polygon id="Path" fill="#3FB1B5" points="6.87483575 39.1443909 16.9532514 0.173205269 68.9821954 0.173205269"></polygon>
                            </g>
                            <g id="Group" transform="translate(174.443111, 22.228010)" stroke="#FFFFFF" stroke-linecap="round" stroke-width="6">
                                <path d="M48.8487479,50.6625413 L7.20220888,50.6625413 C3.2971151,50.6625413 0.14030277,46.7654227 0.14030277,41.9445427 L0.14030277,8.7468661 C0.14030277,3.92598611 3.2971151,0.0288675449 7.20220888,0.0288675449 L48.8487479,0.0288675449 C52.7538417,0.0288675449 55.910654,3.92598611 55.910654,8.7468661 L55.910654,41.9445427 C55.910654,46.7654227 52.7538417,50.6625413 48.8487479,50.6625413 Z" id="Path"></path>
                                <path d="M12.0426545,11.864561 L43.821232,11.864561" id="Path"></path>
                                <path d="M12.0426545,20.8134999 L43.821232,20.8134999" id="Path"></path>
                                <path d="M12.0426545,29.7624388 L43.821232,29.7624388" id="Path"></path>
                                <path d="M12.0426545,38.7113777 L43.821232,38.7113777" id="Path"></path>
                            </g>
                        </g>
                        <g id="TEACHER" transform="translate(0.000000, 22.944462)">
                            <g id="SHIRT" transform="translate(15.909677, 70.221764)">
                                <path d="M280.080512,116.997584 L114.456091,116.997584 L104.746508,134.262852 C93.7735102,153.76245 70.5874951,154.052622 59.3103414,134.81418 L0.163776091,33.9211745 C2.64381404,37.7514525 13.9911575,33.4859156 24.8003795,24.6646692 C35.7733775,15.6983365 42.8625426,4.4106232 40.6398671,0.232138063 L81.6540795,65.0566922 L94.2180453,37.5483317 C97.6573432,30.265 103.36611,25.0418936 110.01074,23.1267546 L152.756299,11.8970757 L189.60592,11.8970757 L230.22239,23.0106855 C237.288159,25.0128763 243.277684,30.7292761 246.670189,38.6509875 L280.080512,116.997584 Z" id="Path" stroke="#E88939" stroke-width="6" fill="#FFFFFF" fill-rule="nonzero"></path>
                                <path d="M234.620948,115.807876 L222.852466,86.9937392" id="Path" stroke="#E88939" stroke-width="6" stroke-linecap="round"></path>
                                <path d="M113.520227,118.506481 L125.171726,89.9825168" id="Path" stroke="#E88939" stroke-width="6" stroke-linecap="round"></path>
                                <path d="M65.697609,39.8987296 L92.3931118,82.2349089" id="Path" stroke="#E88939" stroke-width="6" stroke-linecap="round"></path>
                                <polyline id="Path" stroke="#E88939" stroke-width="6" stroke-linecap="round" points="175.778539 25.8253595 185.605104 40.6531783 207.597893 17.4974065"></polyline>
                                <polyline id="Path" stroke="#E88939" stroke-width="6" stroke-linecap="round" points="168.268235 26.1155321 158.722428 41.2335235 134.553757 17.4974065"></polyline>
                                <path d="M48.7818785,13.2028523 C51.004554,17.4103547 43.8919923,28.8431544 32.8488045,37.9255561 C21.9927893,46.8628715 10.4816698,51.1574257 7.97823528,47.2981304" id="Path" stroke="#E88939" stroke-width="6" stroke-linecap="round"></path>
                                <ellipse id="Oval" stroke="#E88939" stroke-width="6" stroke-linecap="round" cx="41.435351" cy="17.2652685" rx="2.64381404" ry="3.27895014"></ellipse>
                                <ellipse id="Oval" stroke="#E88939" stroke-width="6" stroke-linecap="round" cx="171.988292" cy="37.8675216" rx="2.64381404" ry="3.27895014"></ellipse>
                                <ellipse id="Oval" stroke="#E88939" stroke-width="6" stroke-linecap="round" cx="171.988292" cy="64.2732263" rx="2.64381404" ry="3.27895014"></ellipse>
                                <polygon id="Path" fill="#3FB1B5" fill-rule="nonzero" points="103.904231 135.655681 114.456091 116.997584 114.456091 135.655681"></polygon>
                            </g>
                            <g id="ARM">
                                <path d="M40.4526944,94.0159156 C29.6434724,102.837162 18.296129,107.102699 15.816091,103.272421 C15.7692979,103.214386 15.7459013,103.156352 15.6991081,103.0693 C15.1843833,102.111731 15.2311764,100.805954 15.6991081,99.2100048 C17.3134724,93.9578811 23.981499,85.8330489 32.4510625,78.9269415 C39.1892789,73.4136625 45.8339088,69.5833845 50.4430359,68.3936769 C53.1102466,67.72628 55.0989562,67.9294008 56.0582162,69.2061601 C56.0582162,69.2061601 56.0582162,69.2061601 56.0582162,69.2061601 L56.292182,69.5543672 C56.292182,69.5543672 56.292182,69.5543672 56.292182,69.5543672 C58.491461,73.7328523 51.4256925,85.0495829 40.4526944,94.0159156 Z" id="Path" fill="#E88939" fill-rule="nonzero"></path>
                                <path d="M40.4526944,94.0159156 C34.2993927,99.0359012 27.9589183,102.605024 23.1860151,103.997852 C23.1860151,103.997852 23.1860151,103.997852 23.1860151,103.997852 L1.82493358,66.6236242 C-1.14643264,61.4005177 -0.163776091,54.1752205 4.07100568,50.4900288 L23.3029981,33.7180537 L12.4001897,10.7073682 C10.809222,7.37038351 11.7216888,3.04681208 14.4356926,1.1026558 C15.3247628,0.464276127 16.2840227,0.174103547 17.2432827,0.174103547 C19.0916129,0.174103547 20.9165464,1.30577661 21.9927893,3.39501918 L56.0816128,69.1481256 L56.3155786,69.6124017 C56.3155786,69.6124017 56.3155786,69.6124017 56.3155786,69.6124017 C58.491461,73.7328523 51.4256925,85.0495829 40.4526944,94.0159156 Z" id="Path" fill="#E57281" fill-rule="nonzero"></path>
                                <path d="M23.2562049,33.979209 L35.1650663,56.8738255 C36.2647058,59.0211026 35.7733775,61.8647939 34.0420303,63.2576222 L31.3982163,65.4048993 C29.666869,66.826745 27.3272106,66.2173825 26.2041745,64.0701055 L14.9504174,43.1776798" id="Path" stroke="#9A3B82" stroke-width="6" stroke-linecap="round"></path>
                                <path d="M26.1573813,64.0120709 C27.303814,66.1883653 26.7890891,69.1191083 25.0343453,70.5119367 L22.6244971,72.3980585 C20.8931499,73.7618696 18.6002846,73.1525072 17.4772485,71.0342474" id="Path" stroke="#9A3B82" stroke-width="6" stroke-linecap="round"></path>
                                <path d="M6.41066412,50.5480633 L17.4304554,70.8601438 C18.576888,73.0364382 18.0855597,75.9671812 16.2840227,77.3600096 L14.0379506,78.8979242 C12.3533966,80.2327181 10.130721,79.6813902 8.96089182,77.6501822 L2.57362428,66.4785379" id="Path" stroke="#9A3B82" stroke-width="6" stroke-linecap="round"></path>
                                <path d="M48.1267741,53.8270134 L42.5349904,43.0616107 C40.6866603,39.492488 36.8262238,38.5059012 33.9952371,40.8853164 L20.1210626,52.5502541 C20.1210626,52.5502541 24.1452751,61.5165868 33.9250474,54.4073586 L37.2005692,60.8782071 L37.2005692,60.8782071 C30.509146,66.1303308 28.5906261,77.185906 32.9423908,85.39779 L48.1267741,53.8270134 Z" id="Path" fill="#E57281" fill-rule="nonzero"></path>
                                <path d="M47.40148,54.117186 L41.8096963,43.3517833 C39.9613661,39.7826606 36.1009297,38.7960738 33.269943,41.175489 L20.1210626,52.5502541 C20.1210626,52.5502541 24.1452751,61.5165868 33.9250474,54.4073586 L37.2005692,60.8782071 L37.2005692,60.8782071 C30.509146,66.1303308 28.5906261,77.185906 32.9423908,85.39779" id="Path" stroke="#9A3B82" stroke-width="6" stroke-linecap="round"></path>
                                <path d="M40.4526944,94.0159156 C34.2993927,99.0359012 27.9589183,102.605024 23.1860151,103.997852 L23.1860151,103.997852 L17.8749905,94.7123298 C20.8463567,89.895465 26.1573813,84.0920134 32.4510625,78.9559588 C39.1892789,73.4426798 45.8339088,69.6124017 50.4430359,68.4226941 C53.1102466,67.7552972 55.0989562,67.958418 56.0582162,69.2351774 C56.0582162,69.2351774 56.0582162,69.2351774 56.0582162,69.2351774 L56.292182,69.5833845 C56.292182,69.5833845 56.292182,69.5833845 56.292182,69.5833845 C56.3155786,69.641419 56.3389752,69.6704362 56.3623718,69.7284708 C56.3857684,69.757488 56.3857684,69.7865053 56.409165,69.8445398 C56.4325615,69.9025743 56.4559581,69.9315916 56.4793547,69.9896261 C58.0703225,74.4292665 51.0747437,85.3107382 40.4526944,94.0159156 Z" id="Path" fill="#9A3B82" fill-rule="nonzero"></path>
                            </g>
                            <g id="HEAD_2_" transform="translate(158.160910, 4.352589)">
                                <g id="Group" transform="translate(10.294497, 52.231064)" fill-rule="nonzero">
                                    <path d="M37.0367931,0 L37.0367931,25.5061697 C37.0367931,32.9055705 28.7544022,38.8831256 18.576888,38.8831256 C8.37597721,38.8831256 0.116982922,32.9055705 0.116982922,25.5061697 L0.116982922,0 L37.0367931,0 Z" id="Path" fill="#E57281"></path>
                                    <path d="M5.52159392,34.9657958 C2.17588235,32.5573634 0.0935863376,29.1913615 0.0935863376,25.5061697 L0.0935863376,0 L37.0367931,0 L37.0367931,7.08021093 C37.0367931,14.4215772 33.4337191,21.0084947 27.9589183,23.7651342 L5.52159392,34.9657958 Z" id="Path" fill="#9A3B82"></path>
                                </g>
                                <path d="M57.6257874,50.7221668 L57.6257874,51.1574257 C57.6257874,55.5680489 54.7480075,59.1371716 51.1917266,59.1371716 L46.9569449,59.1371716 C45.5297532,66.2754171 40.3357115,71.5855753 34.11222,71.5855753 L23.6305502,71.5855753 C17.4304554,71.5855753 12.2130171,66.3044343 10.809222,59.1371716 L6.57444021,59.1371716 C3.01815939,59.1371716 0.140379506,55.5680489 0.140379506,51.1574257 L0.140379506,50.7221668 C0.140379506,46.3115436 3.01815939,42.7424209 6.57444021,42.7424209 L10.4114801,42.7424209 L10.4114801,36.4456759 C10.4114801,29.7136721 14.412296,24.1423586 19.6297343,23.2138063 C20.7761669,25.5932215 24.2388614,31.280604 31.3046299,30.9614142 C34.6269449,30.8163279 37.715294,30.0328619 40.2655217,29.1043097 C43.3304743,28.0016539 46.3954268,30.3230345 47.1675141,33.9501918 C47.2844971,34.762675 47.3546868,35.5751582 47.3546868,36.4166587 L47.3546868,42.7134036 L51.1917266,42.7134036 C54.7246109,42.7134036 57.6257874,46.3115436 57.6257874,50.7221668 Z" id="Path" fill="#E57281" fill-rule="nonzero"></path>
                                <path d="M50.2792599,42.7134036 L47.3312902,42.7134036 L47.3312902,35.7202445 C47.3312902,35.1108821 47.2611005,34.5015197 47.1441175,33.9501918 C46.3720303,30.3230345 43.3070777,28.0016539 40.2421251,29.1043097 C37.6918975,30.0328619 34.6269449,30.8163279 31.2812333,30.9614142 C24.2154648,31.280604 20.7527704,25.5932215 19.6063377,23.2138063 C14.3888994,24.1423586 10.3880835,29.7136721 10.3880835,36.4456759 L10.3880835,42.7424209 L6.71481972,42.7424209 C6.71481972,42.7424209 2.50343453,23.852186 5.66197342,18.5130105 C8.77371915,13.2608869 12.5171726,15.5532502 12.5171726,15.5532502 C12.5171726,15.5532502 10.2711005,-0.174103547 22.8116698,0.116069032 C35.3288424,0.406241611 51.6128652,18.4259588 52.806091,21.7339262 C54.6778177,26.8119463 50.2792599,42.7134036 50.2792599,42.7134036 Z" id="Path" fill="#FFCF2D" fill-rule="nonzero"></path>
                                <g id="Group" transform="translate(4.445351, 34.530537)">
                                    <g transform="translate(0.000000, 11.897076)" id="Path" stroke="#9A3B82" stroke-linecap="round" stroke-width="5">
                                        <path d="M44.3131308,5.77443432 C44.3131308,2.66958773 46.3486337,0.174103547 48.8286716,0.174103547"></path>
                                        <path d="M4.58573054,5.77443432 C4.58573054,2.66958773 2.5502277,0.174103547 0.0701897532,0.174103547"></path>
                                    </g>
                                    <g transform="translate(11.464326, 0.000000)">
                                        <path d="M25.5256736,1.91513902 C25.5256736,1.91513902 22.2033586,-1.1026558 17.9685768,1.07363854" id="Path" stroke="#9A3B82" stroke-width="5" stroke-linecap="round"></path>
                                        <path d="M0.163776091,1.91513902 C0.163776091,1.91513902 3.48609107,-1.1026558 7.72087285,1.07363854" id="Path" stroke="#9A3B82" stroke-width="5" stroke-linecap="round"></path>
                                        <path d="M18.7874573,23.3298754 C18.7874573,23.3298754 16.9859203,28.1467402 11.4643264,25.6222387" id="Path" stroke="#9A3B82" stroke-width="5" stroke-linecap="round"></path>
                                        <path d="M11.2069639,20.8343912 C12.6341556,20.9504602 14.8100379,20.8343912 14.8100379,20.8343912" id="Path" stroke="#9A3B82" stroke-width="5" stroke-linecap="round"></path>
                                        <ellipse id="Oval" fill="#9A3B82" fill-rule="nonzero" cx="21.7588235" cy="11.5778859" rx="1.16982922" ry="2.43744966"></ellipse>
                                        <ellipse id="Oval" fill="#9A3B82" fill-rule="nonzero" cx="4.98347247" cy="11.5778859" rx="1.16982922" ry="2.43744966"></ellipse>
                                    </g>
                                </g>
                                <g id="Group" transform="translate(13.570019, 38.592953)" stroke="#FFFFFF" stroke-width="5">
                                    <path d="M10.1073245,15.7273538 L2.73740037,15.7273538 C1.31020873,15.7273538 0.163776091,14.3055081 0.163776091,12.5354554 L0.163776091,3.39501918 C0.163776091,1.62496644 1.31020873,0.203120805 2.73740037,0.203120805 L10.1073245,0.203120805 C11.5345161,0.203120805 12.6809487,1.62496644 12.6809487,3.39501918 L12.6809487,12.5354554 C12.7043453,14.2764909 11.5345161,15.7273538 10.1073245,15.7273538 Z" id="Path"></path>
                                    <path d="M28.146091,15.7273538 L20.7761669,15.7273538 C19.3489753,15.7273538 18.2025427,14.3055081 18.2025427,12.5354554 L18.2025427,3.39501918 C18.2025427,1.62496644 19.3489753,0.203120805 20.7761669,0.203120805 L28.146091,0.203120805 C29.5732827,0.203120805 30.7197153,1.62496644 30.7197153,3.39501918 L30.7197153,12.5354554 C30.7197153,14.2764909 29.5732827,15.7273538 28.146091,15.7273538 Z" id="Path"></path>
                                    <path d="M12.7043453,6.23871045 L18.2025427,6.23871045" id="Path"></path>
                                </g>
                            </g>
                        </g>
                        <g id="ICON" transform="translate(172.215243, 172.083462)">
                            <path d="M30.1266545,27.2340495 L4.32067223,27.2340495 C1.98325939,27.2340495 0.0708306924,24.9260792 0.0708306924,22.0411163 L0.0708306924,5.27948206 C0.0708306924,2.42336881 1.95964916,0.0865488862 4.32067223,0.0865488862 L30.1266545,0.0865488862 C32.4640673,0.0865488862 34.376496,2.39451918 34.376496,5.27948206 L34.376496,22.0411163 C34.376496,24.8972296 32.4876776,27.2340495 30.1266545,27.2340495 Z" id="Path" stroke="#66B0F0" stroke-width="6" stroke-linejoin="round"></path>
                            <g id="Group" transform="translate(6.610865, 6.635415)" fill="#66B0F0" fill-rule="nonzero">
                                <path d="M11.2620801,13.8478218 L2.52629469,13.8478218 C1.13329108,13.8478218 0,12.4630396 0,10.7609115 L0,3.28885768 C0,1.58672958 1.13329108,0.201947401 2.52629469,0.201947401 L11.2620801,0.201947401 C12.6550837,0.201947401 13.7883748,1.58672958 13.7883748,3.28885768 L13.7883748,10.7609115 C13.7883748,12.4630396 12.6550837,13.8478218 11.2620801,13.8478218 Z" id="Path"></path>
                                <path d="M19.7617632,13.6458744 L17.0701969,11.4533026 C16.3382797,10.8474604 15.8896853,9.80887377 15.8896853,8.68373825 L15.8896853,5.39488057 C15.8896853,4.26974505 16.3382797,3.23115842 17.0701969,2.62531621 L19.7617632,0.432744431 C20.3992394,-0.0865488862 21.2255975,0.490443688 21.2255975,1.47133107 L21.2255975,12.6361374 C21.2492077,13.5881751 20.3992394,14.1651677 19.7617632,13.6458744 Z" id="Path"></path>
                            </g>
                        </g>
                    </g>
                    <g id="TABLE" transform="translate(0.931381, 294.602694)" stroke-linecap="round" stroke-width="6">
                        <path d="M440.607462,0.80733945 L0.263712471,0.80733945" id="Path" stroke="#F5A623"></path>
                        <rect id="Rectangle" stroke="#FFCF2D" fill="#FFFFFF" fill-rule="nonzero" x="410.419962" y="4.8440367" width="12.46875" height="259.155963"></rect>
                    </g>
                    <g id="PLANT" transform="translate(21.931381, 193.602694)">
                        <path d="M39.0342857,66.1581109 L31.3371429,66.1581109 C31.3371429,66.1581109 20.3485714,10.763655 10.6971429,8.95934292 C1.04571429,7.1550308 0.548571429,28.4749487 0.548571429,28.4749487 C0.548571429,28.4749487 0.72,-3.94045175 24.84,0.497741273 C48.9771429,4.93593429 39.0342857,66.1581109 39.0342857,66.1581109 Z" id="Path" stroke="#3FB1B5" stroke-width="6" fill="#FFFFFF" fill-rule="nonzero" stroke-linecap="round"></path>
                        <path d="M12.6685714,1.90800821 C12.6685714,1.90800821 34.6628571,-7.92238193 35.6571429,65.3285421" id="Path" stroke="#3FB1B5" stroke-width="6" stroke-linecap="round"></path>
                        <rect id="Rectangle" fill="#E88939" fill-rule="nonzero" x="23.8457143" y="65.3285421" width="36.1542857" height="35.6092402"></rect>
                        <path d="M67.6114286,83.1435318 C65.3142857,84.3464066 62.5714286,84.201232 60.0171429,82.8531828 C58.1314286,81.8577002 56.3485714,80.2193018 54.9085714,77.9794661 C52.92,74.8685832 51.5828571,70.6170431 51.5828571,65.3285421 L51.5828571,65.3285421 C51.5828571,52.5117043 43.1485714,44.4648871 39.6857143,61.4295688 C39.4457143,62.6117043 39.2228571,63.8975359 39.0342857,65.3285421 L39.0342857,65.2870637 L39.0342857,65.2041068 L39.0342857,65.2041068 C39.0342857,65.1626283 39.0342857,65.1004107 39.0514286,65.038193 L39.0514286,64.9552361 C39.12,63.8975359 39.3771429,60.7659138 40.1657143,56.9913758 C40.7485714,54.1915811 41.6228571,51.0806982 42.9257143,48.1979466 C43.5771429,46.7669405 44.3314286,45.398152 45.2228571,44.174538 C47.52,40.9806982 50.6742857,38.7408624 54.9771429,38.7408624 C62.8971429,38.7408624 68.6914286,50.0229979 70.9028571,61.263655 C72.84,71.0318275 72.0514286,80.8 67.6114286,83.1435318 Z" id="Path" stroke="#3FB1B5" stroke-width="6" fill="#FFFFFF" fill-rule="nonzero" stroke-linecap="round"></path>
                        <path d="M45.24,44.174538 C45.24,44.174538 61.1142857,30.5073922 65.7771429,83.537577" id="Path" stroke="#3FB1B5" stroke-width="6" stroke-linecap="round"></path>
                        <path d="M0.0342857143,28.4749487 C0.0342857143,31.8969199 -0.291428571,44.9833676 10.0285714,45.5848049 C20.3485714,46.1862423 21.3771429,27.3342916 21.3771429,27.3342916 C21.3771429,27.3342916 16.3028571,10.6599589 10.6971429,8.95934292 C1.21714286,6.07659138 0.0342857143,28.4749487 0.0342857143,28.4749487 Z" id="Path" fill="#3FB1B5" fill-rule="nonzero"></path>
                        <path d="M51.5828571,65.3285421 L39.0342857,65.3285421 C41.9314286,43.3657084 51.5828571,51.6199179 51.5828571,65.3285421 Z" id="Path" fill="#3FB1B5" fill-rule="nonzero"></path>
                    </g>
                    <rect id="Rectangle" stroke="#FFCF2D" stroke-width="6" fill="#FFFFFF" fill-rule="nonzero" stroke-linecap="round" x="51.9313809" y="298.602694" width="12" height="260"></rect>
                    <g id="LIGHT" transform="translate(95.931381, 0.602694)" fill="#FFFFFF" fill-rule="nonzero" opacity="0.4">
                        <path d="M239,16.1435266 L239,182.13016 C239,191.056877 233.898362,198.273687 227.627598,198.273687 L93.798167,198.273687 C85.4017209,214.693816 68.0951221,214.769253 59.6278199,198.273687 L59.6101058,198.248541 C56.2444418,197.921647 53.2684862,195.482516 51.3553719,191.886684 L54.4376116,188.114832 L133.087866,91.7565863 L207.982749,0 L227.627598,0 C233.898362,0 239,7.24195584 239,16.1435266 Z" id="Path"></path>
                        <path d="M35.7234249,234.043454 C33.3478171,235.562044 30.4720814,235.334255 27.8106863,233.689116 L27.8106863,255 L0,255 L22.5057577,227.488205 L27.828548,220.983577 L31.8831567,216.022848 L39.7244485,206.582278 C42.0107477,220.40145 40.7425661,230.778484 35.7234249,234.043454 Z" id="Path"></path>
                    </g>
                    <g id="GIRL" transform="translate(130.931381, 126.602694)">
                        <g id="GIRL_1_" transform="translate(0.263757, 0.000000)">
                            <g id="LEGS" transform="translate(59.336332, 186.527103)">
                                <g id="RIGHT_LEG" transform="translate(51.400853, 60.735606)">
                                    <polygon id="Path" fill="#A0505A" fill-rule="nonzero" points="52.0830244 0.0389330806 52.0830244 108.389696 31.681328 108.389696 18.6883347 63.8697187 0.0793223033 0.0389330806"></polygon>
                                    <polygon id="Path" fill="#73325A" fill-rule="nonzero" points="0.0793223033 0.0389330806 52.0830244 0.0389330806 52.0830244 34.8256406 6.26646196 21.2379955"></polygon>
                                    <g id="Group" transform="translate(18.561419, 63.850252)" stroke="#FFFFFF" stroke-linecap="round" stroke-width="6">
                                        <path d="M33.5216054,0.0194665403 L33.5216054,44.5394442 L13.119909,44.5394442 L0.126915685,0.0194665403 C0.126915685,0.0194665403 10.6450531,7.14422029 33.5216054,0.0194665403 Z" id="Path"></path>
                                        <ellipse id="Oval" cx="10.7402399" cy="7.63088379" rx="2.31621126" ry="2.84211488"></ellipse>
                                        <ellipse id="Oval" cx="21.7819045" cy="16.7996243" rx="2.31621126" ry="2.84211488"></ellipse>
                                        <ellipse id="Oval" cx="29.9996951" cy="6.6186237" rx="2.31621126" ry="2.84211488"></ellipse>
                                        <ellipse id="Oval" cx="26.7474807" cy="27.4672884" rx="2.31621126" ry="2.84211488"></ellipse>
                                        <ellipse id="Oval" cx="13.0564511" cy="22.2891886" rx="2.31621126" ry="2.84211488"></ellipse>
                                        <ellipse id="Oval" cx="16.8321928" cy="37.8624209" rx="2.31621126" ry="2.84211488"></ellipse>
                                    </g>
                                    <g id="Group" transform="translate(12.056990, 98.890025)" fill-rule="nonzero">
                                        <path d="M49.6716263,29.7059405 L35.679172,65.3491758 C33.6961145,71.0918051 29.1112853,74.8293809 24.0187934,74.8293809 L6.1712752,74.8293809 C1.60231053,74.8293809 -1.17397009,69.1451511 0.571120584,63.9670514 L18.5138256,10.8623295 C19.5132866,7.63088379 21.2742418,4.94450123 23.4794018,3.05624683 C25.7004263,1.16799242 28.3656557,0.0973327015 31.1736652,0.0973327015 C35.0763225,0.0973327015 38.9472509,3.34824493 41.5172936,6.94955488 L47.7361621,15.1839014 C50.6076295,19.1940087 51.3532592,24.8198389 49.6716263,29.7059405 Z" id="Path" fill="#66B0F0"></path>
                                        <path d="M49.6716263,29.7059405 L35.679172,65.3491758 C33.6961145,71.0918051 29.1112853,74.8293809 24.0187934,74.8293809 L5.04489849,74.8293809 C3.28394336,74.8293809 2.28448234,73.4861896 1.69749729,71.6368683 L5.91744383,71.6368683 C11.0099357,71.6368683 15.5947648,67.8992925 17.5778224,62.1566631 L33.7119789,20.8681312 C35.2191027,17.0137562 38.4078593,14.5415056 41.8980406,14.5415056 C46.4511408,14.5415056 49.9095933,18.6294791 50.5441717,23.8075788 C50.6076295,25.7931659 50.3220692,27.7982195 49.6716263,29.7059405 Z" id="Path" stroke="#66B0F0" stroke-width="6" fill="#FFFFFF" stroke-linejoin="round"></path>
                                        <path d="M46.4511408,13.4708459 C44.769508,12.3417865 42.738857,11.5241919 40.9620374,11.5241919 C37.5511784,11.5241919 34.3941507,13.9575094 32.9187559,17.7340182 L16.2134788,60.4825407 C14.0876411,66.653434 9.16965827,70.6440747 3.69641934,70.6440747 L0.618713966,70.6440747 C0.460069359,70.2742105 0.349018135,69.8848796 0.23796691,69.4760823 L3.69641934,69.4760823 C8.78891121,69.4760823 13.3578759,65.7579731 15.3409335,60.0153437 L15.3567979,59.9958772 L32.0779395,17.2278882 C33.7119789,13.042582 37.2021603,10.3561994 40.9779019,10.3561994 C42.1836009,10.3561994 43.6272668,10.8428629 44.8646948,11.3684595 L46.4511408,13.4708459 Z" id="Path" fill="#FFFFFF"></path>
                                    </g>
                                </g>
                                <g id="LEFT_LEG">
                                    <path d="M51.4801749,60.7745388 L47.4981952,124.605324 L45.7213756,153.201672 C45.7213756,153.201672 34.1244549,169.047436 20.9252236,159.275233 L14.8174063,124.624791 L0.840816415,45.3375723 C-2.93492522,23.9049115 8.9951492,3.05624683 26.7157518,0.155732322 L51.4801749,60.7745388 Z" id="Path" fill="#A0505A" fill-rule="nonzero"></path>
                                    <g id="Group" transform="translate(14.753948, 124.585858)" stroke="#FFFFFF" stroke-linecap="round" stroke-width="6">
                                        <path d="M32.7442468,0.0194665403 L30.9674272,29.3944758 C30.9674272,29.3944758 19.3705065,45.2402396 6.1712752,35.4680364 L0.0634578427,0.0389330806 C15.4043913,5.68422977 32.7442468,0.0194665403 32.7442468,0.0194665403 Z" id="Path"></path>
                                        <ellipse id="Oval" cx="14.5159815" cy="14.8335037" rx="2.31621126" ry="2.84211488"></ellipse>
                                        <ellipse id="Oval" cx="29.238201" cy="10.4729987" rx="2.31621126" ry="2.84211488"></ellipse>
                                        <ellipse id="Oval" cx="5.63188354" cy="6.6186237" rx="2.31621126" ry="2.84211488"></ellipse>
                                        <ellipse id="Oval" cx="12.1997703" cy="30.3094032" rx="2.31621126" ry="2.84211488"></ellipse>
                                        <ellipse id="Oval" cx="23.003468" cy="24.6251735" rx="2.31621126" ry="2.84211488"></ellipse>
                                    </g>
                                    <g id="Group" transform="translate(20.782443, 153.007007)" fill-rule="nonzero">
                                        <path d="M40.2322722,7.0079545 L24.9389322,82.0514673 L20.1161361,82.0514673 C19.8940337,82.0514673 19.6877957,82.0320008 19.4656932,82.0125342 C15.8168673,81.6037369 12.7391619,77.8272281 11.9618033,73.3693904 L0.126915685,6.22929289 C13.326147,16.0209627 24.9389322,0.175198863 24.9389322,0.175198863 L40.2322722,7.0079545 Z" id="Path" fill="#66B0F0"></path>
                                        <path d="M41.0096308,45.5127712 C44.2301163,24.64464 45.1185261,8.70154351 39.5659649,7.41675185 C34.0134037,6.13196019 24.1298447,19.9726703 20.9093592,40.8408015 C17.6888736,61.7089327 19.3705065,80.1632129 24.9230677,81.4480046 C30.4756289,82.7522628 37.7891453,66.4003689 41.0096308,45.5127712 Z" id="Path" stroke="#66B0F0" stroke-width="6" fill="#FFFFFF" stroke-linejoin="round"></path>
                                        <path d="M18.6883347,40.5098703 C17.0225663,51.3332667 16.530768,61.7867989 17.323991,69.9627458 C17.8951116,75.841641 19.1008106,80.0269471 20.7507146,82.0514673 L20.1161361,82.0514673 C19.8940337,82.0514673 19.6877957,82.0320008 19.4656932,82.0125342 C17.9744339,79.5986833 16.9115151,75.5496429 16.3721234,70.0990116 C15.5630359,61.825732 16.0548342,51.235934 17.7523315,40.2957384 C19.354642,29.939539 22.590992,20.2257354 26.8902608,12.9257828 C29.4603035,8.56527773 32.1572618,5.5090309 34.6162532,4.12690654 L36.0440546,4.71090275 C30.3804422,6.77435602 21.7819045,20.4788004 18.6883347,40.5098703 Z" id="Path" fill="#FFFFFF"></path>
                                    </g>
                                </g>
                            </g>
                            <g id="SKIRT" transform="translate(85.590809, 177.644860)">
                                <path d="M0.221558525,9.24156128 L72.4179864,0.135620396 L144.582763,24.9154042 L143.965564,36.6562556 C142.984377,55.1781269 129.944075,69.5926376 114.783142,69.5926376 L24.9411597,69.5926376 L0.221558525,9.24156128 Z" id="Path" fill="#36A598" fill-rule="nonzero"></path>
                                <g id="Group" transform="translate(0.000000, 7.749737)" stroke="#FFFFFF" stroke-linecap="round" stroke-linejoin="round" stroke-width="6">
                                    <path d="M140.468105,16.3131962 C140.468105,33.1301253 126.763127,53.7056769 111.602194,53.7056769 L21.7602123,53.7056769" id="Path"></path>
                                    <path d="M131.90645,12.961435 C129.659214,27.9765503 117.663402,44.0185057 104.528147,44.0185057 L18.1203222,44.0185057" id="Path"></path>
                                    <path d="M122.173701,9.39655602 C118.375555,22.1448733 108.073083,34.1375911 96.9160291,34.1375911 L13.5308956,34.1375911" id="Path"></path>
                                    <path d="M114.688188,6.89726586 C109.703121,16.1775758 101.521281,23.4817029 92.8013707,23.4817029 L9.41623731,23.4817029" id="Path"></path>
                                    <path d="M106.332266,4.0298632 C101.537107,9.9390376 95.3334682,13.7945317 88.8449685,13.7945317 L5.45983508,13.7945317" id="Path"></path>
                                    <path d="M95.460073,0.174369081 C92.0733927,2.5186645 88.3702002,3.91361715 84.5720541,3.91361715 L1.18692067,3.91361715" id="Path"></path>
                                    <path d="M24.767078,61.8429006 L0.0633024357,1.49182436" id="Path"></path>
                                </g>
                            </g>
                            <g id="HANDS" transform="translate(0.263757, 106.586916)">
                                <g id="RIGHT_HAND" transform="translate(220.023414, 1.940682)" fill-rule="nonzero">
                                    <path d="M14.3514192,12.4591774 C7.54003925,14.8268093 0.839542185,14.1281638 0.126723349,11.5858706 C-0.538574232,9.16001831 2.4711053,5.00695916 8.56966646,2.25119094 C8.87063441,2.11534321 9.18744278,1.97949548 9.50425116,1.84364775 C11.3417397,1.08678183 13.1792283,0.601611372 14.9058339,0.349322732 C20.0222891,-0.446356825 24.1883192,0.679238646 24.711053,2.58110685 C25.4238718,5.12340007 21.5588097,9.95569787 14.3514192,12.4591774 Z" id="Path" stroke="#3FB1B5" stroke-width="6" fill="#FFFFFF" stroke-linejoin="round"></path>
                                    <path d="M10.0428254,69.0494601 L7.42915632,69.0494601 L0.570255069,12.3233297 L0.570255069,12.2845161 L0.396010465,10.8678183 C0.728659255,8.28671148 4.02346632,4.63822961 9.83689995,2.27059776 C12.7356965,1.08678183 15.6186527,0.562797735 18.0739176,0.50457728 L20.5767038,8.90772967 L20.81431,9.70340923 L28.7345193,36.3101573 C33.4866449,52.2043416 23.8715108,69.0494601 10.0428254,69.0494601 Z" id="Path" fill="#A0505A"></path>
                                    <path d="M20.7351079,9.50934104 C19.071864,10.7901911 16.9175671,11.974007 14.3514192,12.8667206 C8.45878353,14.9044366 2.48694572,14.0699434 0.570255069,12.3233297 L0.570255069,12.2845161 L0.396010465,10.8678183 C0.728659255,8.28671148 4.02346632,4.63822961 9.83689995,2.27059776 C12.7356965,1.08678183 15.6186527,0.562797735 18.0739176,0.50457728 L20.7351079,9.50934104 Z" id="Path" fill="#73325A"></path>
                                </g>
                                <g id="LEFT_HAND">
                                    <path d="M145.224958,24.3167435 L136.908738,49.6620484 C132.806069,62.1794463 122.889967,70.3885305 111.865036,70.3885305 L0.079202093,70.3885305 L0.079202093,57.8517258 C0.079202093,54.8242621 1.59988228,52.1073076 3.91258339,51.0399325 L15.3968869,45.7030575 C16.4423545,45.217887 17.5353434,44.9655984 18.6441727,44.9655984 L31.6808372,44.9655984 L105.465507,35.8443937 L118.201204,0.116440911 L145.224958,24.3167435 Z" id="Path" fill="#A0505A" fill-rule="nonzero"></path>
                                    <path d="M12.1179202,53.4075644 L3.45321125,57.4247758 C1.71076521,58.2398622 0.554414651,60.2775781 0.554414651,62.5675827" id="Path" stroke="#73325A" stroke-width="6" stroke-linecap="round"></path>
                                    <path d="M12.1179202,59.8118145 L3.45321125,63.8290259 C1.71076521,64.6441123 0.554414651,66.6818282 0.554414651,68.9718328" id="Path" stroke="#73325A" stroke-width="6" stroke-linecap="round"></path>
                                    <path d="M12.1179202,65.9831828 L3.45321125,69.806326" id="Path" stroke="#73325A" stroke-width="6" stroke-linecap="round"></path>
                                    <path d="M11.2150164,47.8572143 C11.2150164,47.8572143 19.3253107,22.4925026 21.9231393,22.9194526 C24.520968,23.3464026 14.7315893,46.2270416 14.7315893,46.2270416 L11.2150164,47.8572143 Z" id="Path" fill="#E88939" fill-rule="nonzero"></path>
                                    <polygon id="Path" fill="#73325A" fill-rule="nonzero" points="118.201204 0.135847729 116.332034 5.35628189 140.266907 39.4152483 145.224958 24.3167435"></polygon>
                                </g>
                            </g>
                            <g id="T-SHIRT" transform="translate(111.845286, 58.945794)">
                                <path d="M109.160881,61.763673 L119.003776,143.308889 L46.6267464,118.357613 L33.6245996,71.8300202 L0.0635025488,41.6895039 L11.8432253,24.4440563 C22.3528972,9.05190912 37.8633947,0.156067399 54.215301,0.156067399 L77.4731095,0.156067399 C97.6986713,0.156067399 116.320794,13.7339311 126.020808,35.5443501 L133.561736,51.5802753 C133.561736,51.5802753 131.29152,47.4835061 119.051403,51.5997837 C108.271846,55.2478591 109.160881,61.763673 109.160881,61.763673 Z" id="Path" fill="#E88939" fill-rule="nonzero"></path>
                                <path d="M33.6245996,71.4593602 L37.3871256,51.4046994" id="Path" stroke="#FFFFFF" stroke-width="6" stroke-linecap="round" stroke-linejoin="round"></path>
                                <path d="M117.178078,124.268666 L104.937962,30.764786" id="Path" stroke="#FFFFFF" stroke-width="6" stroke-linecap="round" stroke-linejoin="round"></path>
                                <path d="M46.6108708,117.986953 L118.84502,143.308889" id="Path" stroke="#FFFFFF" stroke-width="6" stroke-linecap="round" stroke-linejoin="round"></path>
                            </g>
                            <g id="HEAD" transform="translate(147.945193, 0.000000)">
                                <polygon id="NECK" fill="#A0505A" fill-rule="nonzero" points="13.9495974 46.1301567 13.9495974 59.2100998 32.7072193 59.0154578 32.7072193 35.9309153"></polygon>
                                <g id="HEAD_1_" transform="translate(0.000000, 6.033902)">
                                    <path d="M34.2255429,25.8679233 L34.2255429,26.2182789 C34.2255429,29.7218351 32.0745845,32.5636085 29.2277279,32.5636085 L28.120617,32.5636085 C27.4089029,36.0282363 21.0825548,40.0767901 16.5908477,40.0767901 L11.3557947,40.0767901 C5.63044975,40.0767901 1.24945374,33.7509248 2.18259007,26.7827407 L2.43564399,24.8947132 L0.885688725,23.8241822 C-4.16333634e-17,23.2013277 -0.253053921,21.7804411 0.363765012,20.7683026 L3.71672947,15.3183263 L4.4442595,9.94620677 C5.02944669,5.52783312 7.38601133,1.92695591 10.5175536,0.155713609 C11.7511915,17.2647464 24.024306,19.2890233 27.26656,19.5225937 L29.0695692,19.5225937 C31.9164258,19.5225937 34.2255429,22.3643671 34.2255429,25.8679233 Z" id="Path" fill="#A0505A" fill-rule="nonzero"></path>
                                    <path d="M25.9222111,27.5418446 C25.9222111,24.777928 27.7410361,22.5395449 29.9868897,22.5395449" id="Path" stroke="#73325A" stroke-width="6" stroke-linecap="round"></path>
                                    <ellipse id="Oval" fill="#73325A" fill-rule="nonzero" cx="8.7778079" cy="17.4009958" rx="1" ry="2.29677573"></ellipse>
                                    <path d="M7.54417003,10.2965624 C7.54417003,10.2965624 9.77420772,10.0240636 12.0675089,13.9169038" id="Path" stroke="#73325A" stroke-width="6" stroke-linecap="round"></path>
                                </g>
                                <g id="HAIR" transform="translate(10.438474, 0.000000)">
                                    <path d="M16.8280858,25.5564961 L18.631095,25.5564961 C21.4779516,25.5564961 23.7870686,28.3982694 23.7870686,31.9018256 L23.7870686,32.2521813 C23.7870686,35.7557375 21.6361103,38.5975108 18.7892537,38.5975108 L17.5714317,39.6485777 C12.4470898,43.6971315 5.36157996,59.618848 7.10132567,70.8886205 C9.06249356,83.5598154 18.0300919,86.3821246 26.3176078,84.4357045 C34.6051238,82.4892844 40.6467861,76.552703 38.6856182,63.8620439 C38.4641961,62.3633004 38.100431,60.8645569 37.6417708,59.3852776 C37.7841136,59.4436702 37.9106406,59.5020628 38.0529834,59.5604554 C48.0169816,62.908298 59.7207255,63.2975821 62.947163,53.7211951 C66.1736005,44.1448082 65.4460704,34.6657422 55.7509421,29.7218351 C50.1204923,26.8411334 42.4656112,26.8605976 36.5346599,28.8459461 C39.5238594,16.0579659 34.209727,1.82963491 24.4513352,0.408748224 C9.12575704,-1.82963491 0.332133272,5.95604554 0.0947499735,6.17015176 C0.0947499735,6.17015176 0.0947499735,6.17015176 0.0947499735,6.17015176 C0.0790793504,8.42799909 1.32853309,24.4470366 16.8280858,25.5564961 Z" id="Path" fill="#73325A" fill-rule="nonzero"></path>
                                    <path d="M36.9300567,28.3982694 C35.6806029,33.4005691 33.1026161,38.7532244 28.9114105,42.3930301 C28.9114105,42.3930301 36.3132377,48.4074682 38.0529834,59.5799196" id="Path" stroke="#FFFFFF" stroke-width="6" stroke-linecap="round" stroke-linejoin="round"></path>
                                    <g id="Group" transform="translate(13.443490, 17.907065)" stroke="#E88939" stroke-linejoin="round" stroke-width="6">
                                        <g transform="translate(23.565646, 0.000000)" id="Path">
                                            <path d="M4.22283731,10.062992 L0.0316317402,10.062992 L0.0316317402,4.90497868 C0.0316317402,2.19945473 1.80300919,0.0194642011 4.00141513,0.0194642011 L4.22283731,0.0194642011 C6.42124326,0.0194642011 8.19262071,2.19945473 8.19262071,4.90497868 L8.19262071,5.1774775 C8.20843658,7.86353725 6.42124326,10.062992 4.22283731,10.062992 Z"></path>
                                            <path d="M2.68869792,15.3572547 L0,10.1019204 L4.27028492,6.79300619 C6.40542739,5.1385491 9.23646813,5.91711714 10.5808171,8.54478429 L10.833871,9.03138932 C12.17822,11.6590565 11.5455852,15.1431485 9.4104427,16.7976056 L9.01504595,17.1090328 C6.84827175,18.7634899 4.03304687,17.9849218 2.68869792,15.3572547 Z"></path>
                                        </g>
                                        <g transform="translate(0.000000, 19.269559)" id="Path">
                                            <path d="M1.48669179,5.46944052 L4.47589124,1.94642011 L7.4018272,6.01443815 C8.84107138,8.05817927 8.65128094,11.1529872 6.99061458,12.9047653 L6.81664001,13.0799432 C5.15597365,14.8511855 2.6412503,14.617615 1.217822,12.5738739 L1.07547917,12.3597677 C-0.363765012,10.3354908 -0.173974571,7.24068282 1.48669179,5.46944052 Z"></path>
                                            <path d="M5.85187193,7.99978666 L4.50752298,2.02427692 L9.36299509,0.369819821 C11.7986391,-0.467140827 14.3133624,1.28463727 14.9934448,4.28212425 L15.1199718,4.84658608 C15.8000542,7.84407305 14.3766259,10.938881 11.9409819,11.7758417 L11.4823217,11.9315553 C9.04667769,12.7490517 6.53195435,10.9778094 5.85187193,7.99978666 Z"></path>
                                        </g>
                                    </g>
                                </g>
                            </g>
                        </g>
                        <g id="CHAIR" transform="translate(107.820022, 244.438551)" stroke-width="6">
                            <path d="M29.842229,16.1394952 L0.153386671,186.807854" id="Path" stroke="#FFCF2D" stroke-linecap="round"></path>
                            <path d="M105.81976,16.1394952 L135.508602,186.807854" id="Path" stroke="#FFCF2D" stroke-linecap="round"></path>
                            <path d="M6.73197057,148.918767 L128.520987,148.918767" id="Path" stroke="#FFCF2D" stroke-linecap="round"></path>
                            <path d="M129.185663,16.1394952 L6.45928315,16.1394952 C4.90837348,16.1394952 3.64719418,14.5904386 3.64719418,12.6855176 L3.64719418,3.49584397 C3.64719418,1.59092301 4.90837348,0.0418663949 6.45928315,0.0418663949 L129.185663,0.0418663949 C130.736573,0.0418663949 131.997752,1.59092301 131.997752,3.49584397 L131.997752,12.6855176 C131.997752,14.5904386 130.736573,16.1394952 129.185663,16.1394952 Z" id="Path" stroke="#66B0F0" fill="#FFFFFF" fill-rule="nonzero" stroke-linejoin="round"></path>
                        </g>
                    </g>
                </g>
            </g>
        </g>
    </g>
</svg>